<?xml version="1.0" standalone="no"?>
<!DOCTYPE svg PUBLIC "-//W3C//DTD SVG 20010904//EN"
 "http://www.w3.org/TR/2001/REC-SVG-20010904/DTD/svg10.dtd">
<svg version="1.0" xmlns="http://www.w3.org/2000/svg"
 width="161.000000pt" height="160.000000pt" viewBox="0 0 161.000000 160.000000"
 preserveAspectRatio="xMidYMid meet">

<g transform="translate(0.000000,160.000000) scale(0.100000,-0.100000)"
fill="#FFFFFF" stroke="none">
<path d="M350 1566 c-25 -7 -63 -21 -85 -31 -52 -25 -156 -128 -184 -182 -52
-103 -63 -229 -36 -389 85 -485 453 -850 935 -929 224 -36 349 -9 472 104 60
55 98 118 123 205 19 65 15 113 -12 150 -22 31 -423 206 -470 206 -21 0 -66
-23 -146 -76 l-116 -75 -57 36 c-70 45 -154 131 -189 193 l-25 45 75 115 c52
79 75 124 75 145 0 28 -141 376 -178 439 -31 53 -94 68 -182 44z m156 -294
c41 -96 74 -178 74 -183 0 -5 -31 -56 -69 -113 -38 -58 -72 -119 -76 -136 -13
-59 82 -213 187 -303 66 -56 179 -117 218 -117 18 0 69 27 144 76 l117 77 177
-76 c197 -84 197 -84 164 -161 -30 -67 -93 -129 -164 -161 -59 -26 -66 -27
-182 -22 -183 8 -334 57 -491 162 -199 132 -342 327 -411 560 -23 77 -27 109
-28 230 -1 135 0 142 26 187 49 83 161 161 221 155 14 -2 38 -46 93 -175z"/>
<path d="M1052 1440 c-25 -24 -28 -56 -6 -85 12 -17 30 -21 110 -25 l94 -5
-140 -140 c-148 -147 -162 -172 -122 -208 39 -36 60 -23 209 125 l143 143 0
-91 c0 -77 3 -93 20 -112 21 -22 55 -28 76 -14 28 19 34 56 34 221 0 227 16
211 -218 211 -166 0 -180 -1 -200 -20z"/>
</g>
</svg>
