<?xml version="1.0" standalone="no"?>
<!DOCTYPE svg PUBLIC "-//W3C//DTD SVG 20010904//EN"
 "http://www.w3.org/TR/2001/REC-SVG-20010904/DTD/svg10.dtd">
<svg version="1.0" xmlns="http://www.w3.org/2000/svg"
 width="512.000000pt" height="512.000000pt" viewBox="0 0 512.000000 512.000000"
 preserveAspectRatio="xMidYMid meet">

<g transform="translate(0.000000,512.000000) scale(0.100000,-0.100000)"
fill="#000000" stroke="none">
<path d="M2350 4844 c-14 -2 -65 -9 -115 -15 -123 -15 -367 -78 -499 -129
-735 -285 -1270 -922 -1425 -1695 -29 -148 -41 -275 -41 -454 0 -1034 705
-1947 1704 -2206 239 -62 304 -69 586 -69 272 0 350 8 555 60 814 205 1449
832 1660 1639 51 192 66 299 72 505 8 257 -12 442 -73 670 -210 794 -846 1426
-1639 1628 -221 56 -359 72 -590 71 -93 -1 -181 -3 -195 -5z m440 -325 c823
-102 1483 -685 1685 -1489 53 -208 70 -501 41 -716 -46 -353 -181 -679 -395
-959 -64 -85 -232 -256 -321 -328 -373 -301 -817 -449 -1305 -434 -292 9 -521
63 -782 187 -612 291 -1028 870 -1112 1550 -14 109 -14 351 -1 460 84 677 502
1259 1112 1549 187 89 405 154 604 180 99 12 375 13 474 0z"/>
<path d="M2049 3547 c-19 -12 -44 -42 -56 -67 l-23 -44 0 -876 0 -876 23 -44
c33 -66 78 -93 148 -88 65 5 109 32 133 82 14 29 16 83 16 400 l0 366 273 0
c307 0 371 9 490 72 80 42 193 155 235 235 40 76 72 197 72 273 0 268 -186
509 -445 575 -48 12 -132 15 -446 15 -384 0 -386 0 -420 -23z m837 -321 c165
-77 204 -296 74 -426 -73 -73 -83 -75 -392 -78 l-278 -3 0 265 0 266 273 0
c265 0 273 -1 323 -24z"/>
</g>
</svg>
