<?xml version="1.0" standalone="no"?>
<!DOCTYPE svg PUBLIC "-//W3C//DTD SVG 20010904//EN"
 "http://www.w3.org/TR/2001/REC-SVG-20010904/DTD/svg10.dtd">
<svg version="1.0" xmlns="http://www.w3.org/2000/svg"
 width="512.000000pt" height="349.000000pt" viewBox="0 0 512.000000 349.000000"
 preserveAspectRatio="xMidYMid meet">

<g transform="translate(0.000000,349.000000) scale(0.100000,-0.100000)"
fill="#000000" stroke="none">
<path d="M2405 3454 c-804 -31 -1392 -264 -1750 -694 -39 -47 -80 -101 -92
-121 -21 -33 -26 -35 -102 -46 -177 -26 -316 -122 -395 -272 -110 -210 -79
-441 84 -614 l60 -65 0 -368 c0 -203 5 -397 10 -432 26 -186 170 -334 352
-364 l66 -11 4 -91 c5 -110 30 -175 91 -234 133 -129 321 -129 454 0 61 59 86
124 91 235 l4 93 1278 0 1277 0 5 -93 c6 -108 27 -165 86 -229 93 -100 235
-129 366 -74 55 23 131 100 157 159 16 37 24 77 27 143 l4 91 66 11 c182 30
326 178 352 364 5 35 10 229 10 432 l0 369 60 63 c240 250 178 660 -125 829
-66 37 -162 65 -221 65 -37 0 -42 4 -99 83 -33 45 -105 127 -161 182 -323 322
-780 510 -1382 569 -153 16 -439 25 -577 20z m635 -238 c411 -58 703 -157 960
-327 98 -65 350 -304 350 -331 0 -8 -15 -21 -33 -30 -48 -23 -140 -110 -177
-168 -18 -27 -43 -82 -58 -122 -23 -67 -26 -90 -30 -280 l-4 -208 -658 0
c-711 0 -708 0 -791 -54 l-39 -26 -39 26 c-83 54 -80 54 -791 54 l-657 0 -6
198 c-6 212 -14 257 -68 364 -35 69 -122 165 -189 208 l-50 32 42 51 c292 348
741 558 1323 616 61 6 126 13 145 15 92 10 661 -3 770 -18z m-2374 -859 c60
-30 128 -102 157 -165 20 -42 22 -67 25 -254 l3 -207 -38 -19 c-54 -28 -109
-85 -140 -145 -39 -75 -39 -188 -2 -268 33 -71 87 -125 158 -158 l56 -26 740
-3 c514 -2 756 0 791 8 28 6 72 24 98 40 l46 30 46 -30 c26 -16 70 -34 98 -40
35 -8 277 -10 791 -8 l740 3 56 26 c71 33 125 87 158 158 37 80 37 193 -2 268
-31 60 -86 117 -139 144 l-38 19 0 200 c0 179 2 205 21 257 26 68 92 138 164
173 73 35 189 34 265 -1 150 -71 221 -238 167 -396 -20 -57 -79 -130 -132
-163 -20 -12 -41 -32 -48 -43 -9 -16 -13 -142 -17 -479 l-5 -456 -30 -44 c-17
-23 -51 -54 -75 -68 l-45 -25 -1975 0 -1975 0 -45 25 c-24 14 -58 45 -75 68
l-30 44 -5 456 c-4 337 -8 463 -17 479 -7 11 -28 31 -47 42 -200 124 -198 419
4 544 85 53 208 59 296 14z m1706 -827 c49 -14 78 -52 78 -102 0 -53 -40 -94
-101 -103 -24 -3 -356 -5 -736 -3 l-693 3 -31 32 c-43 42 -45 101 -4 143 15
16 37 31 49 33 49 10 1403 6 1438 -3z m1859 -27 c45 -44 45 -102 0 -146 l-31
-32 -693 -3 c-380 -2 -712 0 -736 3 -61 9 -101 50 -101 103 0 48 29 88 73 101
19 6 326 9 744 8 l713 -2 31 -32z m-3161 -1080 c0 -107 -38 -163 -110 -163
-72 0 -110 56 -110 163 l0 47 110 0 110 0 0 -47z m3200 0 c0 -107 -38 -163
-110 -163 -72 0 -110 56 -110 163 l0 47 110 0 110 0 0 -47z"/>
</g>
</svg>
