<?xml version="1.0" standalone="no"?>
<!DOCTYPE svg PUBLIC "-//W3C//DTD SVG 20010904//EN"
 "http://www.w3.org/TR/2001/REC-SVG-20010904/DTD/svg10.dtd">
<svg version="1.0" xmlns="http://www.w3.org/2000/svg"
 width="512.000000pt" height="512.000000pt" viewBox="0 0 512.000000 512.000000"
 preserveAspectRatio="xMidYMid meet">

<g transform="translate(0.000000,512.000000) scale(0.100000,-0.100000)"
fill="#000000" stroke="none">
<path d="M2279 4756 c-106 -28 -209 -121 -251 -224 l-23 -57 0 -1330 0 -1330
23 -58 c33 -81 114 -166 194 -203 l63 -29 527 -3 527 -3 147 -177 c154 -187
205 -271 224 -371 5 -29 10 -156 10 -280 0 -257 5 -278 76 -318 l39 -23 579 0
c559 0 581 1 621 20 27 13 49 34 63 59 l23 40 -4 993 c-3 988 -3 993 -25 1076
-31 116 -74 212 -139 311 -44 67 -139 169 -434 466 l-378 380 -3 400 c-3 392
-3 401 -26 449 -49 107 -137 182 -247 211 -51 13 -162 15 -800 14 -553 0 -752
-3 -786 -13z m1535 -307 l26 -20 0 -638 0 -638 -57 20 c-46 15 -78 18 -154 15
-87 -3 -104 -7 -170 -40 -230 -114 -320 -377 -208 -607 28 -57 70 -104 311
-347 296 -299 303 -309 258 -354 -20 -20 -33 -20 -744 -20 -698 0 -725 1 -747
19 l-24 19 0 1287 0 1287 24 19 c22 18 49 19 741 19 711 0 718 0 744 -21z
m890 -1769 c53 -80 91 -175 105 -260 7 -42 11 -370 11 -917 l0 -853 -399 0
-398 0 -6 182 c-4 146 -10 198 -27 258 -32 113 -85 210 -176 323 l-82 102 70
7 c137 15 247 93 307 218 22 48 26 68 26 150 -1 155 -6 163 -340 500 -299 301
-305 309 -291 385 17 91 131 145 214 101 15 -8 135 -123 267 -256 132 -133
253 -248 269 -256 15 -9 47 -16 71 -16 89 0 145 57 145 148 0 65 -17 88 -194
264 l-136 135 0 185 0 185 261 -260 c156 -156 277 -286 303 -325z"/>
<path d="M558 4412 c-77 -35 -279 -294 -367 -471 -85 -169 -142 -346 -172
-536 -17 -103 -17 -417 0 -520 55 -344 191 -633 420 -900 106 -123 166 -148
251 -105 45 23 80 80 80 130 0 45 -24 86 -97 165 -166 179 -287 419 -345 682
-29 135 -31 414 -4 553 52 265 176 517 349 705 101 111 117 157 76 236 -14 29
-32 46 -62 60 -52 23 -81 23 -129 1z"/>
<path d="M1041 3969 c-48 -10 -76 -34 -154 -130 -82 -100 -176 -285 -207 -404
-55 -215 -48 -443 21 -647 68 -203 239 -442 335 -467 94 -25 184 42 184 137 0
58 -10 78 -79 157 -73 84 -144 216 -173 322 -27 102 -29 296 -4 398 25 106
105 258 176 340 68 77 80 99 80 152 0 96 -84 162 -179 142z"/>
<path d="M1470 3509 c-34 -14 -75 -55 -110 -109 -111 -174 -95 -409 39 -562
49 -55 87 -72 145 -66 59 7 101 39 121 93 23 58 14 100 -31 158 -65 83 -65
161 0 244 20 25 38 61 42 80 9 46 -20 117 -58 144 -35 25 -110 34 -148 18z"/>
</g>
</svg>
