<?xml version="1.0" standalone="no"?>
<!DOCTYPE svg PUBLIC "-//W3C//DTD SVG 20010904//EN"
 "http://www.w3.org/TR/2001/REC-SVG-20010904/DTD/svg10.dtd">
<svg version="1.0" xmlns="http://www.w3.org/2000/svg"
 width="512.000000pt" height="451.000000pt" viewBox="0 0 512.000000 451.000000"
 preserveAspectRatio="xMidYMid meet">
<metadata>
Created by potrace 1.16, written by Peter Selinger 2001-2019
</metadata>
<g transform="translate(0.000000,451.000000) scale(0.100000,-0.100000)"
fill="#FFFFFF" stroke="none">
<path d="M1434 3833 c-827 -510 -1073 -666 -1091 -692 -30 -45 -32 -132 -3
-179 24 -39 75 -72 113 -72 l27 0 0 -1387 c0 -1367 0 -1388 20 -1421 30 -48
75 -72 140 -72 65 0 110 24 140 72 20 33 20 54 20 1421 l0 1387 1760 0 1760 0
0 -427 c0 -409 1 -429 20 -461 30 -48 75 -72 140 -72 65 0 110 24 140 72 19
32 20 52 20 461 l0 427 28 0 c37 0 88 33 112 72 29 47 27 134 -3 179 -18 26
-264 182 -1091 692 l-1069 657 -57 0 -57 0 -1069 -657z m1881 -163 l740 -455
-748 -3 c-411 -1 -1083 -1 -1494 0 l-747 3 739 457 c407 251 747 456 756 455
8 -1 348 -207 754 -457z"/>
<path d="M1832 2550 c-18 -11 -41 -34 -52 -52 -19 -31 -20 -51 -20 -300 l0
-268 -107 0 c-122 0 -157 -13 -193 -72 -19 -31 -20 -51 -20 -300 l0 -268 -187
0 c-210 0 -233 -6 -273 -72 -19 -31 -20 -51 -20 -408 0 -354 1 -377 20 -407
38 -63 54 -67 268 -73 l194 -5 18 -52 c36 -103 106 -179 210 -231 50 -25 65
-27 170 -27 105 0 120 2 170 27 104 51 186 143 215 241 l12 42 723 0 723 0 12
-42 c29 -98 111 -190 215 -241 50 -25 65 -27 170 -27 105 0 120 2 170 27 104
51 186 143 215 241 l12 42 115 5 c126 6 154 16 188 73 19 30 20 54 20 485 0
374 -2 458 -14 480 -18 33 -682 695 -713 711 -15 7 -142 11 -395 11 -355 0
-375 -1 -406 -20 -18 -11 -41 -34 -52 -52 -19 -31 -20 -51 -20 -380 l0 -348
-80 0 -80 0 0 268 c0 249 -1 269 -20 300 -36 59 -71 72 -192 72 l-108 0 0 268
c0 249 -1 269 -20 300 -11 18 -34 41 -52 52 -31 19 -51 20 -408 20 -357 0
-377 -1 -408 -20z m568 -460 l0 -160 -160 0 -160 0 0 160 0 160 160 0 160 0 0
-160z m1685 -480 l160 -160 -230 0 c-212 0 -233 -2 -263 -20 -48 -30 -72 -75
-72 -140 0 -65 24 -110 72 -140 31 -19 51 -20 381 -20 l347 0 0 -240 0 -240
-34 0 c-28 0 -45 10 -85 49 -28 27 -77 62 -108 78 -53 26 -67 28 -173 28 -106
0 -120 -2 -173 -28 -31 -16 -80 -51 -108 -78 l-50 -49 -789 0 -789 0 -50 49
c-28 27 -77 62 -108 78 -53 26 -67 28 -173 28 -106 0 -120 -2 -173 -28 -31
-16 -80 -51 -108 -78 l-50 -49 -115 0 -114 0 0 160 0 160 960 0 960 0 0 -27
c0 -73 73 -133 160 -133 65 0 110 24 140 72 19 32 20 52 20 461 l0 427 203 0
202 0 160 -160z m-2005 -160 l0 -160 -160 0 -160 0 0 160 0 160 160 0 160 0 0
-160z m640 0 l0 -160 -160 0 -160 0 0 160 0 160 160 0 160 0 0 -160z m-830
-990 c43 -43 11 -120 -50 -120 -38 0 -70 32 -70 70 0 38 32 70 70 70 17 0 39
-9 50 -20z m2240 0 c43 -43 11 -120 -50 -120 -38 0 -70 32 -70 70 0 38 32 70
70 70 17 0 39 -9 50 -20z"/>
</g>
</svg>
