<?xml version="1.0" standalone="no"?>
<!DOCTYPE svg PUBLIC "-//W3C//DTD SVG 20010904//EN"
 "http://www.w3.org/TR/2001/REC-SVG-20010904/DTD/svg10.dtd">
<svg version="1.0" xmlns="http://www.w3.org/2000/svg"
 width="512.000000pt" height="482.000000pt" viewBox="0 0 512.000000 482.000000"
 preserveAspectRatio="xMidYMid meet">
<metadata>
Created by potrace 1.16, written by Peter Selinger 2001-2019
</metadata>
<g transform="translate(0.000000,482.000000) scale(0.100000,-0.100000)"
fill="#FFFFFF" stroke="none">
<path d="M129 4477 c-51 -27 -104 -91 -119 -145 -14 -51 -14 -2973 0 -3024 15
-54 68 -118 120 -144 l45 -23 873 -1 872 0 0 -320 0 -320 -23 0 c-40 0 -91
-35 -114 -80 -20 -38 -23 -58 -23 -158 0 -129 16 -179 68 -217 26 -20 43 -20
737 -20 694 0 711 0 737 20 52 38 68 88 68 213 0 74 -5 124 -14 146 -20 47
-65 85 -108 92 l-38 7 0 318 0 319 873 0 872 0 50 28 c32 17 61 44 82 76 l33
48 0 1527 0 1527 -29 46 c-29 45 -63 74 -114 96 -21 9 -579 12 -2416 12
l-2388 0 -44 -23z m4807 -170 l24 -28 0 -1325 0 -1324 -1352 0 c-744 0 -1822
-3 -2395 -7 l-1043 -6 0 1330 c0 1320 0 1331 20 1356 11 14 30 28 43 30 12 2
1070 4 2350 3 l2329 -1 24 -28z m24 -2891 c0 -44 -5 -61 -24 -83 l-24 -28
-2347 0 -2347 0 -24 28 c-18 21 -24 40 -24 73 l0 44 293 1 c160 1 1223 5 2362
8 1139 4 2085 8 2103 9 l32 2 0 -54z m-2680 -401 c0 -146 17 -207 77 -269 57
-58 123 -86 208 -86 88 0 153 29 212 93 57 62 73 120 73 269 l0 118 95 0 95 0
0 -320 0 -320 -475 0 -475 0 0 320 0 320 95 0 95 0 0 -125z m400 15 c0 -153
-27 -200 -115 -200 -88 0 -115 47 -115 200 l0 110 115 0 115 0 0 -110z m520
-770 l0 -80 -635 0 -635 0 0 80 0 80 635 0 635 0 0 -80z"/>
<path d="M2345 4166 c-113 -22 -205 -52 -311 -105 -419 -206 -674 -615 -674
-1081 0 -522 329 -978 825 -1144 137 -46 240 -59 425 -53 178 6 249 19 396 76
324 125 587 400 698 730 l23 66 454 5 c512 6 487 2 529 86 19 39 20 59 20 634
0 575 -1 595 -20 634 -11 23 -33 50 -48 61 -26 19 -45 20 -584 23 -548 2 -558
2 -578 -18 -27 -27 -27 -93 0 -120 19 -19 33 -20 540 -20 l520 0 0 -560 0
-560 -397 0 -398 0 0 168 c-1 140 -5 182 -24 262 -59 238 -166 428 -337 596
-140 136 -341 250 -531 301 -85 22 -122 26 -278 29 -121 2 -203 -1 -250 -10z
m437 -176 c382 -82 682 -371 785 -758 23 -85 26 -117 26 -252 0 -135 -3 -167
-26 -252 -104 -389 -406 -679 -792 -759 -115 -24 -303 -26 -411 -4 -185 39
-359 128 -495 254 -98 90 -157 166 -215 275 -166 311 -166 661 0 972 217 408
675 620 1128 524z"/>
<path d="M2360 3838 c-52 -36 -73 -71 -78 -132 l-4 -55 -57 -32 c-31 -17 -63
-38 -72 -46 -15 -12 -22 -12 -55 6 -55 30 -140 29 -185 -2 -33 -22 -97 -119
-161 -241 -25 -50 -29 -68 -26 -112 5 -62 25 -95 78 -132 l39 -27 1 -86 0 -86
-41 -27 c-46 -31 -78 -91 -79 -147 0 -63 131 -297 188 -336 55 -36 111 -39
176 -10 31 14 58 22 61 17 3 -5 34 -25 69 -45 63 -35 64 -36 68 -85 6 -62 44
-121 92 -144 31 -15 62 -17 205 -14 166 3 168 3 204 31 47 36 67 75 67 131 0
43 1 45 58 76 31 18 64 39 73 47 15 12 22 12 55 -6 46 -25 132 -28 174 -6 38
19 64 55 140 192 59 107 62 116 58 167 -5 64 -25 97 -78 134 l-39 27 -3 85 -3
85 41 26 c55 36 88 103 81 165 -5 52 -121 263 -167 306 -56 52 -137 59 -212
18 -22 -11 -40 -16 -43 -10 -3 5 -35 26 -70 46 -62 34 -65 38 -65 73 0 56 -38
122 -85 148 -37 21 -53 23 -206 23 -156 0 -168 -1 -199 -22z m304 -144 c12 -5
16 -21 16 -73 0 -36 6 -73 13 -82 7 -9 46 -32 87 -51 41 -19 98 -52 125 -74
62 -47 102 -50 160 -11 22 15 45 27 52 27 7 0 31 -33 54 -72 23 -40 49 -83 56
-95 14 -21 12 -23 -41 -53 -31 -18 -59 -37 -63 -43 -4 -7 -8 -90 -9 -184 -1
-191 -1 -188 71 -226 60 -32 60 -27 5 -123 -29 -49 -55 -93 -60 -97 -4 -5 -32
5 -62 22 -30 17 -66 31 -79 31 -14 0 -49 -19 -79 -42 -30 -22 -87 -56 -127
-75 -90 -41 -103 -60 -103 -139 0 -74 0 -74 -115 -74 -116 0 -115 -1 -115 79
0 36 -6 73 -13 82 -7 9 -46 32 -87 51 -41 19 -97 52 -125 74 -62 47 -102 50
-160 11 -22 -15 -45 -27 -51 -27 -7 0 -31 33 -55 73 -23 39 -49 82 -56 94 -14
21 -12 23 41 53 31 18 59 37 63 43 4 7 8 90 9 184 1 191 1 188 -71 226 -60 32
-60 27 -5 123 29 49 55 93 60 97 4 5 32 -5 62 -22 30 -17 66 -31 80 -31 13 0
49 19 79 41 30 23 86 57 126 75 90 42 103 61 103 140 0 41 4 64 13 67 18 8
182 8 201 1z"/>
<path d="M2439 3366 c-115 -44 -211 -133 -250 -233 -32 -82 -32 -224 0 -306
32 -81 114 -168 199 -209 63 -31 73 -33 177 -33 104 0 114 2 177 33 85 41 167
128 199 209 32 82 32 224 0 306 -32 82 -121 175 -203 213 -54 25 -77 29 -163
31 -65 2 -112 -2 -136 -11z m256 -194 c22 -15 53 -50 70 -77 25 -41 30 -58 30
-115 0 -57 -5 -74 -30 -115 -46 -75 -101 -109 -183 -113 -108 -6 -184 38 -228
133 -80 171 67 357 256 323 25 -4 63 -21 85 -36z"/>
<path d="M480 3962 c-20 -11 -44 -37 -57 -62 -21 -40 -23 -56 -23 -198 0 -136
3 -161 20 -196 38 -78 50 -81 265 -81 174 0 192 2 217 20 36 26 68 92 68 138
l0 37 193 0 c189 0 194 1 215 23 29 30 29 86 2 115 -20 21 -28 22 -215 22
l-195 0 0 37 c0 46 -32 112 -68 138 -24 18 -45 20 -207 23 -161 2 -184 1 -215
-16z m320 -262 l0 -120 -115 0 -115 0 0 120 0 120 115 0 115 0 0 -120z"/>
<path d="M3682 3757 c-30 -32 -29 -87 1 -115 23 -22 28 -22 354 -22 l332 0 20
26 c12 15 21 39 21 54 0 15 -9 39 -21 54 l-20 26 -333 0 -333 0 -21 -23z"/>
<path d="M3870 3440 c-13 -13 -20 -33 -20 -60 0 -27 7 -47 20 -60 19 -19 33
-20 259 -20 l240 0 20 26 c27 34 27 74 0 108 l-20 26 -240 0 c-226 0 -240 -1
-259 -20z"/>
<path d="M480 3242 c-20 -11 -44 -37 -57 -62 -21 -40 -23 -56 -23 -198 0 -136
3 -161 20 -196 38 -78 50 -81 265 -81 174 0 192 2 217 20 36 26 68 92 68 138
l0 37 99 0 c96 0 100 1 120 26 27 34 27 74 0 108 -20 25 -24 26 -120 26 l-99
0 0 37 c0 46 -32 112 -68 138 -24 18 -45 20 -207 23 -161 2 -184 1 -215 -16z
m320 -262 l0 -120 -115 0 -115 0 0 120 0 120 115 0 115 0 0 -120z"/>
<path d="M3940 3118 c-12 -14 -20 -35 -20 -58 0 -23 8 -44 20 -58 20 -21 28
-22 225 -22 l204 0 20 26 c27 34 27 74 0 108 l-20 26 -204 0 c-197 0 -205 -1
-225 -22z"/>
<path d="M480 2522 c-20 -11 -44 -37 -57 -62 -21 -40 -23 -56 -23 -198 0 -136
3 -161 20 -196 38 -78 50 -81 265 -81 174 0 192 2 217 20 36 26 68 92 68 138
l0 37 193 0 c189 0 194 1 215 23 30 32 29 87 -1 115 -22 21 -32 22 -215 22
l-192 0 0 37 c0 46 -32 112 -68 138 -24 18 -45 20 -207 23 -161 2 -184 1 -215
-16z m320 -262 l0 -120 -115 0 -115 0 0 120 0 120 115 0 115 0 0 -120z"/>
</g>
</svg>
