<?xml version="1.0" standalone="no"?>
<!DOCTYPE svg PUBLIC "-//W3C//DTD SVG 20010904//EN"
 "http://www.w3.org/TR/2001/REC-SVG-20010904/DTD/svg10.dtd">
<svg version="1.0" xmlns="http://www.w3.org/2000/svg"
 width="512.000000pt" height="512.000000pt" viewBox="0 0 512.000000 512.000000"
 preserveAspectRatio="xMidYMid meet">
<metadata>
Created by potrace 1.16, written by Peter Selinger 2001-2019
</metadata>
<g transform="translate(0.000000,512.000000) scale(0.100000,-0.100000)"
fill="#FFFFFF" stroke="none">
<path d="M911 5100 c-118 -43 -207 -123 -264 -239 l-32 -66 0 -2235 0 -2235
32 -66 c58 -119 148 -198 269 -239 58 -20 85 -20 1664 -18 l1605 3 70 34 c92
45 171 124 216 216 l34 70 3 1740 c1 957 0 1751 -3 1765 -7 26 -1176 1207
-1249 1261 l-39 29 -1126 0 c-1086 -1 -1128 -1 -1180 -20z m2101 -717 l3 -438
32 -66 c58 -118 146 -197 268 -239 55 -19 84 -20 477 -20 l418 0 -2 -1602 -3
-1603 -22 -35 c-12 -19 -37 -44 -55 -55 -33 -20 -51 -20 -1568 -20 -1517 0
-1535 0 -1568 20 -18 11 -43 36 -55 55 l-22 35 0 2145 0 2145 22 35 c24 39 53
60 98 71 17 4 467 7 1002 8 l972 1 3 -437z m921 -461 c-27 -2 -151 -2 -278 0
-258 3 -274 7 -318 78 -21 33 -22 47 -25 315 l-3 280 336 -335 335 -335 -47
-3z"/>
<path d="M1576 2981 c-46 -31 -66 -69 -66 -131 0 -62 20 -100 66 -131 28 -18
65 -19 984 -19 919 0 956 1 984 19 46 31 66 69 66 131 0 62 -20 100 -66 131
-28 18 -65 19 -984 19 -919 0 -956 -1 -984 -19z"/>
<path d="M1576 2381 c-46 -31 -66 -69 -66 -131 0 -62 20 -100 66 -131 28 -18
65 -19 984 -19 919 0 956 1 984 19 46 31 66 69 66 131 0 62 -20 100 -66 131
-28 18 -65 19 -984 19 -919 0 -956 -1 -984 -19z"/>
<path d="M1576 1781 c-46 -31 -66 -69 -66 -131 0 -62 20 -100 66 -131 28 -18
65 -19 984 -19 919 0 956 1 984 19 46 31 66 69 66 131 0 62 -20 100 -66 131
-28 18 -65 19 -984 19 -919 0 -956 -1 -984 -19z"/>
<path d="M1576 1181 c-46 -31 -66 -69 -66 -131 0 -62 20 -100 66 -131 28 -18
59 -19 684 -19 625 0 656 1 684 19 46 31 66 69 66 131 0 62 -20 100 -66 131
-28 18 -59 19 -684 19 -625 0 -656 -1 -684 -19z"/>
</g>
</svg>
