<?xml version="1.0" standalone="no"?>
<!DOCTYPE svg PUBLIC "-//W3C//DTD SVG 20010904//EN"
 "http://www.w3.org/TR/2001/REC-SVG-20010904/DTD/svg10.dtd">
<svg version="1.0" xmlns="http://www.w3.org/2000/svg"
 width="512.000000pt" height="487.000000pt" viewBox="0 0 512.000000 487.000000"
 preserveAspectRatio="xMidYMid meet">
<metadata>
Created by potrace 1.16, written by Peter Selinger 2001-2019
</metadata>
<g transform="translate(0.000000,487.000000) scale(0.100000,-0.100000)"
fill="#FFFFFF" stroke="none">
<path d="M1700 4254 c-459 -167 -886 -322 -948 -345 l-113 -41 4 -927 c4
-1008 1 -953 63 -1196 165 -644 647 -1170 1393 -1519 117 -55 311 -128 401
-151 58 -15 64 -15 138 6 243 67 553 213 801 376 508 333 845 778 975 1288 62
243 59 188 63 1196 4 884 3 927 -14 933 -252 97 -1889 686 -1905 685 -13 0
-399 -137 -858 -305z m1665 -333 l790 -287 3 -610 c3 -689 -6 -920 -43 -1100
-111 -542 -463 -987 -1025 -1299 -120 -66 -286 -140 -418 -186 l-113 -38 -92
33 c-716 257 -1219 721 -1411 1300 -85 258 -98 430 -94 1290 l3 609 790 288
c435 158 797 288 805 288 8 0 371 -129 805 -288z"/>
<path d="M2822 2487 l-582 -582 -263 263 -262 262 -118 -118 -117 -117 380
-380 380 -380 700 700 700 700 -118 118 -117 117 -583 -583z"/>
</g>
</svg>
