<?xml version="1.0" standalone="no"?>
<!DOCTYPE svg PUBLIC "-//W3C//DTD SVG 20010904//EN"
 "http://www.w3.org/TR/2001/REC-SVG-20010904/DTD/svg10.dtd">
<svg version="1.0" xmlns="http://www.w3.org/2000/svg"
 width="512.000000pt" height="388.000000pt" viewBox="0 0 512.000000 388.000000"
 preserveAspectRatio="xMidYMid meet">
<metadata>
Created by potrace 1.16, written by Peter Selinger 2001-2019
</metadata>
<g transform="translate(0.000000,388.000000) scale(0.100000,-0.100000)"
fill="#FFFFFF" stroke="none">
<path d="M328 3841 c-145 -47 -269 -174 -312 -320 -14 -49 -16 -217 -16 -1582
0 -1471 1 -1529 19 -1588 46 -147 172 -272 320 -315 49 -14 273 -16 2221 -16
1948 0 2172 2 2221 16 148 43 274 168 320 315 18 59 19 117 19 1588 0 1365 -2
1533 -16 1582 -43 148 -168 274 -315 320 -59 18 -128 19 -2232 18 -2078 0
-2174 -1 -2229 -18z m4334 -310 c25 -5 -60 -82 -1038 -928 l-1064 -923 -1064
923 c-978 846 -1063 923 -1038 928 15 4 961 7 2102 7 1141 0 2087 -3 2102 -7z
m-3158 -1376 c527 -456 967 -835 979 -842 35 -19 127 -16 162 6 17 10 507 433
1090 938 l1060 920 3 -1311 c2 -721 0 -1334 -3 -1363 -7 -62 -37 -109 -85
-137 -35 -21 -38 -21 -2105 -24 -1139 -2 -2093 0 -2122 3 -62 7 -109 37 -137
85 -21 35 -21 44 -24 1393 l-2 1359 113 -99 c62 -54 544 -471 1071 -928z"/>
</g>
</svg>
