<?xml version="1.0" standalone="no"?>
<!DOCTYPE svg PUBLIC "-//W3C//DTD SVG 20010904//EN"
 "http://www.w3.org/TR/2001/REC-SVG-20010904/DTD/svg10.dtd">
<svg version="1.0" xmlns="http://www.w3.org/2000/svg"
 width="512.000000pt" height="512.000000pt" viewBox="0 0 512.000000 512.000000"
 preserveAspectRatio="xMidYMid meet">
<metadata>
Created by potrace 1.16, written by Peter Selinger 2001-2019
</metadata>
<g transform="translate(0.000000,512.000000) scale(0.100000,-0.100000)"
fill="#FFFFFF" stroke="none">
<path d="M2845 4736 c-27 -13 -472 -292 -989 -620 l-938 -596 -104 0 c-154 0
-244 -34 -346 -128 -60 -56 -101 -120 -127 -199 -21 -62 -21 -74 -21 -1273 0
-1199 0 -1211 21 -1273 51 -153 167 -264 328 -313 36 -12 369 -14 1893 -14
1845 0 1849 0 1911 21 156 52 278 183 317 340 7 31 10 402 8 1264 l-3 1220
-37 77 c-35 73 -108 161 -166 200 -19 13 -38 70 -116 349 -51 184 -103 353
-115 376 -30 60 -85 111 -150 142 -94 44 -161 37 -442 -42 -130 -37 -240 -67
-246 -67 -5 0 -67 93 -139 207 -192 308 -245 353 -413 353 -59 0 -87 -6 -126
-24z m235 -471 c89 -140 99 -161 83 -168 -23 -10 -1265 -355 -1259 -350 7 7
1071 681 1073 680 0 -1 47 -74 103 -162z m1061 -503 l66 -237 -464 -3 c-254
-1 -673 -1 -930 0 -465 3 -468 3 -403 20 36 10 418 117 850 237 432 121 792
220 800 220 11 1 32 -60 81 -237z m203 -572 c49 -11 85 -37 111 -81 18 -31 20
-55 23 -291 l3 -258 -371 0 c-408 0 -435 -3 -555 -62 -167 -81 -293 -235 -339
-415 -21 -80 -21 -246 0 -326 46 -180 166 -328 336 -413 119 -60 152 -64 561
-64 l368 0 -3 -257 c-3 -237 -5 -261 -23 -292 -26 -44 -62 -70 -111 -81 -52
-13 -3516 -13 -3568 0 -49 11 -85 37 -111 81 -20 33 -20 52 -20 1189 0 1137 0
1156 20 1189 25 42 62 71 106 81 48 11 3525 12 3573 0z m136 -1271 l0 -321
-352 4 c-397 5 -410 7 -492 79 -25 22 -57 65 -73 97 -24 49 -28 69 -28 142 0
65 5 96 21 131 46 99 131 163 237 179 29 4 195 8 370 9 l317 1 0 -321z"/>
</g>
</svg>
