<?xml version="1.0" standalone="no"?>
<!DOCTYPE svg PUBLIC "-//W3C//DTD SVG 20010904//EN"
 "http://www.w3.org/TR/2001/REC-SVG-20010904/DTD/svg10.dtd">
<svg version="1.0" xmlns="http://www.w3.org/2000/svg"
 width="512.000000pt" height="512.000000pt" viewBox="0 0 512.000000 512.000000"
 preserveAspectRatio="xMidYMid meet">
<metadata>
Created by potrace 1.16, written by Peter Selinger 2001-2019
</metadata>
<g transform="translate(0.000000,512.000000) scale(0.100000,-0.100000)"
fill="#FFFFFF" stroke="none">
<path d="M2355 4633 c-166 -21 -363 -83 -518 -161 -435 -221 -735 -610 -848
-1097 -30 -132 -38 -421 -14 -569 92 -587 540 -1311 1318 -2130 84 -88 165
-167 182 -178 36 -22 124 -24 163 -4 15 8 77 65 137 128 808 836 1276 1581
1370 2184 24 148 16 437 -14 569 -115 497 -429 895 -876 1110 -231 111 -436
156 -703 154 -92 -1 -180 -4 -197 -6z m360 -980 c219 -54 402 -237 459 -459
21 -80 21 -229 0 -308 -43 -167 -168 -325 -319 -403 -103 -53 -187 -74 -295
-74 -289 0 -541 196 -614 478 -21 79 -21 228 0 306 88 341 429 544 769 460z"/>
</g>
</svg>
