<?xml version="1.0" standalone="no"?>
<!DOCTYPE svg PUBLIC "-//W3C//DTD SVG 20010904//EN"
 "http://www.w3.org/TR/2001/REC-SVG-20010904/DTD/svg10.dtd">
<svg version="1.0" xmlns="http://www.w3.org/2000/svg"
 width="512.000000pt" height="512.000000pt" viewBox="0 0 512.000000 512.000000"
 preserveAspectRatio="xMidYMid meet">
<metadata>
Created by potrace 1.16, written by Peter Selinger 2001-2019
</metadata>
<g transform="translate(0.000000,512.000000) scale(0.100000,-0.100000)"
fill="#FFFFFF" stroke="none">
<path d="M2486 5101 c-15 -10 -37 -32 -47 -47 -18 -28 -19 -59 -19 -684 0
-625 1 -656 19 -684 10 -15 32 -37 47 -47 27 -18 53 -19 384 -19 331 0 357 1
384 19 55 37 66 66 66 179 l0 102 568 0 c534 0 572 1 624 19 191 66 308 229
308 431 0 202 -117 365 -308 431 -52 18 -90 19 -624 19 l-568 0 0 103 c0 112
-11 141 -66 178 -27 18 -53 19 -384 19 -331 0 -357 -1 -384 -19z m534 -731 l0
-450 -150 0 -150 0 0 450 0 450 150 0 150 0 0 -450z m675 0 l150 -150 -263 0
-262 0 0 150 0 150 113 0 112 0 150 -150z m745 123 c46 -28 70 -71 70 -123 0
-83 -56 -136 -156 -146 l-59 -6 -150 152 -150 151 205 -3 c190 -3 208 -5 240
-25z"/>
<path d="M610 5022 c-271 -112 -444 -253 -534 -437 -54 -109 -68 -173 -73
-335 -4 -124 -2 -158 16 -235 57 -240 213 -416 483 -548 l108 -52 0 -855 0
-855 -108 -52 c-270 -132 -426 -308 -483 -548 -18 -77 -20 -111 -16 -235 5
-162 19 -226 73 -335 90 -184 263 -326 531 -436 65 -27 134 -48 153 -49 48 0
100 28 127 69 22 33 23 40 23 297 l0 262 47 19 c27 10 73 18 103 18 30 0 76
-8 103 -18 l47 -19 0 -262 c0 -257 1 -264 23 -297 27 -41 79 -69 127 -69 46 1
244 83 348 145 164 98 270 204 336 340 54 109 68 173 73 335 4 124 2 158 -16
235 -57 240 -213 416 -483 548 l-108 52 0 855 0 855 108 52 c270 132 426 308
483 548 18 77 20 111 16 235 -5 162 -19 226 -73 335 -90 184 -263 326 -531
436 -65 27 -134 48 -153 49 -48 0 -100 -28 -127 -69 -22 -33 -23 -40 -23 -297
l0 -262 -47 -19 c-61 -23 -145 -23 -205 0 l-48 19 0 262 c0 257 -1 264 -23
297 -27 41 -79 69 -127 69 -19 -1 -87 -22 -150 -48z m20 -739 c28 -38 113
-103 178 -134 201 -97 449 -68 617 72 85 71 85 69 85 278 l0 183 40 -24 c74
-43 150 -111 185 -164 61 -91 69 -124 69 -274 1 -121 -2 -140 -23 -187 -67
-150 -199 -257 -417 -339 -82 -30 -119 -56 -139 -94 -23 -44 -23 -2036 0
-2080 20 -38 57 -64 139 -94 218 -82 350 -189 417 -339 21 -47 24 -66 23 -187
0 -150 -8 -183 -69 -274 -35 -53 -111 -121 -185 -164 l-40 -24 0 183 c0 209 0
207 -85 278 -95 79 -238 131 -365 131 -127 0 -270 -52 -365 -131 -85 -71 -85
-69 -85 -278 l0 -183 -40 24 c-74 43 -150 111 -185 164 -61 91 -69 124 -69
274 -1 121 2 140 23 187 67 150 199 257 417 339 82 30 119 56 139 94 23 44 23
2036 0 2080 -20 38 -57 64 -139 94 -163 62 -297 151 -362 242 -58 82 -77 139
-82 254 -9 211 56 338 233 452 l60 39 5 -188 c4 -147 8 -193 20 -210z"/>
<path d="M2381 3299 c-213 -55 -388 -201 -486 -404 -54 -112 -75 -205 -75
-335 0 -130 21 -223 75 -335 130 -269 378 -425 675 -425 297 0 545 156 675
425 54 112 75 205 75 335 0 130 -21 223 -75 335 -99 205 -274 350 -490 405
-105 27 -271 27 -374 -1z m369 -330 c163 -79 260 -232 260 -409 0 -177 -97
-330 -260 -409 -72 -34 -80 -36 -180 -36 -100 0 -108 2 -180 36 -163 79 -260
232 -260 409 0 199 118 359 320 436 22 9 69 13 130 11 86 -2 102 -5 170 -38z"/>
<path d="M2486 2691 c-46 -31 -66 -69 -66 -131 0 -62 20 -100 66 -131 20 -13
47 -19 84 -19 95 0 150 55 150 150 0 37 -6 64 -19 84 -31 46 -69 66 -131 66
-37 0 -64 -6 -84 -19z"/>
<path d="M4181 3299 c-213 -55 -388 -201 -486 -404 -54 -112 -75 -205 -75
-335 0 -130 21 -223 75 -335 130 -269 378 -425 675 -425 297 0 545 156 675
425 54 112 75 205 75 335 0 130 -21 223 -75 335 -99 205 -274 350 -490 405
-105 27 -271 27 -374 -1z m369 -330 c163 -79 260 -232 260 -409 0 -177 -97
-330 -260 -409 -72 -34 -80 -36 -180 -36 -100 0 -108 2 -180 36 -163 79 -260
232 -260 409 0 199 118 359 320 436 22 9 69 13 130 11 86 -2 102 -5 170 -38z"/>
<path d="M4286 2691 c-46 -31 -66 -69 -66 -131 0 -95 55 -150 150 -150 95 0
150 55 150 150 0 62 -20 100 -66 131 -20 13 -47 19 -84 19 -37 0 -64 -6 -84
-19z"/>
<path d="M3986 1481 c-55 -37 -66 -66 -66 -178 l0 -103 -568 0 c-538 0 -572
-1 -625 -19 -190 -66 -307 -230 -307 -431 0 -201 117 -365 307 -431 53 -18 87
-19 625 -19 l568 0 0 -102 c0 -113 11 -142 66 -179 27 -18 53 -19 384 -19 331
0 357 1 384 19 15 10 37 32 47 47 18 28 19 59 19 684 0 625 -1 656 -19 684
-10 15 -32 37 -47 47 -27 18 -53 19 -384 19 -331 0 -357 -1 -384 -19z m534
-731 l0 -450 -150 0 -150 0 0 450 0 450 150 0 150 0 0 -450z m-1425 -1 l-150
-151 -58 6 c-32 3 -72 14 -89 23 -87 52 -91 182 -8 240 37 26 76 31 270 32
l185 1 -150 -151z m825 1 l0 -150 -262 0 -263 0 150 150 150 150 112 0 113 0
0 -150z"/>
</g>
</svg>
