<?xml version="1.0" standalone="no"?>
<!DOCTYPE svg PUBLIC "-//W3C//DTD SVG 20010904//EN"
 "http://www.w3.org/TR/2001/REC-SVG-20010904/DTD/svg10.dtd">
<svg version="1.0" xmlns="http://www.w3.org/2000/svg"
 width="512.000000pt" height="512.000000pt" viewBox="0 0 512.000000 512.000000"
 preserveAspectRatio="xMidYMid meet">
<metadata>
Created by potrace 1.16, written by Peter Selinger 2001-2019
</metadata>
<g transform="translate(0.000000,512.000000) scale(0.100000,-0.100000)"
fill="#FFFFFF" stroke="none">
<path d="M1064 5105 c-373 -65 -678 -284 -836 -600 -176 -350 -177 -775 -2
-1118 204 -401 594 -626 1084 -627 358 0 642 106 870 326 232 224 350 511 350
854 0 147 -19 268 -61 394 -132 394 -441 668 -859 761 -105 24 -435 29 -546
10z m423 -561 c213 -48 385 -224 438 -451 25 -103 17 -272 -17 -370 -31 -88
-104 -199 -166 -253 -58 -50 -166 -104 -252 -127 -78 -20 -248 -22 -335 -4
-33 7 -101 32 -151 57 -71 35 -105 59 -156 112 -77 80 -108 130 -144 237 -23
68 -27 97 -28 195 -1 132 12 194 61 298 120 254 427 379 750 306z"/>
<path d="M4300 4671 c-128 -6 -151 -9 -200 -32 -30 -14 -74 -44 -97 -65 -23
-21 -747 -824 -1609 -1784 -863 -960 -1669 -1856 -1791 -1992 -211 -234 -223
-250 -223 -287 0 -31 6 -44 27 -61 26 -21 34 -21 308 -18 l281 3 69 35 c70 35
78 44 1688 1845 890 996 1703 1906 1807 2022 104 117 192 224 196 238 10 39
-4 73 -36 90 -31 16 -129 17 -420 6z"/>
<path d="M3688 2310 c-394 -36 -721 -237 -900 -555 -214 -380 -205 -863 24
-1233 62 -99 214 -260 303 -319 225 -150 449 -209 759 -201 228 7 366 38 533
121 319 158 543 467 604 836 14 85 14 307 0 392 -60 360 -274 664 -581 823
-157 82 -288 119 -480 136 -126 11 -135 11 -262 0z m316 -550 c111 -28 190
-73 271 -155 120 -119 177 -264 179 -450 1 -178 -58 -330 -173 -444 -117 -117
-258 -171 -446 -171 -191 0 -329 54 -450 175 -120 119 -177 263 -178 450 -2
292 168 525 435 595 101 26 259 26 362 0z"/>
</g>
</svg>
