<?xml version="1.0" standalone="no"?>
<!DOCTYPE svg PUBLIC "-//W3C//DTD SVG 20010904//EN"
 "http://www.w3.org/TR/2001/REC-SVG-20010904/DTD/svg10.dtd">
<svg version="1.0" xmlns="http://www.w3.org/2000/svg"
 width="512.000000pt" height="512.000000pt" viewBox="0 0 512.000000 512.000000"
 preserveAspectRatio="xMidYMid meet">
<metadata>
Created by potrace 1.16, written by Peter Selinger 2001-2019
</metadata>
<g transform="translate(0.000000,512.000000) scale(0.100000,-0.100000)"
fill="#FFFFFF" stroke="none">
<path d="M512 5100 c-111 -40 -200 -130 -241 -245 l-21 -60 2 -2250 3 -2250
32 -68 c39 -82 110 -154 190 -194 l58 -28 1370 0 1370 0 57 27 c74 34 149 105
185 173 19 37 33 53 43 50 38 -11 611 -126 655 -131 109 -13 233 32 318 114
162 157 164 416 5 575 -84 84 -119 96 -558 186 -217 45 -398 81 -403 81 -4 0
-6 192 -5 426 l3 427 490 146 c296 88 509 157 536 173 66 39 143 128 170 196
19 46 23 77 24 157 0 92 -3 105 -31 165 -17 36 -47 83 -67 105 -76 87 -218
143 -332 132 -33 -4 -202 -49 -375 -101 -173 -52 -339 -101 -367 -110 l-53
-15 0 215 0 214 408 0 c455 0 484 3 603 66 117 62 214 173 261 299 18 51 22
80 22 190 0 110 -4 139 -22 190 -47 125 -145 238 -263 300 -117 61 -147 65
-601 65 l-408 0 0 215 c0 118 -5 238 -11 267 -25 121 -115 234 -227 286 l-57
27 -1355 2 c-1311 2 -1357 2 -1408 -17z m2679 -190 c60 -12 113 -48 144 -101
18 -31 20 -55 23 -261 l3 -228 -596 0 -597 0 -76 70 c-415 388 -1087 273
-1347 -230 -72 -141 -90 -218 -90 -395 0 -177 18 -254 90 -395 149 -287 434
-460 759 -460 229 0 424 76 588 230 l76 70 596 0 596 0 -2 -247 -3 -247 -135
-41 c-74 -23 -143 -45 -152 -49 -10 -4 -27 -30 -40 -58 -35 -79 -96 -99 -158
-53 -38 28 -67 30 -167 13 -56 -9 -85 -8 -165 6 -108 18 -133 14 -167 -30 -24
-31 -27 -72 -7 -137 l14 -46 -32 -10 c-138 -44 -709 -211 -721 -211 -8 0 -36
13 -62 29 -96 59 -164 75 -308 75 -110 0 -140 -3 -195 -23 -196 -69 -349 -239
-396 -437 -22 -94 -15 -245 16 -334 41 -120 123 -230 226 -301 l43 -29 3 -233
c3 -230 3 -232 30 -283 34 -64 105 -128 165 -148 26 -9 74 -16 108 -16 167 0
289 115 304 286 l6 70 325 -63 c179 -34 326 -62 326 -63 1 0 -2 -17 -7 -37
-22 -96 -3 -153 56 -173 27 -9 48 -7 117 11 64 17 108 22 194 21 110 -1 113
-1 149 28 63 50 120 38 155 -30 11 -22 31 -47 43 -55 13 -8 104 -31 203 -51
98 -20 183 -40 188 -45 13 -12 -20 -46 -69 -73 l-40 -21 -1301 0 -1301 0 -48
30 c-32 20 -56 45 -72 74 l-23 44 0 2205 0 2206 21 44 c24 49 81 92 137 103
60 11 2511 11 2573 -1z m-1536 -515 c33 -8 98 -34 145 -57 68 -33 102 -58 173
-130 48 -48 89 -89 90 -90 1 -2 529 -5 1172 -8 l1170 -5 56 -28 c263 -129 263
-495 0 -624 l-56 -28 -1170 -5 c-643 -3 -1171 -6 -1172 -8 -1 -1 -42 -42 -90
-90 -71 -72 -105 -97 -173 -130 -123 -60 -192 -75 -320 -69 -177 8 -306 65
-429 188 -122 121 -181 255 -189 424 -11 256 120 482 350 605 121 65 311 88
443 55z m2822 -1619 c133 -62 150 -235 33 -327 -27 -22 -161 -65 -608 -199
l-574 -170 -59 21 c-134 49 -305 -9 -365 -123 -9 -17 -38 -40 -72 -57 -31 -16
-66 -36 -77 -44 -19 -14 -21 -8 -85 207 l-66 221 80 8 c69 7 89 5 143 -12 142
-47 271 -7 359 110 l33 44 573 172 c315 94 587 172 603 172 17 1 53 -10 82
-23z m-2011 -750 c14 -48 24 -89 23 -90 -8 -7 -618 -186 -632 -186 -8 0 -17
13 -20 29 -4 16 -18 53 -32 82 -13 29 -22 55 -19 58 6 6 647 199 652 196 1 -1
14 -41 28 -89z m-1044 -64 c129 -63 215 -187 225 -325 12 -160 -66 -300 -214
-383 -33 -19 -65 -42 -69 -52 -5 -9 -11 -136 -14 -280 l-5 -264 -28 -24 c-40
-34 -90 -32 -128 5 l-29 29 0 252 c0 290 0 289 -85 334 -69 36 -149 120 -183
193 -24 51 -27 70 -27 158 0 88 3 107 27 157 31 68 105 149 166 185 71 42 119
53 213 50 74 -3 96 -8 151 -35z m1806 -78 c33 -20 54 -25 88 -22 l44 3 0 -367
c0 -203 -4 -368 -9 -368 -4 0 -63 11 -130 25 -132 27 -149 25 -203 -20 -42
-35 -91 -34 -129 4 -16 16 -29 36 -29 44 0 23 -33 46 -101 68 -83 27 -100 36
-187 103 -54 41 -82 56 -105 56 -44 0 -95 -33 -103 -67 -3 -15 -11 -46 -17
-69 l-12 -41 -266 55 -266 55 19 51 c11 28 23 69 27 91 l6 40 325 97 c179 53
336 100 351 103 23 5 26 2 39 -47 17 -69 56 -108 105 -108 47 0 68 11 142 80
34 32 88 70 120 84 102 46 108 50 129 96 41 84 85 99 162 54z m-1143 -814
c116 -23 211 -43 212 -44 3 -2 -37 -180 -41 -184 -2 -2 -158 26 -345 62 -188
37 -344 66 -347 66 -2 0 -4 24 -4 54 0 53 1 54 53 93 l52 39 105 -22 c58 -12
200 -41 315 -64z m581 -10 c6 0 30 -23 53 -50 24 -28 66 -63 94 -78 45 -23 64
-27 142 -27 78 0 96 3 136 26 l45 26 590 -122 c324 -66 603 -129 621 -138 72
-38 114 -137 93 -218 -16 -59 -81 -123 -140 -139 -42 -12 -80 -5 -639 109
l-594 122 -46 49 c-72 75 -118 95 -226 95 -76 0 -98 -4 -140 -25 -39 -19 -67
-25 -132 -26 -46 -1 -83 0 -83 2 0 2 20 101 45 221 25 120 45 221 45 225 0 4
28 -6 63 -22 34 -17 67 -30 73 -30z"/>
<path d="M1380 4204 c-115 -31 -233 -129 -284 -238 -146 -308 71 -656 409
-656 253 0 455 202 455 455 0 302 -285 518 -580 439z m225 -218 c192 -91 192
-351 0 -442 -148 -70 -322 29 -342 194 -21 185 175 327 342 248z"/>
<path d="M1201 1696 c-31 -17 -50 -53 -51 -94 0 -26 9 -43 35 -69 32 -32 39
-35 78 -30 77 10 117 82 85 152 -22 49 -96 69 -147 41z"/>
</g>
</svg>
