<?xml version="1.0" standalone="no"?>
<!DOCTYPE svg PUBLIC "-//W3C//DTD SVG 20010904//EN"
 "http://www.w3.org/TR/2001/REC-SVG-20010904/DTD/svg10.dtd">
<svg version="1.0" xmlns="http://www.w3.org/2000/svg"
 width="512.000000pt" height="512.000000pt" viewBox="0 0 512.000000 512.000000"
 preserveAspectRatio="xMidYMid meet">
<metadata>
Created by potrace 1.16, written by Peter Selinger 2001-2019
</metadata>
<g transform="translate(0.000000,512.000000) scale(0.100000,-0.100000)"
fill="#FFFFFF" stroke="none">
<path d="M3804 5099 c-16 -18 -19 -37 -19 -134 0 -135 10 -155 80 -155 68 0
75 16 75 157 0 103 -3 122 -18 136 -27 25 -94 22 -118 -4z"/>
<path d="M3272 4877 c-14 -14 -22 -36 -22 -57 0 -29 12 -45 78 -112 89 -89
122 -99 167 -53 45 44 35 77 -52 166 -68 70 -81 79 -113 79 -25 0 -43 -7 -58
-23z"/>
<path d="M4272 4807 c-100 -101 -113 -131 -72 -175 50 -54 92 -38 203 76 85
88 95 117 56 166 -15 20 -29 26 -57 26 -34 0 -46 -9 -130 -93z"/>
<path d="M1992 4690 c-18 -11 -38 -31 -44 -45 -6 -14 -14 -25 -17 -25 -545
-24 -978 -356 -1124 -860 -39 -135 -47 -238 -47 -637 l0 -373 -137 0 c-155 0
-185 -10 -223 -72 -19 -31 -20 -47 -18 -220 l3 -187 35 -36 c19 -19 48 -39 65
-43 l30 -8 5 -705 c3 -387 6 -705 8 -707 10 -13 77 -31 97 -26 57 14 55 -11
55 741 l0 693 209 0 c204 0 211 1 236 23 21 17 27 32 27 61 0 71 3 70 -325 76
l-292 5 0 125 0 125 525 0 525 0 0 -125 0 -125 -128 -5 c-145 -6 -157 -12
-157 -81 0 -50 35 -79 96 -79 l44 0 0 -972 c0 -758 -3 -979 -13 -998 -7 -14
-28 -33 -47 -42 -31 -16 -68 -18 -310 -18 -162 0 -291 4 -313 11 -68 18 -77
47 -77 237 0 149 -2 164 -20 182 -31 31 -93 27 -119 -6 -19 -25 -21 -40 -21
-189 0 -187 11 -240 65 -302 19 -22 55 -50 80 -62 43 -20 59 -21 395 -21 275
0 358 3 384 14 46 19 104 72 129 120 22 40 22 49 25 521 l3 480 147 82 c232
130 232 129 232 416 0 194 -1 206 -23 248 -13 24 -43 58 -66 74 -41 29 -47 30
-167 33 l-125 4 3 96 3 96 30 8 c43 11 93 63 106 111 6 24 9 101 7 186 -3 163
-14 196 -78 238 -30 21 -44 23 -172 23 l-139 0 3 403 3 402 26 66 c39 101 76
158 149 230 79 78 179 132 285 154 100 21 108 20 129 -19 11 -20 34 -42 55
-52 35 -17 44 -16 491 50 250 37 474 74 497 82 74 27 83 53 83 251 0 161 -1
172 -23 204 -12 19 -34 39 -47 46 -28 13 -890 143 -948 143 -20 0 -52 -9 -70
-20z m536 -206 l392 -58 0 -107 0 -108 -32 -6 c-90 -15 -765 -115 -780 -115
-17 0 -18 18 -18 231 l0 231 23 -5 c12 -3 199 -31 415 -63z m-598 -163 l0
-140 -57 -6 c-279 -31 -512 -202 -616 -450 -51 -122 -57 -182 -57 -595 l0
-380 -140 0 -140 0 0 373 c0 403 8 502 53 632 129 375 456 645 842 694 129 16
115 31 115 -128z m-122 -2503 c8 -8 12 -65 12 -188 0 -201 7 -184 -95 -240
-33 -18 -75 -42 -92 -52 l-33 -20 0 256 0 256 98 0 c63 0 102 -4 110 -12z"/>
<path d="M3637 4600 c-156 -27 -256 -153 -245 -309 15 -206 203 -311 451 -252
175 42 431 166 462 225 22 41 14 94 -18 123 -30 29 -195 115 -287 151 -138 54
-273 77 -363 62z m197 -176 c32 -8 105 -36 162 -61 121 -52 121 -47 -16 -108
-97 -42 -215 -75 -272 -75 -115 0 -190 99 -144 189 41 78 118 93 270 55z"/>
<path d="M4473 4360 c-45 -18 -56 -80 -22 -124 20 -25 23 -26 138 -26 110 0
119 1 139 23 30 32 29 81 -3 112 -23 23 -31 25 -127 24 -57 0 -113 -4 -125 -9z"/>
<path d="M4201 3944 c-40 -51 -30 -78 68 -178 85 -85 92 -91 131 -91 50 0 80
30 80 77 0 25 -17 48 -92 124 -83 86 -95 94 -129 94 -29 0 -42 -6 -58 -26z"/>
<path d="M3334 3868 c-72 -70 -84 -86 -84 -115 0 -44 37 -83 80 -83 26 0 46
14 111 78 65 64 79 83 79 109 0 17 -3 39 -6 48 -7 18 -55 45 -80 45 -9 0 -54
-37 -100 -82z"/>
<path d="M3817 3758 c-26 -21 -37 -64 -37 -149 0 -126 32 -173 104 -155 50 12
56 28 56 156 0 110 -2 121 -22 140 -25 23 -76 27 -101 8z"/>
</g>
</svg>
