<?xml version="1.0" standalone="no"?>
<!DOCTYPE svg PUBLIC "-//W3C//DTD SVG 20010904//EN"
 "http://www.w3.org/TR/2001/REC-SVG-20010904/DTD/svg10.dtd">
<svg version="1.0" xmlns="http://www.w3.org/2000/svg"
 width="204.000000pt" height="203.000000pt" viewBox="0 0 204.000000 203.000000"
 preserveAspectRatio="xMidYMid meet">
<metadata>
Created by potrace 1.16, written by Peter Selinger 2001-2019
</metadata>
<g transform="translate(0.000000,203.000000) scale(0.100000,-0.100000)"
fill="#FFFFFF" stroke="none">
<path d="M848 2000 c-413 -75 -728 -388 -814 -810 -25 -124 -16 -333 20 -455
51 -172 133 -311 256 -435 123 -122 261 -204 435 -256 83 -25 104 -28 265 -28
208 -1 283 15 445 94 214 104 373 265 475 483 63 134 81 213 87 377 4 120 2
162 -15 240 -38 186 -127 354 -260 492 -96 99 -180 160 -304 218 -136 63 -221
82 -393 86 -82 1 -171 -1 -197 -6z m102 -245 l0 -125 70 0 70 0 0 123 0 124
63 -9 c176 -26 340 -111 477 -248 137 -137 222 -301 248 -477 l9 -63 -124 0
-123 0 0 -70 0 -70 124 0 125 0 -5 -37 c-48 -339 -291 -627 -609 -722 -39 -11
-96 -25 -127 -29 l-58 -9 0 124 0 123 -70 0 -70 0 0 -126 c0 -115 -2 -125 -17
-121 -10 3 -39 8 -66 12 -59 8 -165 44 -237 80 -248 125 -432 379 -469 648
l-8 57 124 0 123 0 0 70 0 70 -123 0 -124 0 8 58 c16 117 74 264 147 371 41
60 157 176 217 216 126 83 270 136 418 154 4 1 7 -55 7 -124z"/>
<path d="M952 1215 l3 -235 165 -165 165 -165 47 47 48 48 -145 145 -145 145
0 208 0 207 -71 0 -70 0 3 -235z"/>
</g>
</svg>
