<?xml version="1.0" standalone="no"?>
<!DOCTYPE svg PUBLIC "-//W3C//DTD SVG 20010904//EN"
 "http://www.w3.org/TR/2001/REC-SVG-20010904/DTD/svg10.dtd">
<svg version="1.0" xmlns="http://www.w3.org/2000/svg"
 width="512.000000pt" height="512.000000pt" viewBox="0 0 512.000000 512.000000"
 preserveAspectRatio="xMidYMid meet">
<metadata>
Created by potrace 1.16, written by Peter Selinger 2001-2019
</metadata>
<g transform="translate(0.000000,512.000000) scale(0.100000,-0.100000)"
fill="#FFFFFF" stroke="none">
<path d="M1195 5101 c-51 -23 -118 -98 -133 -149 -7 -22 -12 -69 -12 -105 l0
-66 -432 -3 c-476 -3 -466 -2 -540 -67 -20 -17 -45 -51 -57 -76 l-21 -45 2
-2128 3 -2129 30 -49 c19 -30 49 -60 79 -79 l49 -30 1731 -3 c1924 -3 1776 -8
1851 65 57 55 74 103 75 203 l1 85 59 -158 c80 -215 126 -274 258 -335 76 -35
213 -43 297 -17 64 21 105 61 105 106 0 16 -27 104 -61 195 -33 91 -58 172
-56 178 5 12 139 66 163 66 6 0 40 -79 74 -175 84 -235 112 -258 236 -199 76
36 148 110 187 191 30 65 32 74 31 183 l0 115 -68 179 c-96 255 -114 287 -209
359 -54 41 -121 65 -208 75 l-62 7 -234 640 c-128 352 -238 656 -244 676 -11
35 -10 37 36 83 26 26 61 77 78 114 30 62 32 74 32 172 -1 105 -1 105 -69 290
-38 102 -79 206 -92 232 -35 68 -114 141 -189 174 l-65 28 0 442 0 442 -28 53
c-34 66 -94 114 -162 128 -32 7 -200 11 -454 11 l-403 0 -5 83 c-5 92 -25 142
-80 194 -68 65 -38 63 -780 63 -631 0 -676 -2 -713 -19z m1335 -194 c25 -13
25 -13 28 -180 1 -104 -2 -175 -8 -187 -10 -20 -23 -20 -638 -20 -475 0 -631
3 -640 12 -8 8 -12 64 -12 184 0 167 1 173 22 188 20 14 95 16 623 16 463 0
606 -3 625 -13z m-1480 -369 c0 -42 33 -114 68 -152 15 -16 50 -39 77 -52 l50
-24 665 0 665 0 50 24 c78 36 130 106 142 191 l6 45 399 0 c256 0 406 -4 419
-10 18 -10 19 -26 19 -435 l0 -423 -30 -7 c-38 -8 -80 -58 -80 -95 0 -16 27
-104 60 -195 33 -91 60 -172 60 -178 0 -11 -139 -67 -166 -67 -6 0 -39 78 -74
174 -41 117 -71 182 -87 198 -36 34 -93 31 -175 -10 -149 -73 -243 -247 -223
-412 10 -81 148 -454 191 -518 72 -103 186 -164 316 -166 l77 -1 66 -180 65
-180 0 -830 c0 -633 -3 -834 -12 -843 -15 -15 -3354 -17 -3378 -2 -13 8 -15
250 -15 2080 0 2039 0 2072 19 2086 16 12 91 14 423 14 l403 0 0 -32z m2743
-1052 c68 -29 93 -71 168 -277 62 -169 70 -201 67 -246 -5 -63 -37 -113 -92
-145 -67 -40 -96 -72 -96 -111 0 -27 499 -1426 565 -1583 8 -19 28 -40 46 -50
29 -15 40 -15 100 -4 60 11 73 11 112 -4 79 -30 102 -65 178 -272 73 -201 82
-253 55 -319 -8 -19 -19 -35 -23 -35 -5 0 -23 42 -41 92 -43 124 -69 166 -120
202 -34 24 -55 31 -107 34 -56 4 -79 -1 -170 -33 -128 -46 -175 -78 -205 -141
-35 -71 -30 -136 19 -268 23 -60 39 -111 36 -114 -10 -10 -81 18 -108 43 -43
41 -52 59 -122 250 -73 199 -80 246 -47 311 26 51 46 68 114 98 58 26 88 62
88 104 0 16 -508 1428 -565 1570 -28 70 -82 87 -179 56 -70 -22 -126 -7 -182
50 -33 33 -49 65 -88 171 -88 241 -98 276 -91 314 7 38 39 106 54 115 5 3 28
-48 52 -115 48 -133 78 -177 142 -208 66 -32 136 -28 257 15 123 45 170 77
200 140 40 82 32 136 -49 347 -12 31 -11 32 32 13z m175 -2411 c-47 -30 -77
-57 -109 -97 l-39 -50 0 279 1 278 75 -204 c41 -112 73 -205 72 -206z"/>
<path d="M464 4099 c-47 -23 -54 -55 -54 -244 0 -267 -2 -265 287 -265 103 0
205 5 226 11 67 18 72 36 72 257 l0 194 -33 29 -32 29 -223 -1 c-127 0 -231
-5 -243 -10z m326 -249 l0 -50 -85 0 -85 0 0 50 0 50 85 0 85 0 0 -50z"/>
<path d="M1235 3949 c-37 -21 -55 -53 -55 -97 0 -35 6 -49 29 -73 l29 -29 621
0 c459 0 627 3 646 12 59 27 72 109 26 160 l-29 33 -624 2 c-442 2 -629 -1
-643 -8z"/>
<path d="M448 3291 l-33 -29 0 -201 0 -201 28 -27 27 -28 223 -3 c312 -4 307
-8 307 268 0 128 -3 161 -18 190 -28 56 -43 60 -284 60 l-218 0 -32 -29z m342
-231 l0 -50 -85 0 -85 0 0 50 0 50 85 0 85 0 0 -50z"/>
<path d="M1236 3155 c-42 -22 -55 -44 -56 -93 0 -35 6 -49 29 -73 l29 -29 632
0 631 0 24 24 c47 47 44 121 -8 160 -28 21 -36 21 -640 24 -533 2 -616 0 -641
-13z"/>
<path d="M475 2521 c-11 -5 -29 -19 -40 -31 -19 -21 -20 -36 -20 -222 l0 -200
33 -29 32 -29 218 0 c241 0 256 4 284 60 15 29 18 62 18 190 0 183 -9 223 -53
250 -29 18 -51 20 -242 19 -115 0 -219 -4 -230 -8z m315 -251 l0 -50 -85 0
-85 0 0 50 0 50 85 0 85 0 0 -50z"/>
<path d="M1209 2341 c-39 -39 -40 -96 -3 -140 l26 -31 633 0 634 0 28 24 c24
21 28 32 28 76 0 44 -4 55 -28 76 l-28 24 -630 0 -631 0 -29 -29z"/>
<path d="M473 1725 c-56 -24 -63 -53 -63 -250 0 -192 7 -221 57 -244 15 -7
107 -11 243 -11 l220 0 32 29 33 29 0 194 c0 221 -5 239 -72 257 -58 17 -411
13 -450 -4z m317 -245 l0 -50 -85 0 -85 0 0 50 0 50 85 0 85 0 0 -50z"/>
<path d="M1209 1551 c-59 -59 -27 -161 55 -176 17 -3 302 -5 633 -3 l601 3 26
24 c32 30 43 81 26 122 -26 62 5 59 -683 59 l-629 0 -29 -29z"/>
</g>
</svg>
