<?xml version="1.0" encoding="UTF-8" standalone="no" ?>
<!DOCTYPE svg PUBLIC "-//W3C//DTD SVG 1.1//EN" "http://www.w3.org/Graphics/SVG/1.1/DTD/svg11.dtd">
<svg xmlns="http://www.w3.org/2000/svg" xmlns:xlink="http://www.w3.org/1999/xlink" version="1.1" width="400" height="400" viewBox="0 0 400 400" xml:space="preserve">
<desc>Created with Fabric.js 3.6.2</desc>
<defs>
</defs>
<g transform="matrix(0.45 0 0 0.45 200 200)" id="Layer_1"  >
<path style="stroke: none; stroke-width: 1; stroke-dasharray: none; stroke-linecap: butt; stroke-dashoffset: 0; stroke-linejoin: miter; stroke-miterlimit: 4; fill: rgb(255,255,255); fill-rule: nonzero; opacity: 1;"  transform=" translate(-256, -256.03)" d="M 256 213.7 L 256 213.7 L 256 213.7 l 174.2 167.2 c 4.3 4.2 11.4 4.1 15.8 -0.2 l 30.6 -29.9 c 4.4 -4.3 4.5 -11.3 0.2 -15.5 L 264.1 131.1 c -2.2 -2.2 -5.2 -3.2 -8.1 -3 c -3 -0.1 -5.9 0.9 -8.1 3 L 35.2 335.3 c -4.3 4.2 -4.2 11.2 0.2 15.5 L 66 380.7 c 4.4 4.3 11.5 4.4 15.8 0.2 L 256 213.7 z" stroke-linecap="round" />
</g>
</svg>