<?xml version="1.0" standalone="no"?>
<!DOCTYPE svg PUBLIC "-//W3C//DTD SVG 20010904//EN"
 "http://www.w3.org/TR/2001/REC-SVG-20010904/DTD/svg10.dtd">
<svg version="1.0" xmlns="http://www.w3.org/2000/svg"
 width="512.000000pt" height="512.000000pt" viewBox="0 0 512.000000 512.000000"
 preserveAspectRatio="xMidYMid meet">
<metadata>
Created by potrace 1.16, written by Peter Selinger 2001-2019
</metadata>
<g transform="translate(0.000000,512.000000) scale(0.100000,-0.100000)"
fill="#FFFFFF" stroke="none">
<path d="M1201 5036 c-40 -22 -50 -54 -51 -157 0 -93 -1 -96 -25 -107 -14 -7
-31 -12 -36 -12 -6 0 -43 29 -83 64 -80 71 -111 83 -158 62 -45 -19 -216 -194
-226 -231 -14 -48 3 -85 73 -155 l66 -66 -16 -37 -15 -37 -93 0 c-162 0 -180
-25 -175 -235 2 -86 9 -149 16 -162 22 -40 63 -53 164 -53 l94 0 13 -36 13
-36 -71 -73 c-66 -67 -71 -76 -71 -116 0 -42 4 -47 113 -156 112 -112 113
-113 160 -113 44 0 51 4 121 70 l74 71 36 -15 36 -15 0 -101 c0 -99 1 -102 29
-131 l29 -29 162 0 162 0 29 29 c28 29 29 32 29 134 l0 105 36 12 c39 13 37
15 137 -80 42 -39 53 -45 92 -45 43 0 48 4 146 100 107 106 133 147 123 193
-4 15 -37 59 -76 98 l-69 70 16 37 15 37 100 0 c96 0 101 1 132 29 l33 29 0
149 c0 81 -3 161 -8 176 -13 49 -59 67 -167 67 l-96 0 -12 32 c-12 32 -11 34
47 93 69 71 81 91 81 141 0 34 -10 47 -108 147 -102 102 -111 109 -155 114
-46 6 -47 6 -121 -67 -74 -72 -75 -72 -109 -61 l-35 12 -4 105 c-3 105 -3 106
-36 135 l-32 29 -153 0 c-107 -1 -159 -5 -176 -14z m279 -206 c0 -97 2 -112
20 -130 11 -11 27 -20 35 -20 8 0 40 -11 71 -25 86 -38 98 -35 180 46 l72 72
76 -69 75 -68 -74 -77 c-85 -87 -89 -100 -51 -176 14 -26 28 -60 31 -76 12
-47 38 -57 152 -57 l103 0 0 -105 0 -105 -108 0 c-122 0 -130 -4 -152 -75 -7
-22 -21 -57 -31 -77 -11 -21 -19 -45 -19 -54 0 -9 35 -52 77 -95 l77 -80 -74
-74 -75 -75 -76 76 c-68 67 -81 76 -106 71 -26 -5 -141 -48 -173 -66 -12 -6
-16 -33 -18 -125 l-3 -116 -109 0 -110 0 0 108 c0 59 -4 112 -8 118 -8 13
-179 84 -200 84 -8 0 -50 -35 -93 -77 l-80 -77 -72 72 -72 72 73 73 c83 83 87
101 47 182 -13 28 -25 58 -25 68 0 9 -9 26 -20 37 -18 18 -33 20 -130 20
l-110 0 0 105 0 105 104 0 c124 0 132 5 171 100 49 118 48 121 -39 209 l-76
76 75 75 74 74 80 -77 c43 -42 86 -77 95 -77 9 0 38 11 64 24 26 13 64 29 85
35 20 7 42 21 47 31 6 10 10 64 10 119 l0 100 78 4 c42 1 89 4 105 5 l27 2 0
-110z"/>
<path d="M1285 4580 c-146 -30 -256 -115 -316 -244 -141 -305 73 -646 406
-646 132 0 246 49 332 144 100 109 139 247 110 390 -22 106 -58 175 -128 241
-105 101 -259 144 -404 115z m237 -141 c62 -32 125 -95 155 -158 24 -48 28
-68 28 -141 -1 -103 -22 -156 -90 -229 -67 -71 -128 -96 -240 -96 -79 0 -97 4
-147 28 -72 35 -141 111 -165 180 -83 242 114 483 365 445 30 -5 72 -18 94
-29z"/>
<path d="M4100 4276 c-50 -8 -79 -21 -120 -51 -168 -121 -251 -189 -264 -214
-18 -34 -22 -81 -12 -136 l7 -41 -57 -24 c-32 -13 -59 -19 -61 -14 -2 5 -16
34 -31 64 -35 71 -77 100 -146 100 -127 0 -194 -121 -136 -249 11 -24 20 -45
20 -47 0 -5 -91 -44 -102 -44 -5 0 -20 24 -32 53 -26 57 -56 90 -99 106 -98
37 -203 -27 -214 -131 -4 -33 1 -58 16 -93 11 -26 21 -53 21 -59 0 -6 -24 -21
-52 -32 l-53 -22 -20 47 c-34 77 -43 88 -88 110 -54 26 -97 27 -146 1 -78 -39
-101 -127 -61 -230 24 -61 24 -57 3 -63 -10 -3 -34 -12 -55 -21 l-36 -16 -30
64 c-37 80 -81 110 -159 110 -121 0 -184 -114 -133 -239 12 -31 21 -58 19 -60
-3 -2 -41 -19 -85 -38 l-80 -35 -11 29 c-22 58 -45 57 -208 -11 -82 -34 -166
-70 -187 -81 -59 -30 -117 -94 -151 -167 -59 -127 -36 -285 58 -389 80 -89
218 -137 329 -115 71 14 358 137 382 163 15 16 16 25 6 56 -6 20 -10 38 -9 39
1 2 39 18 83 37 l81 35 22 -54 c38 -91 110 -136 196 -120 48 9 100 62 115 115
10 39 9 52 -10 105 -11 34 -22 65 -23 70 -1 5 22 19 51 32 l52 24 31 -65 c38
-80 79 -109 156 -109 119 0 185 118 134 237 -12 27 -21 52 -21 57 0 7 18 15
96 47 6 2 21 -20 34 -49 38 -90 79 -120 162 -120 122 1 180 102 134 234 l-24
67 55 22 c29 12 55 20 56 18 2 -2 12 -24 22 -49 35 -85 83 -120 163 -120 59 0
106 28 133 80 24 45 24 97 -1 160 -11 28 -20 53 -20 55 0 6 112 57 115 53 1
-2 12 -20 24 -40 31 -52 77 -78 137 -78 27 0 122 13 211 29 178 31 207 44 279
124 46 50 64 95 73 175 l6 64 100 44 c120 53 161 84 200 155 27 48 30 63 30
139 0 69 -5 93 -23 127 -33 63 -74 106 -129 133 -41 21 -61 25 -138 25 -83 -1
-97 -4 -183 -43 l-94 -41 -33 34 c-62 66 -159 91 -275 71z m145 -125 c22 -10
48 -27 58 -38 9 -11 63 -127 118 -258 106 -248 115 -285 86 -342 -21 -40 -53
-68 -60 -51 -3 7 -71 167 -151 356 -80 188 -146 345 -146 347 0 12 59 3 95
-14z m503 -17 c55 -22 91 -62 107 -118 31 -102 -20 -175 -161 -233 -43 -18
-84 -33 -89 -33 -9 0 -135 288 -135 308 0 5 39 25 88 45 134 55 134 55 190 31z
m-549 -393 c78 -183 140 -336 137 -339 -3 -3 -62 -15 -131 -27 -117 -21 -127
-21 -146 -6 -19 16 -249 539 -249 567 0 8 51 52 113 98 108 81 112 83 123 62
7 -11 75 -171 153 -355z m-613 -242 c78 -183 140 -338 137 -346 -8 -21 -54
-29 -67 -11 -6 8 -74 163 -150 343 l-140 328 23 18 c16 13 28 16 39 10 9 -5
81 -159 158 -342z m233 98 c28 -65 51 -120 51 -122 0 -5 -87 -44 -106 -47 -11
-2 -31 34 -69 122 l-54 125 57 26 c31 15 60 24 64 20 4 -3 30 -59 57 -124z
m-782 61 c26 -34 283 -661 278 -678 -7 -21 -29 -32 -49 -24 -16 6 -296 654
-296 684 0 9 3 20 7 23 11 12 50 8 60 -5z m364 -228 c26 -63 48 -120 49 -126
0 -10 -99 -59 -105 -52 -9 11 -107 250 -103 253 8 9 94 43 102 41 4 -1 30 -53
57 -116z m-771 55 c21 -26 287 -659 282 -673 -2 -7 -13 -17 -24 -23 -16 -9
-24 -7 -38 7 -15 17 -290 652 -290 672 0 29 50 42 70 17z m369 -239 c28 -66
49 -121 48 -122 -4 -4 -98 -44 -103 -44 -5 0 -26 46 -83 178 l-31 73 53 24
c28 13 55 20 59 17 4 -4 29 -61 57 -126z m-782 76 c13 -8 293 -658 293 -680 0
-7 -11 -18 -25 -24 -21 -9 -29 -9 -40 3 -17 17 -285 645 -285 668 0 32 31 50
57 33z m372 -237 c28 -66 51 -123 51 -128 0 -4 -24 -18 -52 -30 l-53 -23 -47
109 c-68 158 -68 144 -6 171 29 13 54 23 55 22 1 0 24 -55 52 -121z m-415
-148 c21 -50 45 -107 53 -125 l14 -33 -68 -30 c-105 -47 -99 -50 -154 81 -27
63 -49 120 -49 126 0 10 131 73 155 73 6 1 27 -41 49 -92z m-265 -156 c50
-118 90 -216 88 -217 -17 -16 -264 -108 -300 -112 -134 -13 -251 101 -252 248
0 53 5 73 28 112 15 26 41 57 59 69 43 31 271 130 279 121 4 -4 48 -103 98
-221z"/>
<path d="M4612 4100 c-89 -55 -96 -191 -12 -252 61 -44 168 -27 212 35 28 39
30 117 4 165 -36 69 -135 94 -204 52z"/>
<path d="M1615 2856 c-131 -58 -140 -247 -15 -313 159 -84 319 76 238 237 -40
78 -141 112 -223 76z"/>
<path d="M831 2243 c-42 -4 -751 -278 -799 -309 -18 -12 -22 -23 -20 -51 5
-63 12 -63 295 -6 141 29 257 52 258 50 1 -1 -49 -76 -111 -166 -171 -246
-168 -251 112 -251 l194 0 2 -674 c3 -664 3 -675 24 -703 11 -15 36 -36 55
-45 32 -17 135 -18 1724 -18 1669 0 1690 0 1723 20 18 11 41 34 52 52 19 32
20 52 20 701 l0 667 195 0 c184 0 196 1 216 21 15 15 19 28 14 46 -3 14 -56
97 -117 185 -60 87 -108 161 -106 163 2 2 118 -19 257 -47 183 -38 257 -49
269 -42 24 15 32 59 16 82 -9 13 -153 76 -396 174 l-383 153 -1725 1 c-949 0
-1745 -1 -1769 -3z m3606 -360 l171 -248 -1024 -3 c-563 -1 -1485 -1 -2049 0
l-1025 3 171 248 170 247 1708 0 1708 0 170 -247z m-199 -1030 l-3 -658 -1675
0 -1675 0 -3 658 -2 657 1680 0 1680 0 -2 -657z"/>
<path d="M1262 1218 c-9 -9 -12 -86 -12 -285 0 -259 1 -273 19 -283 27 -14
2555 -14 2582 0 18 10 19 24 19 283 0 199 -3 276 -12 285 -17 17 -2579 17
-2596 0z m2498 -278 l0 -180 -1200 0 -1200 0 0 180 0 180 1200 0 1200 0 0
-180z"/>
</g>
</svg>
