<?xml version="1.0" encoding="UTF-8"?> <svg xmlns="http://www.w3.org/2000/svg" width="255" height="98" viewBox="0 0 255 98" fill="none"> <path d="M126.892 59.315H119.816C117.399 59.315 115.601 58.8317 114.422 57.865C113.262 56.8983 112.682 55.4097 112.682 53.399V44.38C112.682 42.3693 113.262 40.8807 114.422 39.914C115.601 38.928 117.399 38.435 119.816 38.435H126.892C127.259 38.435 127.52 38.522 127.675 38.696C127.849 38.8507 127.936 39.1117 127.936 39.479V42.988C127.936 43.3553 127.849 43.626 127.675 43.8C127.52 43.9547 127.259 44.032 126.892 44.032H121.063C120.464 44.032 120.019 44.1577 119.729 44.409C119.439 44.641 119.294 44.9987 119.294 45.482V52.384C119.294 52.8673 119.439 53.225 119.729 53.457C120.019 53.6697 120.464 53.776 121.063 53.776H126.892C127.259 53.776 127.52 53.863 127.675 54.037C127.849 54.1917 127.936 54.4527 127.936 54.82V58.271C127.936 58.6383 127.849 58.909 127.675 59.083C127.52 59.2377 127.259 59.315 126.892 59.315Z" fill="#81353E"></path> <path d="M136.75 59.315H132.255C131.888 59.315 131.617 59.2377 131.443 59.083C131.288 58.909 131.211 58.6383 131.211 58.271V39.479C131.211 39.1117 131.288 38.8507 131.443 38.696C131.617 38.522 131.888 38.435 132.255 38.435H136.75C137.117 38.435 137.378 38.522 137.533 38.696C137.707 38.8507 137.794 39.1117 137.794 39.479V45.772H142.637V39.479C142.637 39.1117 142.714 38.8507 142.869 38.696C143.043 38.522 143.314 38.435 143.681 38.435H148.176C148.543 38.435 148.804 38.522 148.959 38.696C149.133 38.8507 149.22 39.1117 149.22 39.479V58.271C149.22 58.6383 149.133 58.909 148.959 59.083C148.804 59.2377 148.543 59.315 148.176 59.315H143.681C143.314 59.315 143.043 59.2377 142.869 59.083C142.714 58.909 142.637 58.6383 142.637 58.271V51.833H137.794V58.271C137.794 58.6383 137.707 58.909 137.533 59.083C137.378 59.2377 137.117 59.315 136.75 59.315Z" fill="#81353E"></path> <path d="M167.716 59.315H154.26C153.893 59.315 153.622 59.2377 153.448 59.083C153.293 58.909 153.216 58.6383 153.216 58.271V39.479C153.216 39.1117 153.293 38.8507 153.448 38.696C153.622 38.522 153.893 38.435 154.26 38.435H167.716C168.083 38.435 168.344 38.522 168.499 38.696C168.673 38.8507 168.76 39.1117 168.76 39.479V42.872C168.76 43.2393 168.673 43.51 168.499 43.684C168.344 43.8387 168.083 43.916 167.716 43.916H159.712V46.149H165.367C165.734 46.149 165.995 46.236 166.15 46.41C166.324 46.5647 166.411 46.8257 166.411 47.193V50.296C166.411 50.6633 166.324 50.934 166.15 51.108C165.995 51.2627 165.734 51.34 165.367 51.34H159.712V53.834H167.716C168.083 53.834 168.344 53.921 168.499 54.095C168.673 54.2497 168.76 54.5107 168.76 54.878V58.271C168.76 58.6383 168.673 58.909 168.499 59.083C168.344 59.2377 168.083 59.315 167.716 59.315Z" fill="#81353E"></path> <path d="M177.729 59.315H173.234C172.867 59.315 172.596 59.2377 172.422 59.083C172.268 58.909 172.19 58.6383 172.19 58.271V39.479C172.19 39.1117 172.268 38.8507 172.422 38.696C172.596 38.522 172.867 38.435 173.234 38.435H177.729C178.097 38.435 178.358 38.522 178.512 38.696C178.686 38.8507 178.773 39.1117 178.773 39.479V46.149H179.933L182.92 39.392C183.056 39.044 183.239 38.8023 183.471 38.667C183.703 38.5123 184.003 38.435 184.37 38.435H188.836C189.165 38.435 189.387 38.522 189.503 38.696C189.619 38.8507 189.61 39.0827 189.474 39.392L186.516 46.149C187.599 46.207 188.459 46.5937 189.097 47.309C189.755 48.005 190.083 48.933 190.083 50.093V58.271C190.083 58.6383 189.996 58.909 189.822 59.083C189.668 59.2377 189.407 59.315 189.039 59.315H184.573C184.206 59.315 183.935 59.2377 183.761 59.083C183.607 58.909 183.529 58.6383 183.529 58.271V52.616C183.529 52.3067 183.452 52.065 183.297 51.891C183.143 51.717 182.911 51.63 182.601 51.63H178.773V58.271C178.773 58.6383 178.686 58.909 178.512 59.083C178.358 59.2377 178.097 59.315 177.729 59.315Z" fill="#81353E"></path> <path d="M199.366 59.315H194.871C194.504 59.315 194.233 59.2377 194.059 59.083C193.905 58.909 193.827 58.6383 193.827 58.271V39.479C193.827 39.1117 193.905 38.8507 194.059 38.696C194.233 38.522 194.504 38.435 194.871 38.435H199.366C199.734 38.435 199.995 38.522 200.149 38.696C200.323 38.8507 200.41 39.1117 200.41 39.479V45.772H205.253V39.479C205.253 39.1117 205.331 38.8507 205.485 38.696C205.659 38.522 205.93 38.435 206.297 38.435H210.792C211.16 38.435 211.421 38.522 211.575 38.696C211.749 38.8507 211.836 39.1117 211.836 39.479V58.271C211.836 58.6383 211.749 58.909 211.575 59.083C211.421 59.2377 211.16 59.315 210.792 59.315H206.297C205.93 59.315 205.659 59.2377 205.485 59.083C205.331 58.909 205.253 58.6383 205.253 58.271V51.833H200.41V58.271C200.41 58.6383 200.323 58.909 200.149 59.083C199.995 59.2377 199.734 59.315 199.366 59.315Z" fill="#81353E"></path> <path d="M233.522 53.834C233.522 54.7233 233.387 55.5353 233.116 56.27C232.865 56.9853 232.401 57.604 231.724 58.126C231.067 58.6287 230.148 59.025 228.969 59.315C227.809 59.605 226.33 59.75 224.532 59.75C222.734 59.75 221.245 59.605 220.066 59.315C218.887 59.025 217.959 58.6287 217.282 58.126C216.625 57.604 216.161 56.9853 215.89 56.27C215.639 55.5353 215.513 54.7233 215.513 53.834V43.945C215.513 43.0557 215.639 42.2533 215.89 41.538C216.161 40.8033 216.625 40.175 217.282 39.653C217.959 39.131 218.887 38.725 220.066 38.435C221.245 38.145 222.734 38 224.532 38C226.33 38 227.809 38.145 228.969 38.435C230.148 38.725 231.067 39.131 231.724 39.653C232.401 40.175 232.865 40.8033 233.116 41.538C233.387 42.2533 233.522 43.0557 233.522 43.945V53.834ZM222.096 52.79C222.096 53.1767 222.241 53.5053 222.531 53.776C222.821 54.0273 223.488 54.153 224.532 54.153C225.576 54.153 226.243 54.0273 226.533 53.776C226.823 53.5053 226.968 53.1767 226.968 52.79V44.989C226.968 44.6217 226.823 44.3123 226.533 44.061C226.243 43.7903 225.576 43.655 224.532 43.655C223.488 43.655 222.821 43.7903 222.531 44.061C222.241 44.3123 222.096 44.6217 222.096 44.989V52.79Z" fill="#81353E"></path> <path fill-rule="evenodd" clip-rule="evenodd" d="M254.255 38.585L248.034 58.545H240.692L234.786 38.585H241.191L241.302 38.9326C241.624 39.9395 241.966 41.0854 242.327 42.3697C242.688 43.6526 243.039 44.9653 243.379 46.3077C243.74 47.6306 244.051 48.875 244.313 50.0407C244.382 50.3219 244.447 50.592 244.507 50.8509C244.564 50.5931 244.624 50.324 244.688 50.0438L244.69 50.0377C244.97 48.8749 245.281 47.6324 245.622 46.3103L245.623 46.3035C245.984 44.9822 246.344 43.681 246.705 42.3997C247.066 41.116 247.407 39.9611 247.729 38.9354L247.839 38.585H254.255ZM244.769 52.0188C244.697 52.3679 244.634 52.689 244.58 52.9821C244.579 52.9898 244.577 52.9974 244.576 53.005H244.456C244.454 52.9974 244.453 52.9898 244.452 52.9821C244.397 52.6896 244.333 52.3692 244.258 52.0209C244.14 51.4689 243.996 50.847 243.826 50.155C243.566 48.995 243.256 47.755 242.896 46.435C242.556 45.095 242.206 43.785 241.846 42.505C241.486 41.225 241.146 40.085 240.826 39.085H235.456L241.066 58.045H247.666L253.576 39.085H248.206C247.886 40.105 247.546 41.255 247.186 42.535C246.826 43.815 246.466 45.115 246.106 46.435C245.766 47.755 245.456 48.995 245.176 50.155C245.018 50.8461 244.883 51.4674 244.769 52.0188Z" fill="#81353E"></path> <path d="M244.58 52.9821C244.634 52.689 244.697 52.3679 244.769 52.0188C244.883 51.4674 245.018 50.8461 245.176 50.155C245.456 48.995 245.766 47.755 246.106 46.435C246.466 45.115 246.826 43.815 247.186 42.535C247.546 41.255 247.886 40.105 248.206 39.085H253.576L247.666 58.045H241.066L235.456 39.085H240.826C241.146 40.085 241.486 41.225 241.846 42.505C242.206 43.785 242.556 45.095 242.896 46.435C243.256 47.755 243.566 48.995 243.826 50.155C243.996 50.847 244.14 51.4689 244.258 52.0209C244.333 52.3692 244.397 52.6896 244.452 52.9821L244.456 53.005H244.576L244.58 52.9821Z" fill="#81353E"></path> <path d="M98 49C98 76.062 76.062 98 49 98C21.938 98 0 76.062 0 49C0 21.938 21.938 0 49 0C76.062 0 98 21.938 98 49Z" fill="#81353E"></path> <path fill-rule="evenodd" clip-rule="evenodd" d="M49 94C73.8528 94 94 73.8528 94 49C94 24.1472 73.8528 4 49 4C24.1472 4 4 24.1472 4 49C4 73.8528 24.1472 94 49 94ZM49 98C76.062 98 98 76.062 98 49C98 21.938 76.062 0 49 0C21.938 0 0 21.938 0 49C0 76.062 21.938 98 49 98Z" fill="#624D4A"></path> <path d="M80.5 45.5L89.5 45C89.5 40 87 30 77 30C67 30 61.8333 39.6667 61 44.5C59.7931 51.5 60.6278 57.2236 62.5 60.5C65.6429 66 69.1 67.5 75.5 67.5C83.5 67.5 86.8333 58.5 88.5 54L79 52C78.6667 54.3333 76.7 57.9 73.5 57.5C70.3 57.1 70.5 53.5 70.5 52.5C70.5 49.639 71.5 43.5 73 41.5C74.5 39.5 77 39 79 40.5C80.2649 41.4487 80.5 44.5 80.5 45.5Z" fill="white"></path> <path d="M40.5 31.5L34 67.5H56L58 58.5H44.5L49 31.5H40.5Z" fill="white"></path> <path d="M23 67.5L28 40H36L37.5 31.5H13L11 40H19L13.5 67.5H23Z" fill="white"></path> <path fill-rule="evenodd" clip-rule="evenodd" d="M65.1864 35.1081C67.9015 32.0081 71.8211 29.5 77 29.5C82.2046 29.5 85.4793 32.1187 87.4287 35.3678C89.3625 38.5907 90 42.4363 90 45V45.473L80 46.0285V45.5C80 45.0271 79.9434 44.0506 79.7356 43.0861C79.6318 42.6044 79.4933 42.1406 79.3137 41.7496C79.1318 41.3538 78.9237 41.0678 78.7 40.9C76.9452 39.5839 74.7532 39.9958 73.4 41.8C73.073 42.236 72.7495 42.9348 72.4502 43.8203C72.1541 44.6965 71.8934 45.7195 71.6774 46.7772C71.2445 48.8971 71 51.1123 71 52.5C71 52.5529 70.9996 52.6112 70.9991 52.6741C70.9947 53.2397 70.9875 54.1857 71.2754 55.0702C71.4328 55.5534 71.671 55.9915 72.0255 56.328C72.3744 56.6592 72.8609 56.9162 73.562 57.0039C74.9371 57.1757 76.0741 56.5075 76.939 55.4571C77.8095 54.4002 78.3503 53.0125 78.505 51.9293L78.5805 51.4007L89.1702 53.6301L88.9619 54.1924C88.1312 56.4355 86.8617 59.863 84.7796 62.7312C82.6853 65.6163 79.7195 68 75.5 68C72.2683 68 69.7103 67.623 67.5491 66.5067C65.3789 65.3859 63.6672 63.5504 62.0659 60.7481C60.1147 57.3334 59.2895 51.4783 60.5073 44.415C60.9397 41.9072 62.4803 38.1977 65.1864 35.1081ZM65.9386 35.7669C63.3531 38.7189 61.8937 42.2595 61.4927 44.585C60.2967 51.5217 61.1409 57.1138 62.9341 60.2519C64.4756 62.9496 66.0639 64.6141 68.008 65.6183C69.9612 66.627 72.3317 67 75.5 67C79.2805 67 81.9814 64.8837 83.9704 62.1438C85.811 59.6082 86.9998 56.5938 87.8294 54.3698L79.3987 52.5949C79.144 53.7381 78.5721 55.0472 77.711 56.0929C76.7093 57.3092 75.2629 58.2243 73.438 57.9961C72.5391 57.8838 71.8506 57.5408 71.337 57.0533C70.829 56.571 70.5172 55.9716 70.3246 55.3798C69.9822 54.3281 69.9933 53.2164 69.9988 52.6617C69.9995 52.6008 70 52.5466 70 52.5C70 51.0267 70.2555 48.7419 70.6976 46.5771C70.9191 45.4923 71.1897 44.4268 71.5029 43.5001C71.813 42.5825 72.177 41.764 72.6 41.2C74.2468 39.0042 77.0548 38.4161 79.3 40.1C79.7087 40.4065 80.0044 40.8577 80.2223 41.3321C80.4425 41.8112 80.6 42.3507 80.7131 42.8754C80.8783 43.6421 80.9553 44.4092 80.9848 44.9723L88.9926 44.5274C88.9184 42.1076 88.2735 38.7194 86.5713 35.8822C84.7707 32.8813 81.7954 30.5 77 30.5C72.1789 30.5 68.5152 32.8252 65.9386 35.7669ZM12.604 31H38.096L36.4195 40.5H28.4173L23.4173 68H12.8901L18.3901 40.5H10.3687L12.604 31ZM13.396 32L11.6313 39.5H19.6099L14.1099 67H22.5827L27.5827 39.5H35.5805L36.904 32H13.396ZM40.0822 31H49.5902L45.0902 58H58.6233L56.4011 68H33.4016L40.0822 31ZM40.9178 32L34.5984 67H55.5989L57.3767 59H43.9098L48.4098 32H40.9178Z" fill="white"></path> </svg> 