<svg xmlns="http://www.w3.org/2000/svg" viewBox="0 0 324.76 82.96"><defs><style>.cls-1{fill:#002f6c;}</style></defs><g id="Слой_2" data-name="Слой 2"><g id="Слой_1-2" data-name="Слой 1"><polygon class="cls-1" points="82.31 0 15.27 0 15.27 35.58 33.45 35.58 33.45 20.46 41.7 20.46 44.99 20.46 54.34 44.46 63.69 20.46 75.22 20.46 75.22 82.31 82.31 82.31 82.31 0"/><polygon class="cls-1" points="56.13 58.94 52.55 58.94 41.71 31.25 41.71 58.94 41.7 58.94 33.45 58.94 33.45 42.79 15.27 42.79 15.27 58.94 7.08 58.94 7.08 0 0 0 0 82.31 66.97 82.31 66.97 31.25 56.13 58.94"/><path class="cls-1" d="M101.62.32h7.95v15h16.65V.32h7.95V37.6h-7.95V22.5H109.57V37.6h-7.95Z"/><path class="cls-1" d="M141.73.32h28V7.26H149.57v8H167.2v7H149.57v8.35h20.37v7H141.73Z"/><path class="cls-1" d="M175.39.32Q183.06,0,188.58,0q7.54,0,11.31,2.46a7.74,7.74,0,0,1,3.76,6.82,9.21,9.21,0,0,1-1.41,5.12,9.11,9.11,0,0,1-4.09,3.38q6.91,1.89,6.91,8.78a9.28,9.28,0,0,1-4.54,8.33q-4.53,2.88-12.34,2.88t-12.79-.29Zm13.19,15.27a8.58,8.58,0,0,0,4.86-1.24,4.09,4.09,0,0,0,1.83-3.6,3.57,3.57,0,0,0-1.86-3.25,10.36,10.36,0,0,0-5.23-1.1c-1.35,0-3,0-4.84.11v9.08Zm-.11,15.81a12.22,12.22,0,0,0,6.2-1.25,4.22,4.22,0,0,0,2.07-3.88q0-4.61-7.9-4.61h-5.5v9.51C185.68,31.33,187.39,31.4,188.47,31.4Z"/><path class="cls-1" d="M224.09.32h2.19l18.9,37.28h-8.67l-3.09-6.54H217l-3,6.54h-8.24Zm6.45,24.48-5.38-11.52L219.85,24.8Z"/><path class="cls-1" d="M149.75,45.22H177.7v6.94H157.59v8h17.63v7H157.59v8.35H178v7H149.75Z"/><path class="cls-1" d="M181.21,45.22h31.25v6.94H200.68V82.5H193V52.16H181.21Z"/><path class="cls-1" d="M227,45.22h2.19L248.1,82.5h-8.68L236.34,76H219.89l-3,6.54h-8.24Zm6.45,24.48-5.39-11.52-5.3,11.52Z"/><path class="cls-1" d="M251.1,76.24a6.3,6.3,0,0,0,1.07.06A6.12,6.12,0,0,0,254.3,76a4.74,4.74,0,0,0,1.76-1.18,6.3,6.3,0,0,0,1.42-2.5,27.05,27.05,0,0,0,1-4.19,55.65,55.65,0,0,0,.63-6.33c.14-2.51.2-5.46.2-8.84V45.22h26.45V82.5H277.9V52.27H266.69v3.2q0,5.47-.32,9.64a52.12,52.12,0,0,1-1,7.22,25.57,25.57,0,0,1-1.63,5.1,9.71,9.71,0,0,1-2.33,3.26,8.35,8.35,0,0,1-3,1.75,12.29,12.29,0,0,1-3.72.52,15.77,15.77,0,0,1-4.11-.41Z"/><path class="cls-1" d="M290.11,76.24a7.89,7.89,0,0,0,3.2-.26,4.71,4.71,0,0,0,1.75-1.18,6.43,6.43,0,0,0,1.43-2.5,28.39,28.39,0,0,0,1-4.19,57.75,57.75,0,0,0,.64-6.33q.19-3.77.2-8.84V45.22h26.44V82.5H316.9V52.27H305.69v3.2q0,5.47-.31,9.64a52,52,0,0,1-1,7.22,25.61,25.61,0,0,1-1.62,5.1,9.87,9.87,0,0,1-2.34,3.26,8.35,8.35,0,0,1-3,1.75,12.26,12.26,0,0,1-3.71.52,15.8,15.8,0,0,1-4.12-.41Z"/><path class="cls-1" d="M134,55.77,123.49,82.65H120L109.49,55.77V82.65h-8V45.29h11.15l9.07,23.3,9.07-23.3H142V82.65h-8Z"/></g></g></svg>