<?xml version="1.0" encoding="UTF-8"?>
<svg xmlns="http://www.w3.org/2000/svg" width="158" height="45" viewBox="0 0 158 45" fill="none" class="svg replaced-svg">
<path fill-rule="evenodd" clip-rule="evenodd" d="M59.4221 30.9895H53.3514L40.1929 9.93163V30.9895H34.3042V0.5H40.1929L53.5335 21.847V0.5H59.4221V30.9895Z" fill="#12188D"></path>
<path fill-rule="evenodd" clip-rule="evenodd" d="M93.7264 30.9895V0.5C101.649 0.5 109.572 0.5 117.495 0.5V5.43528H99.6151V13.2825H115.986V18.2071H99.6151V26.0543H117.495V30.9895C109.572 30.9895 101.649 30.9895 93.7264 30.9895Z" fill="#12188D"></path>
<path fill-rule="evenodd" clip-rule="evenodd" d="M66.7028 30.9895V0.5H72.5914V26.0543H88.9192V30.9895C81.5101 30.9895 74.1118 30.9895 66.7028 30.9895Z" fill="#12188D"></path>
<path fill-rule="evenodd" clip-rule="evenodd" d="M122.345 33.5482C121.714 33.5482 121.211 33.0343 121.211 32.4134V27.1569C121.211 26.5253 121.714 26.0114 122.345 26.0114C122.966 26.0114 123.48 26.5253 123.48 27.1569V32.4134C123.48 33.0343 122.966 33.5482 122.345 33.5482Z" fill="#12188D"></path>
<path d="M126.104 23.592L129.219 21.3759L129.594 23.592H130.054V26.3433H127.956C126.414 26.3433 125.161 25.1015 125.161 23.592H126.104ZM129.166 23.592L128.952 22.3822L128.32 23.592H129.166ZM127.86 23.592L128.481 22.4037L126.81 23.592H127.86Z" fill="#12188D"></path>
<path d="M133.962 23.5919L130.857 21.3759L130.483 23.5919H130.022V26.3433H132.121C133.662 26.3433 134.915 25.1014 134.915 23.5919H133.962ZM130.9 23.5919L131.114 22.3822L131.746 23.5919H130.9ZM132.217 23.5919L131.596 22.4036L133.266 23.5919H132.217Z" fill="#12188D"></path>
<path fill-rule="evenodd" clip-rule="evenodd" d="M130.483 6.40955H132.26V9.62123L131.832 11.4733V16.6762L133.106 19.2777H130.483V6.40955Z" fill="#12188D"></path>
<path fill-rule="evenodd" clip-rule="evenodd" d="M135.054 11.302H131.607V10.5205L132.356 9.27863H135.054V11.302Z" fill="#12188D"></path>
<path fill-rule="evenodd" clip-rule="evenodd" d="M131.061 14.8883H129.283V12.5545L131.039 14.1603L131.061 14.8883Z" fill="#12188D"></path>
<path fill-rule="evenodd" clip-rule="evenodd" d="M107.164 37.6912V33.8479H105.729V33.3341H109.187V33.8479H107.742V37.6912H107.164ZM102.346 35.2504H103.587C103.855 35.2504 104.059 35.2289 104.208 35.1754C104.358 35.1219 104.476 35.0362 104.551 34.9078C104.626 34.79 104.669 34.6616 104.669 34.5224C104.669 34.319 104.594 34.1477 104.444 34.0085C104.294 33.88 104.059 33.8158 103.727 33.8158H102.346V35.2504ZM101.778 37.6912V33.3341H103.705C104.091 33.3341 104.39 33.3662 104.594 33.4518C104.797 33.5268 104.958 33.6659 105.076 33.8586C105.204 34.062 105.258 34.2762 105.258 34.5224C105.258 34.8328 105.161 35.0898 104.958 35.3039C104.755 35.518 104.444 35.6465 104.026 35.7107C104.187 35.7856 104.305 35.8499 104.38 35.9248C104.551 36.0747 104.712 36.2781 104.862 36.5029L105.622 37.6912H104.894L104.316 36.7813C104.144 36.5243 104.005 36.3209 103.898 36.1817C103.791 36.0426 103.695 35.9462 103.609 35.8927C103.523 35.8392 103.427 35.7963 103.341 35.7749C103.277 35.7642 103.17 35.7535 103.02 35.7535H102.346V37.6912H101.778ZM97.4418 35.5715C97.4418 36.1068 97.581 36.5136 97.8701 36.8134C98.1485 37.1238 98.5018 37.2737 98.9301 37.2737C99.369 37.2737 99.7224 37.1238 100.001 36.8134C100.29 36.5136 100.429 36.0747 100.429 35.518C100.429 35.154 100.365 34.8543 100.247 34.5866C100.129 34.319 99.9472 34.1156 99.7224 33.9657C99.4868 33.8265 99.2299 33.7516 98.9408 33.7516C98.5339 33.7516 98.1806 33.8907 97.8915 34.1691C97.5917 34.4474 97.4418 34.9185 97.4418 35.5715ZM96.853 35.5715C96.853 34.8435 97.0457 34.2762 97.4311 33.8693C97.8166 33.4625 98.3198 33.2484 98.9408 33.2484C99.3369 33.2484 99.701 33.3448 100.022 33.5375C100.354 33.7302 100.6 33.9978 100.772 34.3511C100.932 34.6937 101.018 35.0791 101.018 35.518C101.018 35.9569 100.932 36.353 100.75 36.7063C100.579 37.0489 100.322 37.3165 99.99 37.4985C99.6688 37.6805 99.3155 37.7662 98.9408 37.7662C98.5232 37.7662 98.1592 37.6698 97.838 37.4664C97.5061 37.2737 97.2705 36.9954 97.0992 36.6528C96.9279 36.3102 96.853 35.9462 96.853 35.5715ZM93.5339 35.4002H94.6688C95.0435 35.4002 95.3005 35.336 95.4611 35.1968C95.6217 35.0577 95.6966 34.865 95.6966 34.608C95.6966 34.426 95.6538 34.2654 95.5574 34.137C95.4611 34.0085 95.3433 33.9229 95.1934 33.88C95.0971 33.8586 94.9151 33.8479 94.6581 33.8479H93.5339V35.4002ZM92.9664 37.6912V33.3341H94.6046C94.8936 33.3341 95.1185 33.3448 95.2684 33.3769C95.4825 33.409 95.6645 33.4732 95.8037 33.5803C95.9536 33.6766 96.0714 33.8158 96.157 33.9978C96.2427 34.1798 96.2855 34.3725 96.2855 34.5866C96.2855 34.9613 96.1677 35.2718 95.9322 35.5287C95.6966 35.7856 95.2791 35.9141 94.6581 35.9141H93.5339V37.6912H92.9664ZM88.4589 37.6912L90.1399 35.4216L88.6516 33.3341H89.3369L90.1292 34.4474C90.3005 34.683 90.4182 34.8543 90.4825 34.9827C90.5788 34.8221 90.6966 34.6616 90.8251 34.4903L91.703 33.3341H92.3347L90.8037 35.3895L92.4525 37.6912H91.7352L90.6431 36.1389C90.5788 36.0426 90.5146 35.9462 90.4503 35.8392C90.354 35.9998 90.279 36.1068 90.2469 36.171L89.1441 37.6912H88.4589ZM84.8507 37.6912V33.3341H87.9985V33.8479H85.4182V35.1754H87.8379V35.6893H85.4182V37.1774H88.1056V37.6912H84.8507ZM80.5788 36.2888L81.1141 36.246C81.1462 36.4601 81.1998 36.6421 81.2961 36.7813C81.3925 36.9204 81.5424 37.0275 81.7351 37.1238C81.9385 37.2095 82.1634 37.2523 82.4096 37.2523C82.6237 37.2523 82.8165 37.2202 82.9878 37.1452C83.1591 37.081 83.2876 36.9954 83.3625 36.8776C83.4482 36.7706 83.491 36.6421 83.491 36.5029C83.491 36.3744 83.4482 36.2567 83.3732 36.1496C83.2876 36.0426 83.1591 35.9569 82.9771 35.8927C82.8593 35.8499 82.6023 35.7749 82.1955 35.6786C81.7993 35.5822 81.521 35.4966 81.3604 35.4109C81.1462 35.2932 80.9963 35.1647 80.8893 35.0041C80.7929 34.8435 80.7394 34.6616 80.7394 34.4581C80.7394 34.2333 80.8036 34.0299 80.9321 33.8372C81.0499 33.6445 81.2319 33.5053 81.4781 33.409C81.7137 33.3019 81.9813 33.2591 82.2704 33.2591C82.6023 33.2591 82.8807 33.3126 83.127 33.409C83.3732 33.5161 83.5659 33.6659 83.7051 33.8693C83.8336 34.0727 83.9086 34.3083 83.9193 34.5545L83.3625 34.5973C83.3304 34.3297 83.234 34.1156 83.0627 33.9764C82.8914 33.8372 82.6345 33.7623 82.3025 33.7623C81.9492 33.7623 81.6923 33.8265 81.5317 33.955C81.3711 34.0834 81.2961 34.244 81.2961 34.4153C81.2961 34.5759 81.3496 34.7044 81.4674 34.8007C81.5745 34.9078 81.8636 35.0148 82.3347 35.1112C82.8058 35.2182 83.127 35.3146 83.2983 35.3895C83.5552 35.5073 83.748 35.6572 83.8657 35.8392C83.9835 36.0212 84.0477 36.2246 84.0477 36.4601C84.0477 36.6956 83.9835 36.9097 83.8443 37.1131C83.7158 37.3165 83.5231 37.4771 83.2769 37.5949C83.0199 37.7126 82.7415 37.7662 82.431 37.7662C82.0349 37.7662 81.703 37.7126 81.446 37.5949C81.1783 37.4771 80.9642 37.3058 80.8143 37.0703C80.6644 36.8455 80.5788 36.5779 80.5788 36.2888ZM76.7136 37.6912V33.3341H79.8721V33.8479H77.2918V35.1754H79.7115V35.6893H77.2918V37.1774H79.9685V37.6912H76.7136ZM73.2982 37.6912V33.3341H73.8657V37.1774H76.0177V37.6912H73.2982ZM69.0583 36.2888L69.6044 36.246C69.6258 36.4601 69.69 36.6421 69.7864 36.7813C69.8721 36.9204 70.0219 37.0275 70.2254 37.1238C70.4181 37.2095 70.6429 37.2523 70.8892 37.2523C71.114 37.2523 71.3068 37.2202 71.4674 37.1452C71.6387 37.081 71.7671 36.9954 71.8528 36.8776C71.9277 36.7706 71.9706 36.6421 71.9706 36.5029C71.9706 36.3744 71.9385 36.2567 71.8528 36.1496C71.7779 36.0426 71.6387 35.9569 71.4566 35.8927C71.3389 35.8499 71.0819 35.7749 70.6858 35.6786C70.2896 35.5822 70.0005 35.4966 69.8399 35.4109C69.6365 35.2932 69.4759 35.1647 69.3795 35.0041C69.2725 34.8435 69.2297 34.6616 69.2297 34.4581C69.2297 34.2333 69.2832 34.0299 69.4117 33.8372C69.5401 33.6445 69.7222 33.5053 69.9577 33.409C70.204 33.3019 70.4609 33.2591 70.7607 33.2591C71.0819 33.2591 71.371 33.3126 71.6172 33.409C71.8635 33.5161 72.0562 33.6659 72.1847 33.8693C72.3132 34.0727 72.3881 34.3083 72.3988 34.5545L71.8421 34.5973C71.81 34.3297 71.7136 34.1156 71.5423 33.9764C71.371 33.8372 71.114 33.7623 70.7821 33.7623C70.4288 33.7623 70.1826 33.8265 70.0219 33.955C69.8613 34.0834 69.7757 34.244 69.7757 34.4153C69.7757 34.5759 69.8399 34.7044 69.947 34.8007C70.0648 34.9078 70.3539 35.0148 70.825 35.1112C71.2853 35.2182 71.6065 35.3146 71.7886 35.3895C72.0348 35.5073 72.2275 35.6572 72.3453 35.8392C72.4738 36.0212 72.5273 36.2246 72.5273 36.4601C72.5273 36.6956 72.4631 36.9097 72.3346 37.1131C72.1954 37.3165 72.0027 37.4771 71.7564 37.5949C71.5102 37.7126 71.2318 37.7662 70.9213 37.7662C70.5252 37.7662 70.1933 37.7126 69.9256 37.5949C69.6579 37.4771 69.4438 37.3058 69.2939 37.0703C69.144 36.8455 69.069 36.5779 69.0583 36.2888ZM64.9363 35.5715C64.9363 36.1068 65.0754 36.5136 65.3538 36.8134C65.6429 37.1238 65.9962 37.2737 66.4245 37.2737C66.8528 37.2737 67.2168 37.1238 67.4952 36.8134C67.7735 36.5136 67.9127 36.0747 67.9127 35.518C67.9127 35.154 67.8592 34.8543 67.7307 34.5866C67.6129 34.319 67.4416 34.1156 67.2061 33.9657C66.9812 33.8265 66.7136 33.7516 66.4352 33.7516C66.0176 33.7516 65.675 33.8907 65.3752 34.1691C65.0862 34.4474 64.9363 34.9185 64.9363 35.5715ZM64.3367 35.5715C64.3367 34.8435 64.5294 34.2762 64.9256 33.8693C65.311 33.4625 65.8142 33.2484 66.4245 33.2484C66.8313 33.2484 67.1954 33.3448 67.5166 33.5375C67.8378 33.7302 68.084 33.9978 68.2553 34.3511C68.4266 34.6937 68.5123 35.0791 68.5123 35.518C68.5123 35.9569 68.4159 36.353 68.2446 36.7063C68.0626 37.0489 67.8164 37.3165 67.4845 37.4985C67.1525 37.6805 66.7992 37.7662 66.4245 37.7662C66.0176 37.7662 65.6429 37.6698 65.3217 37.4664C65.0005 37.2737 64.7542 36.9954 64.5936 36.6528C64.4223 36.3102 64.3367 35.9462 64.3367 35.5715ZM60.6964 35.2504H61.9384C62.206 35.2504 62.4095 35.2289 62.5594 35.1754C62.7093 35.1219 62.827 35.0362 62.902 34.9078C62.9769 34.79 63.0198 34.6616 63.0198 34.5224C63.0198 34.319 62.9448 34.1477 62.7949 34.0085C62.645 33.88 62.4095 33.8158 62.0776 33.8158H60.6964V35.2504ZM60.1289 37.6912V33.3341H62.0562C62.4416 33.3341 62.7414 33.3662 62.9448 33.4518C63.1482 33.5268 63.3088 33.6659 63.4266 33.8586C63.5551 34.062 63.6086 34.2762 63.6086 34.5224C63.6086 34.8328 63.5123 35.0898 63.3088 35.3039C63.1054 35.518 62.7949 35.6465 62.3774 35.7107C62.538 35.7856 62.6557 35.8499 62.7307 35.9248C62.902 36.0747 63.0626 36.2781 63.2125 36.5029L63.9727 37.6912H63.2446L62.6664 36.7813C62.4951 36.5243 62.3559 36.3209 62.2489 36.1817C62.1418 36.0426 62.0454 35.9462 61.9598 35.8927C61.8634 35.8392 61.7778 35.7963 61.6921 35.7749C61.6279 35.7642 61.5208 35.7535 61.3709 35.7535H60.6964V37.6912H60.1289ZM55.7927 35.5715C55.7927 36.1068 55.9319 36.5136 56.221 36.8134C56.4994 37.1238 56.8527 37.2737 57.281 37.2737C57.7199 37.2737 58.0733 37.1238 58.3516 36.8134C58.6407 36.5136 58.7799 36.0747 58.7799 35.518C58.7799 35.154 58.7157 34.8543 58.5979 34.5866C58.4801 34.319 58.2981 34.1156 58.0733 33.9657C57.8377 33.8265 57.5807 33.7516 57.2917 33.7516C56.8848 33.7516 56.5315 33.8907 56.2317 34.1691C55.9426 34.4474 55.7927 34.9185 55.7927 35.5715ZM55.2039 35.5715C55.2039 34.8435 55.3966 34.2762 55.782 33.8693C56.1675 33.4625 56.6707 33.2484 57.2917 33.2484C57.6878 33.2484 58.0518 33.3448 58.373 33.5375C58.705 33.7302 58.9512 33.9978 59.1118 34.3511C59.2831 34.6937 59.3688 35.0791 59.3688 35.518C59.3688 35.9569 59.2831 36.353 59.1011 36.7063C58.9298 37.0489 58.6728 37.3165 58.3409 37.4985C58.0197 37.6805 57.6664 37.7662 57.281 37.7662C56.8741 37.7662 56.5101 37.6698 56.1889 37.4664C55.857 37.2737 55.6214 36.9954 55.4501 36.6528C55.2788 36.3102 55.2039 35.9462 55.2039 35.5715ZM52.5593 37.6912L50.8676 33.3341H51.4886L52.6235 36.5029C52.7199 36.7491 52.7948 36.9954 52.8591 37.2095C52.9233 36.974 52.9983 36.7384 53.0946 36.5029L54.2724 33.3341H54.8612L53.1482 37.6912H52.5593ZM46.9918 35.5715C46.9918 36.1068 47.131 36.5136 47.4201 36.8134C47.6985 37.1238 48.0518 37.2737 48.48 37.2737C48.919 37.2737 49.2723 37.1238 49.5507 36.8134C49.8291 36.5136 49.979 36.0747 49.979 35.518C49.979 35.154 49.9147 34.8543 49.797 34.5866C49.6685 34.319 49.4972 34.1156 49.2723 33.9657C49.0368 33.8265 48.7798 33.7516 48.4908 33.7516C48.0839 33.7516 47.7306 33.8907 47.4308 34.1691C47.1417 34.4474 46.9918 34.9185 46.9918 35.5715ZM46.3922 35.5715C46.3922 34.8435 46.5957 34.2762 46.9811 33.8693C47.3665 33.4625 47.8698 33.2484 48.4908 33.2484C48.8869 33.2484 49.2509 33.3448 49.5721 33.5375C49.8933 33.7302 50.1396 33.9978 50.3109 34.3511C50.4822 34.6937 50.5679 35.0791 50.5679 35.518C50.5679 35.9569 50.4822 36.353 50.3002 36.7063C50.1182 37.0489 49.8719 37.3165 49.54 37.4985C49.2188 37.6805 48.8655 37.7662 48.48 37.7662C48.0732 37.7662 47.7092 37.6698 47.3773 37.4664C47.0561 37.2737 46.8098 36.9954 46.6492 36.6528C46.4779 36.3102 46.3922 35.9462 46.3922 35.5715ZM42.1631 37.6912V33.3341H42.7627L45.0539 36.7491V33.3341H45.5999V37.6912H45.0111L42.7198 34.2654V37.6912H42.1631Z" fill="#12188D"></path>
<path fill-rule="evenodd" clip-rule="evenodd" d="M10.1606 29.6835H17.7838V30.7112H10.1606V29.6835Z" fill="#12188D"></path>
<path fill-rule="evenodd" clip-rule="evenodd" d="M157.816 31.2251C157.87 30.8932 157.913 30.5506 157.945 30.1973H154.112V31.2251H157.816Z" fill="#12188D"></path>
<path fill-rule="evenodd" clip-rule="evenodd" d="M157.485 32.6703C157.592 32.3492 157.678 31.9959 157.753 31.6319H155.708V32.6703H157.485Z" fill="#12188D"></path>
<path fill-rule="evenodd" clip-rule="evenodd" d="M7.14124 29.7263C7.84781 29.7263 8.41521 30.3258 8.41521 31.0538C8.41521 31.7818 7.84781 32.3813 7.14124 32.3813C6.43467 32.3813 5.85657 31.7818 5.85657 31.0538C5.85657 30.3258 6.43467 29.7263 7.14124 29.7263Z" fill="#12188D"></path>
<path fill-rule="evenodd" clip-rule="evenodd" d="M141.339 22.9496C141.821 22.9496 142.217 23.3458 142.217 23.8275C142.217 24.32 141.821 24.7161 141.339 24.7161C140.847 24.7161 140.451 24.32 140.451 23.8275C140.451 23.3458 140.847 22.9496 141.339 22.9496Z" fill="#12188D"></path>
<path fill-rule="evenodd" clip-rule="evenodd" d="M138.32 22.9496C138.802 22.9496 139.198 23.3458 139.198 23.8275C139.198 24.32 138.802 24.7161 138.32 24.7161C137.827 24.7161 137.431 24.32 137.431 23.8275C137.431 23.3458 137.827 22.9496 138.32 22.9496Z" fill="#12188D"></path>
<path fill-rule="evenodd" clip-rule="evenodd" d="M144.359 22.9496C144.84 22.9496 145.236 23.3458 145.236 23.8275C145.236 24.32 144.84 24.7161 144.359 24.7161C143.866 24.7161 143.47 24.32 143.47 23.8275C143.47 23.3458 143.866 22.9496 144.359 22.9496Z" fill="#12188D"></path>
<path fill-rule="evenodd" clip-rule="evenodd" d="M138.32 28.0562C138.802 28.0562 139.198 28.4523 139.198 28.9341C139.198 29.4265 138.802 29.8226 138.32 29.8226C137.827 29.8226 137.431 29.4265 137.431 28.9341C137.431 28.4523 137.827 28.0562 138.32 28.0562Z" fill="#12188D"></path>
<path fill-rule="evenodd" clip-rule="evenodd" d="M141.339 28.0562C141.821 28.0562 142.217 28.4523 142.217 28.9341C142.217 29.4265 141.821 29.8226 141.339 29.8226C140.847 29.8226 140.451 29.4265 140.451 28.9341C140.451 28.4523 140.847 28.0562 141.339 28.0562Z" fill="#12188D"></path>
<path fill-rule="evenodd" clip-rule="evenodd" d="M144.359 28.0562C144.84 28.0562 145.236 28.4523 145.236 28.9341C145.236 29.4265 144.84 29.8226 144.359 29.8226C143.866 29.8226 143.47 29.4265 143.47 28.9341C143.47 28.4523 143.866 28.0562 144.359 28.0562Z" fill="#12188D"></path>
<path fill-rule="evenodd" clip-rule="evenodd" d="M146.446 25.4976C146.928 25.4976 147.324 25.8937 147.324 26.3861C147.324 26.8679 146.928 27.264 146.446 27.264C145.954 27.264 145.558 26.8679 145.558 26.3861C145.558 25.8937 145.954 25.4976 146.446 25.4976Z" fill="#12188D"></path>
<path fill-rule="evenodd" clip-rule="evenodd" d="M143.887 25.4976C144.38 25.4976 144.776 25.8937 144.776 26.3861C144.776 26.8679 144.38 27.264 143.887 27.264C143.406 27.264 143.01 26.8679 143.01 26.3861C143.01 25.8937 143.406 25.4976 143.887 25.4976Z" fill="#12188D"></path>
<path fill-rule="evenodd" clip-rule="evenodd" d="M141.339 25.4976C141.821 25.4976 142.217 25.8937 142.217 26.3861C142.217 26.8679 141.821 27.264 141.339 27.264C140.847 27.264 140.451 26.8679 140.451 26.3861C140.451 25.8937 140.847 25.4976 141.339 25.4976Z" fill="#12188D"></path>
<path fill-rule="evenodd" clip-rule="evenodd" d="M138.78 25.4976C139.262 25.4976 139.658 25.8937 139.658 26.3861C139.658 26.8679 139.262 27.264 138.78 27.264C138.299 27.264 137.902 26.8679 137.902 26.3861C137.902 25.8937 138.299 25.4976 138.78 25.4976Z" fill="#12188D"></path>
<path fill-rule="evenodd" clip-rule="evenodd" d="M138.802 19.8236C139.294 19.8236 139.69 20.2197 139.69 20.7015C139.69 21.1939 139.294 21.59 138.802 21.59C138.32 21.59 137.924 21.1939 137.924 20.7015C137.924 20.2197 138.32 19.8236 138.802 19.8236Z" fill="#12188D"></path>
<path fill-rule="evenodd" clip-rule="evenodd" d="M135.14 19.8236C135.622 19.8236 136.018 20.2197 136.018 20.7015C136.018 21.1939 135.622 21.59 135.14 21.59C134.648 21.59 134.251 21.1939 134.251 20.7015C134.251 20.2197 134.648 19.8236 135.14 19.8236Z" fill="#12188D"></path>
<path fill-rule="evenodd" clip-rule="evenodd" d="M123.684 28.0027H135.558V29.1375H133.577V32.028H133.159V29.1375H128.438V32.028H128.031V29.1375H123.684V32.028H123.277V27.1569C123.277 26.6645 122.892 26.2577 122.41 26.2256V25.808C123.116 25.8509 123.684 26.4397 123.684 27.1569V28.0027Z" fill="#12188D"></path>
<path fill-rule="evenodd" clip-rule="evenodd" d="M136.221 25.4976C136.714 25.4976 137.11 25.8937 137.11 26.3861C137.11 26.8679 136.714 27.264 136.221 27.264C135.74 27.264 135.344 26.8679 135.344 26.3861C135.344 25.8937 135.74 25.4976 136.221 25.4976Z" fill="#12188D"></path>
<path fill-rule="evenodd" clip-rule="evenodd" d="M124.647 19.5667C126.756 19.8343 128.234 20.4552 128.234 21.1832C128.234 21.9112 126.756 22.5321 124.647 22.7997V19.5667Z" fill="#12188D"></path>
<path fill-rule="evenodd" clip-rule="evenodd" d="M11.7345 31.1287H16.1987V32.1565H11.7345V31.1287Z" fill="#12188D"></path>
<path fill-rule="evenodd" clip-rule="evenodd" d="M2.24841 44.4999H154.359C151.853 39.7038 151.564 36.8026 154.359 36.0104C156.81 35.3252 158.042 32.7559 157.999 28.5593H149.691C149.691 28.8162 149.669 29.0518 149.648 29.2766V27.6065H148.202V24.3734H146.939V22.1252H143.652L142.078 14.1817H137.142L135.365 18.8814H133.138L132.035 16.6333V11.516H135.258V9.07512H132.463V6.19531H130.279V13.1861L129.423 12.4046L129.08 12.0834V15.0917H130.279V16.462H129.883C129.219 16.462 128.673 17.008 128.673 17.6824V19.5773H128.588L127.046 12.0941L125.504 19.5773H125.054V24.3734H122.41V32.0279H25.5783L24.5505 17.843H25.5783V16.8581H24.5184V13.807H24.1008V16.8581H23.0408V17.5432L3.41544 27.8741H0C5.31053 34.5973 7.36622 40.4746 2.24841 44.4999ZM126.639 16.0445H127.453L127.046 14.0318L126.639 16.0445ZM127.538 16.4513H126.553L126.446 16.9758H127.645L127.538 16.4513ZM127.731 17.3827H126.361L126.254 17.8965H127.827L127.731 17.3827ZM127.913 18.314H126.179L126.082 18.7851H128.009L127.913 18.314ZM128.095 19.2026H125.997L125.911 19.5773H128.17L128.095 19.2026ZM134.851 11.0985V9.48193H132.474L131.81 10.5739V11.0985H134.851ZM139.765 16.6975C139.947 16.6975 140.097 16.8474 140.097 17.0294C140.097 17.2221 139.947 17.372 139.765 17.372C139.573 17.372 139.423 17.2221 139.423 17.0294C139.423 16.8474 139.573 16.6975 139.765 16.6975ZM139.091 17.9822C138.887 17.8965 138.705 17.7574 138.588 17.5968C138.459 17.4362 138.384 17.2328 138.384 17.0294C138.384 16.7189 138.545 16.4406 138.812 16.2479C139.059 16.0552 139.391 15.9481 139.765 15.9481C140.129 15.9481 140.461 16.0552 140.708 16.2479C140.975 16.4406 141.136 16.7189 141.136 17.0294C141.136 17.2328 141.061 17.4362 140.932 17.5968C140.815 17.7574 140.643 17.8965 140.429 17.9822L140.269 17.6182C140.408 17.5539 140.526 17.4576 140.611 17.3505C140.686 17.2542 140.729 17.1471 140.729 17.0294C140.729 16.8581 140.622 16.6975 140.461 16.569C140.29 16.4406 140.033 16.3549 139.765 16.3549C139.487 16.3549 139.241 16.4406 139.059 16.569C138.898 16.6975 138.791 16.8581 138.791 17.0294C138.791 17.1471 138.834 17.2542 138.909 17.3505C138.995 17.4576 139.112 17.5539 139.262 17.6182L139.091 17.9822ZM139.765 15.5413C140.29 15.5413 140.783 15.7019 141.125 15.9695C141.489 16.2372 141.714 16.6119 141.714 17.0294C141.714 17.4469 141.489 17.8216 141.125 18.0999C140.783 18.3676 140.29 18.5282 139.765 18.5282C139.23 18.5282 138.748 18.3676 138.395 18.0999C138.031 17.8216 137.806 17.4469 137.806 17.0294C137.806 16.6119 138.031 16.2372 138.395 15.9695C138.748 15.7019 139.23 15.5413 139.765 15.5413ZM139.765 15.7126C139.273 15.7126 138.823 15.8625 138.502 16.1087C138.181 16.3442 137.988 16.6761 137.988 17.0294C137.988 17.3934 138.181 17.7145 138.502 17.9608C138.823 18.1963 139.273 18.3569 139.765 18.3569C140.258 18.3569 140.697 18.1963 141.029 17.9608C141.339 17.7145 141.532 17.3934 141.532 17.0294C141.532 16.6761 141.339 16.3442 141.029 16.1087C140.697 15.8625 140.258 15.7126 139.765 15.7126ZM130.279 16.8795H129.883C129.444 16.8795 129.08 17.2328 129.08 17.6824V19.5773H130.204L130.279 19.4595V16.8795ZM130.279 13.7428L129.487 13.0148V14.6848H130.279V13.7428ZM132.057 8.95736H130.686V19.0741H132.774L131.65 16.7724L131.628 16.6761V11.5695H131.35V10.4454L132.057 9.27852V8.95736ZM130.686 8.55054H132.057V6.61283H130.686V8.55054ZM23.2229 31.9423C23.2229 31.9423 23.2229 31.9423 23.2121 31.9423H23.2014C23.2014 31.9316 23.1907 31.9316 23.1907 31.9316C23.1907 31.9316 23.1907 31.9316 23.18 31.9316M151.907 38.7617L151.928 38.1943L151.96 37.916L152.025 37.6591L152.1 37.4128L152.196 37.1666L152.314 36.9418L152.453 36.7277L152.613 36.5243L152.785 36.3423L152.988 36.171L153.202 36.0104L153.438 35.8819L153.684 35.7535L153.952 35.6571L154.434 35.5072C154.701 35.4109 154.937 35.2931 155.172 35.1539C155.344 35.0469 155.504 34.9291 155.665 34.8007C155.815 34.6615 155.954 34.5116 156.093 34.351C156.232 34.1797 156.35 33.9977 156.468 33.8158C156.586 33.6016 156.693 33.3982 156.8 33.1734C156.896 32.9379 156.982 32.6917 157.067 32.4454C157.142 32.1671 157.217 31.8994 157.282 31.6211C157.357 31.2036 157.421 30.7861 157.464 30.3685C157.506 29.9189 157.528 29.48 157.539 29.0303H150.14L150.097 29.4479L150.022 29.8547L149.926 30.2294L149.787 30.5934L149.616 30.9252L149.412 31.225L149.166 31.5033L148.898 31.7389L148.598 31.9423L148.267 32.1136L147.902 32.2527L147.517 32.3598L147.11 32.4347L146.682 32.4776L146.232 32.4883H24.7646L24.1115 32.4776L23.4798 32.4347L22.8909 32.3598L22.3449 32.2527L21.8203 32.1136L21.3278 31.9423L20.8781 31.7175L20.4605 31.4605L20.0751 31.1608L19.7325 30.8289L19.422 30.4435L19.1543 30.026L18.9188 29.5656L18.726 29.0732L18.5654 28.5379L18.5119 28.3345H0.952897C1.38117 28.9126 1.80943 29.5014 2.21629 30.0902L3.01929 31.3106L3.72594 32.5097L4.03643 33.1092L4.32551 33.698L4.59318 34.2761L4.82873 34.8542L5.04286 35.4323L5.22487 35.989L5.37477 36.5564L5.49254 37.1131L5.5889 37.6591L5.64244 38.205L5.66385 38.6119H151.907V38.7617ZM146.222 32.0279C146.243 32.0279 146.264 32.0279 146.286 32.0279C146.296 32.0279 146.296 32.0279 146.296 32.0279C146.382 32.0279 146.457 32.0279 146.521 32.0172C146.532 32.0172 146.532 32.0172 146.532 32.0172C146.543 32.0172 146.553 32.0172 146.564 32.0172C146.575 32.0172 146.596 32.0172 146.607 32.0172C146.618 32.0172 146.618 32.0172 146.628 32.0172C146.628 32.0172 146.639 32.0172 146.65 32.0172C146.671 32.0172 146.693 32.0065 146.725 32.0065C146.735 32.0065 146.746 32.0065 146.757 32.0065C146.778 32.0065 146.8 32.0065 146.821 31.9958C146.832 31.9958 146.832 31.9958 146.832 31.9958C146.832 31.9958 146.832 31.9958 146.843 31.9958H146.864C146.875 31.9958 146.875 31.9958 146.885 31.9958C146.896 31.9958 146.896 31.9958 146.907 31.9958C146.917 31.9851 146.939 31.9851 146.95 31.9851C146.96 31.9851 146.971 31.9851 146.982 31.9851C147.003 31.9851 147.025 31.9744 147.046 31.9744C147.057 31.9744 147.067 31.9744 147.067 31.9744C147.089 31.9637 147.1 31.9637 147.121 31.9637H147.132C147.153 31.9637 147.164 31.953 147.185 31.953C147.185 31.953 147.185 31.953 147.196 31.953C147.207 31.953 147.228 31.9423 147.249 31.9423C147.249 31.9423 147.249 31.9423 147.26 31.9423C147.271 31.9423 147.292 31.9316 147.303 31.9316C147.56 31.878 147.785 31.8138 147.999 31.7282C148.01 31.7175 148.031 31.7067 148.042 31.7067C148.052 31.7067 148.052 31.7067 148.052 31.7067C148.063 31.696 148.074 31.6853 148.095 31.6853C148.748 31.3856 149.198 30.8931 149.444 30.1973V27.8206H147.999V24.5768H146.735V22.3286H134.755H140.311V19.0956H130.74L130.322 19.7807H125.258V24.5768H122.613V32.0279H146.222ZM25.1715 32.0279H24.7753C24.2507 32.0279 23.7689 32.0065 23.3192 31.953C23.362 31.953 23.4049 31.9637 23.4584 31.9637L24.3042 20.2089L25.1715 32.0279ZM23.18 31.9316C23.1372 31.9316 23.0944 31.9209 23.0515 31.9102L24.0687 17.843H23.3513L4.29339 27.8741H18.8866C19.3791 30.39 20.6961 31.6104 23.18 31.9316Z" fill="#12188D"></path>
</svg>