<svg width="124" height="111" viewBox="0 0 124 111" fill="none" xmlns="http://www.w3.org/2000/svg">
<path d="M43.9107 0.290011L42.1615 0.532369L40.5096 3.63455C39.6107 5.3553 38.8333 6.76097 38.7604 6.76097C38.6875 6.76097 37.4728 5.84001 36.0881 4.70093C34.2904 3.24678 33.3915 2.66512 33.0514 2.73783C32.7841 2.81054 31.9824 2.93171 31.3022 3.02866C30.3062 3.14984 30.0146 3.29525 30.0146 3.61032C30.0146 4.1435 32.6141 16.6977 32.7598 16.8431C32.857 16.94 36.0395 16.3341 36.2096 16.1887C36.2582 16.1402 35.9909 14.371 35.6022 12.2625C35.2378 10.1782 35.0192 8.45748 35.1163 8.45748C35.2378 8.45748 36.3067 9.2815 37.5214 10.2752L39.7079 12.0929L41.1898 9.30573C42.0158 7.77888 42.7203 6.51861 42.7446 6.51861C42.7932 6.51861 43.1819 8.26359 43.6192 10.4206L44.4452 14.3225L45.4898 14.1529C46.0485 14.0802 46.9474 13.8621 47.4576 13.7166L48.3808 13.4258L47.1661 6.68827C46.4858 3.00442 45.8785 -0.000818336 45.8056 -0.000818336C45.7327 0.0234175 44.8824 0.144597 43.9107 0.290011Z" fill="#DC3519"/>
<path d="M80.2054 0.678319C80.1325 1.01762 80.011 1.69622 79.9138 2.20517L79.7681 3.07766L81.2014 3.36849C83.6308 3.85321 84.4568 4.0471 84.5296 4.14404C84.5782 4.16828 84.2867 5.79207 83.898 7.73094C83.5336 9.6698 83.072 12.0207 82.8777 12.9659L82.5619 14.7109L84.6025 15.1229C85.7443 15.341 86.7161 15.4864 86.7647 15.4379C86.8133 15.3895 87.2991 13.0628 87.8336 10.2757C88.3681 7.48858 88.8782 5.16194 88.9511 5.08924C89.024 5.01653 90.1658 5.18618 91.4777 5.45277L93.8828 5.96173L94.15 4.77417C94.6116 2.59295 94.8059 2.7626 90.8217 2.03552C88.8296 1.67199 85.6715 1.06609 83.7765 0.702555L80.3268 0.0481881L80.2054 0.678319Z" fill="#DC3519"/>
<path d="M60.3573 3.41671C56.9561 4.60426 54.0409 7.75492 52.9963 11.3418C52.0731 14.4682 52.8748 17.837 55.0612 20.2121L56.0087 21.23L53.0205 21.5209C39.8047 22.8296 27.0262 27.0224 17.916 33.0329C10.0205 38.2436 4.99173 44.5449 3.1454 51.4763C2.51376 53.9484 2.53806 59.0379 3.24258 61.5826C5.98777 71.592 14.6849 79.7595 28.5567 85.358C35.0917 87.9997 42.9872 89.987 50.5426 90.8595C53.3849 91.1988 55.6686 91.9016 57.5878 93.065C59.0454 93.9375 61.572 96.2399 62.6166 97.6213L63.2482 98.4453L63.6126 97.7182C64.5844 95.8521 67.8398 93.3316 71.2166 91.8774C72.5527 91.2715 73.6217 91.0534 76.294 90.7383C100.758 87.9027 119.075 76.7058 123.108 62.0916C123.837 59.4741 123.886 53.7302 123.205 51.234C121.918 46.4837 119.683 42.8484 115.431 38.6071C112.346 35.5534 109.917 33.6872 105.957 31.3606C97.1381 26.1984 84.9669 22.5872 72.3341 21.4239L70.5364 21.2543L71.2652 20.4787C73.0143 18.6126 73.7431 16.6495 73.7431 13.7896C73.7431 10.9783 72.6013 8.50623 70.1963 6.08265C67.3053 3.19859 63.7584 2.22916 60.3573 3.41671ZM65.5076 9.25754C68.8115 11.0025 68.7872 15.8497 65.4833 17.6189C64.0985 18.346 61.742 18.2975 60.6974 17.5219C58.8996 16.1647 58.1465 14.3471 58.5352 12.2628C58.7296 11.2691 60.2115 9.47567 61.2076 9.03942C62.4222 8.53047 64.2929 8.62741 65.5076 9.25754ZM44.2991 26.2468C37.8855 28.4523 32.2494 31.6757 28.6296 35.2383L26.6132 37.2014L24.9855 36.3289C23.0906 35.3353 21.2686 34.1477 21.2686 33.9296C21.2686 33.6872 25.7629 31.3848 28.5567 30.1973C33.2697 28.2099 38.5172 26.6346 43.6188 25.6652C47.4087 24.9381 47.603 25.132 44.2991 26.2468ZM82.6833 25.544C89.3155 26.7073 99.4703 30.4154 104.45 33.4933L105.422 34.0992L103.6 35.2626C102.604 35.9169 101.341 36.6682 100.782 36.9106L99.7618 37.3711L98.2313 35.9412C93.8827 31.8938 87.8335 28.2827 81.8087 26.1257C78.942 25.1078 79.2092 24.9381 82.6833 25.544ZM48.4776 27.701C48.4776 28.0888 48.1618 28.4765 47.4816 28.9613C45.0036 30.6578 41.7482 34.9475 39.5861 39.2857C38.9301 40.5944 38.2742 41.6608 38.1285 41.6608C37.7155 41.6608 32.3708 39.7947 30.5731 39.0434C29.7228 38.6798 29.0912 38.2678 29.1155 38.1466C29.2612 37.6861 33.3183 34.3416 35.4804 32.8875C38.2499 31.0455 42.2827 29.0824 45.5624 27.9918C46.9714 27.5071 48.1861 27.1193 48.3075 27.1193C48.4047 27.1193 48.4776 27.3859 48.4776 27.701ZM83.6793 29.2036C88.0279 31.0455 92.4494 33.8811 95.729 36.9106L97.4296 38.4617L95.9963 39.1161C94.2957 39.8674 88.4166 41.9032 87.9307 41.9032C87.7364 41.9032 87.5906 41.7578 87.5906 41.5881C87.5906 41.0064 85.4528 36.8621 84.1652 34.9475C83.485 33.9054 81.833 31.9907 80.5211 30.7062C78.7963 29.0097 78.116 28.1615 78.116 27.7495V27.1678L79.6222 27.6283C80.4482 27.8949 82.2703 28.5977 83.6793 29.2036ZM60.3816 30.8032C60.3816 31.3606 59.3855 43.4543 59.264 44.254C59.1426 45.0538 59.1183 45.0538 57.8064 45.0538C53.6036 45.0538 40.6793 43.0665 40.7036 42.4364C40.7279 42.0728 43.3759 37.2499 44.4934 35.5776C45.1494 34.584 46.4126 33.0571 47.3115 32.1604L48.9392 30.5123H54.6725C59.0697 30.5123 60.3816 30.5851 60.3816 30.8032ZM78.8934 32.1361C79.8166 33.0571 81.177 34.6567 81.8816 35.723C83.0963 37.565 85.4042 41.9032 85.4042 42.3394C85.4042 42.5575 79.4765 43.8905 76.6584 44.3025C74.3262 44.6661 70.4392 45.0296 68.6414 45.1023L67.0624 45.1508L66.6494 38.8495C66.4307 35.408 66.2364 32.1119 66.2364 31.5303L66.2121 30.5123H71.7025H77.1929L78.8934 32.1361ZM19.981 35.7473C20.4426 36.0866 21.803 36.9591 22.9934 37.6619L25.1556 38.9464L24.5968 39.625C21.4386 43.4543 19.3008 48.4953 18.9364 53.0759L18.7663 54.9905H11.964H5.18608L5.35614 53.6091C5.91489 49.1012 8.44145 44.5206 12.6686 40.4006C14.4663 38.6313 18.7177 35.1171 19.0578 35.1171C19.1064 35.1171 19.5437 35.408 19.981 35.7473ZM109.261 36.4986C113.342 39.5523 117.156 43.939 118.93 47.5744C119.95 49.6586 120.873 52.8093 120.873 54.1907V54.9905H114.217H107.584L107.439 53.2213C107.123 49.5132 105.252 44.6903 102.75 41.1276C102.021 40.0613 101.438 39.1645 101.487 39.1403C101.535 39.0918 102.604 38.4617 103.867 37.7346C105.131 36.9833 106.443 36.1593 106.783 35.8685C107.123 35.6019 107.463 35.3837 107.56 35.3595C107.633 35.3595 108.41 35.8685 109.261 36.4986ZM30.5002 41.3942C32.0307 42.0728 34.2657 42.9211 35.4318 43.2846C37.4968 43.9147 37.5697 43.9632 37.4239 44.5691C36.8895 46.6049 36.3064 49.9979 36.185 51.8156C36.1121 52.9547 36.0149 54.1423 35.942 54.4331L35.8448 54.9905H28.2652H20.7098L20.8799 53.2698C21.0742 51.0158 22.2646 47.4774 23.6008 45.1508C24.9369 42.7999 27.1234 39.9158 27.4635 40.0613C27.585 40.1097 28.9697 40.7156 30.5002 41.3942ZM100.806 42.2425C103.236 45.8778 105.009 50.2403 105.471 53.803L105.641 54.9905H98.0855H90.5302L90.4087 54.1907C90.3601 53.7787 90.19 52.373 90.0443 51.1128C89.8256 49.1739 89.3883 47.0654 88.6838 44.6903C88.5624 44.254 88.8539 44.0844 91.6477 43.1634C93.3482 42.5818 95.6804 41.7093 96.8222 41.2003C97.9641 40.6671 99.0087 40.2551 99.1787 40.2309C99.3245 40.2067 100.078 41.1276 100.806 42.2425ZM42.5742 45.1992C46.4126 46.096 51.5143 46.92 55.4742 47.2593L58.9239 47.5501V49.2709C58.9239 50.2161 58.8511 51.8883 58.7539 52.9789L58.6081 54.9905H48.4047H38.2013L38.3714 52.5669C38.5657 49.6344 39.5132 44.5691 39.8776 44.5691C39.9019 44.5691 41.1166 44.8599 42.5742 45.1992ZM86.9347 45.8294C87.5177 47.7925 87.8092 49.7798 87.8821 52.4458L87.955 54.8693H77.8731H67.7912L67.5239 51.3551C67.3782 49.4163 67.3296 47.7682 67.4025 47.6955C67.4753 47.6228 69.2245 47.4289 71.2652 47.2593C75.5166 46.92 79.7194 46.2656 83.5821 45.2962C85.0641 44.9327 86.3273 44.6176 86.4002 44.5933C86.4731 44.5691 86.716 45.1508 86.9347 45.8294ZM36.1364 60.08C36.2092 61.4857 36.5737 63.8123 36.9138 65.2665C37.2782 66.7206 37.5211 67.9567 37.4725 68.0051C37.4239 68.0536 33.6584 65.7754 29.0912 62.9399L20.807 57.7776L27.0505 57.6564C30.4759 57.5837 33.9013 57.511 34.6301 57.5353H35.9663L36.1364 60.08ZM18.3533 67.2296V76.8027L17.333 76.0514C12.6929 72.7311 8.80585 68.2717 7.03241 64.2971C6.42506 62.9399 5.64766 60.2497 5.35614 58.5532L5.21037 57.6564H11.794H18.3533V67.2296ZM58.5838 60.2497C58.4866 61.7038 58.3652 63.3276 58.2923 63.8608L58.1708 64.8545L55.9358 65.0241C51.077 65.3877 45.1008 66.2844 41.3352 67.2538C40.5578 67.4477 39.9019 67.5931 39.8533 67.5447C39.829 67.4962 39.6347 66.9145 39.416 66.2602C38.8816 64.5879 38.59 62.7944 38.3714 60.0073L38.2013 57.6564H48.4776H58.7296L58.5838 60.2497ZM87.7364 60.177C87.5663 62.5278 86.8132 66.9872 86.5217 67.2781C86.4488 67.3508 85.3799 67.1811 84.1409 66.8903C79.5494 65.8482 75.1279 65.1695 70.4149 64.806L68.3985 64.6364L68.3742 63.4973C68.3499 62.8914 68.277 61.3161 68.1799 60.0073L68.0341 57.6564H77.9703H87.9064L87.7364 60.177ZM105.155 57.923C104.888 58.1896 88.9511 68.0294 88.8782 67.9809C88.8539 67.9567 89.0968 66.6479 89.4126 65.0726C89.7285 63.4973 90.0686 61.4372 90.1414 60.4678C90.2143 59.5226 90.3358 58.5047 90.4087 58.1896L90.5059 57.6564H97.9641C103.26 57.6564 105.349 57.7292 105.155 57.923ZM120.873 58.0442C120.873 58.8682 120.047 61.9462 119.391 63.5215C117.569 67.9567 113.731 72.4888 108.799 76.0999L107.754 76.8512V67.2538V57.6564H114.314C120.071 57.6564 120.873 57.7049 120.873 58.0442ZM57.3448 68.1263C56.3974 72.2464 55.5471 74.1126 53.9194 75.5909C52.559 76.8512 51.2714 77.4571 48.6234 78.1357L46.4126 78.6931L45.4895 77.8206C44.2505 76.6331 42.6228 73.9671 41.6996 71.6647C41.2866 70.6468 40.9465 69.7016 40.9465 69.5805C40.9465 69.1685 47.1414 67.9082 51.7573 67.375C55.207 66.963 55.3285 66.9388 56.5189 66.8903L57.6364 66.8661L57.3448 68.1263ZM72.7957 67.3508C77.703 67.8597 85.0155 69.0958 85.4528 69.5078C85.6714 69.7016 83.8251 73.6036 82.5861 75.5425C81.1285 77.8449 80.3753 78.4992 79.185 78.4992C77.7759 78.4992 75.4437 77.7479 74.0104 76.827C71.5081 75.2032 69.8561 72.8038 69.3703 69.9925C69.2245 69.1442 69.0544 68.1506 68.9816 67.7628C68.8115 66.9872 68.9087 66.963 72.7957 67.3508ZM39.5132 72.6584C40.5578 75.082 40.8979 75.6879 41.9912 77.1178C42.3799 77.6268 42.6714 78.0872 42.5985 78.1357C42.4285 78.3054 38.9301 77.0209 37.2296 76.1726C35.6991 75.4213 33.6584 74.0883 32.2008 72.9492L31.5934 72.4645L32.3222 72.1737C33.5369 71.689 38.1285 70.2833 38.3471 70.3318C38.4443 70.356 38.9787 71.4224 39.5132 72.6584ZM91.6477 71.3739C92.9595 71.8586 94.1256 72.3191 94.2228 72.4403C94.7573 72.925 86.4245 77.6752 84.2138 78.1357C83.2906 78.3296 83.2663 78.4023 84.6753 76.415C85.1369 75.7364 86.0601 74.0641 86.7403 72.7069C88.1494 69.8228 87.7607 69.9198 91.6477 71.3739ZM31.3505 80.22C33.8285 82.0377 36.7194 83.8796 39.1002 85.1641C40.242 85.7942 41.1895 86.3274 41.1895 86.3759C41.1895 86.4971 36.9381 85.358 34.7516 84.6309C31.5934 83.5888 27.1962 81.7226 23.868 80.0019C21.39 78.7174 20.8313 78.3538 21.0742 78.1115C21.2443 77.9418 22.3861 77.1905 23.5765 76.4634L25.7629 75.1547L27.7064 77.0693C28.7753 78.1115 30.4273 79.5414 31.3505 80.22ZM103.576 76.9966C105.009 77.9418 105.495 78.4023 105.276 78.5477C104.621 79.0082 99.2516 81.6499 97.7697 82.2558C93.8584 83.8554 86.4731 86.2547 85.4285 86.2547C85.2341 86.2547 85.9629 85.8185 87.0804 85.2853C90.8217 83.4918 93.7126 81.4075 98.0855 77.4086C100.904 74.8154 100.345 74.8639 103.576 76.9966Z" fill="#1C1A4C"/>
<path d="M107.171 14.5402C105.277 17.9575 103.892 20.6961 104.013 20.8173C104.135 20.9142 104.961 21.3989 105.835 21.8837L107.463 22.7804L109.965 18.0302C111.35 15.4369 112.589 13.3042 112.735 13.3284C113.172 13.3527 118.322 16.4064 118.274 16.6245C118.249 16.7214 117.132 18.83 115.771 21.2778C114.435 23.7256 113.366 25.7856 113.439 25.8583C113.512 25.9068 114.265 26.3915 115.091 26.9005C116.476 27.7487 116.622 27.7972 116.84 27.4094C116.962 27.1913 118.541 24.4527 120.314 21.3262C122.914 16.7941 123.497 15.5824 123.254 15.3642C122.865 15.0007 110.937 8.45703 110.718 8.45703C110.621 8.48126 109.042 11.1957 107.171 14.5402Z" fill="#DC3519"/>
<path d="M10.2879 11.148L8.66024 12.1417L9.21899 13.0141C9.53481 13.5231 10.1179 14.4441 10.5552 15.0984C10.9681 15.777 11.3083 16.3829 11.3083 16.4799C11.3083 16.6495 7.00826 19.5093 6.37662 19.7517C6.15798 19.8244 5.81786 19.5578 5.45346 18.9519C5.13764 18.443 4.53029 17.4493 4.093 16.7707L3.26702 15.4862L1.56645 16.6253C0.424643 17.3766 -0.0855265 17.8613 0.0116486 18.1037C0.303174 18.855 7.05685 29.5187 7.2512 29.543C7.51843 29.543 10.3122 27.8465 10.4823 27.5799C10.5309 27.4829 9.9721 26.4408 9.24329 25.2775C8.51447 24.1141 7.90713 23.072 7.90713 22.9508C7.90713 22.8054 10.9681 20.7211 12.9116 19.5336C13.0817 19.4366 13.7376 20.2607 14.6122 21.6663C15.4139 22.9266 16.1427 23.9687 16.2642 23.9687C16.58 23.9687 19.5681 22.0056 19.5681 21.8117C19.5439 21.5209 12.4015 10.324 12.1585 10.227C12.0128 10.2028 11.1868 10.6148 10.2879 11.148Z" fill="#DC3519"/>
<path d="M7.25138 82.2072C6.88697 82.6676 0.133301 93.9373 0.133301 94.0827C0.133301 94.2524 3.21861 96.1912 3.48584 96.1912C3.60731 96.1912 4.57906 94.7128 5.6237 92.9194C6.66833 91.1259 7.59149 89.6475 7.66437 89.6475C7.76155 89.6475 8.24743 91.6349 8.7333 94.0585C10.0938 100.699 9.87511 100.166 11.5757 101.16C12.3774 101.62 13.1305 102.008 13.2277 102.008C13.3491 102.008 15.0011 99.4146 16.9203 96.2639C18.8395 93.1133 20.4915 90.3989 20.5887 90.2534C20.7344 90.0111 17.6734 87.951 17.1632 87.951C17.0418 87.951 16.0943 89.4294 15.0497 91.2229C14.0051 93.0163 13.1062 94.4947 13.0333 94.4947C12.9361 94.4947 12.4017 92.2165 11.8186 89.4052C11.2356 86.6181 10.6768 84.243 10.6039 84.146C10.4582 83.9521 8.32031 82.3768 7.76155 82.0617C7.59149 81.9648 7.37285 82.0375 7.25138 82.2072Z" fill="#DC3519"/>
<path d="M117.278 83.1041C116.84 83.201 115.796 83.71 114.97 84.2189C112.225 85.8912 109.455 87.7331 109.455 87.8785C109.455 87.9513 111.156 90.7141 113.221 94.0344L117.01 100.045L118.808 98.9543C120.873 97.694 120.873 98.0576 119.003 95.1493C118.419 94.2283 117.958 93.3801 118.006 93.2589C118.055 93.162 118.784 92.5803 119.634 92.0229C120.484 91.4412 121.529 90.5687 121.942 90.0598C122.598 89.2358 122.695 88.9449 122.695 87.5877C122.695 86.279 122.598 85.9154 121.966 85.0187C120.8 83.3707 119.148 82.6921 117.278 83.1041ZM118.298 87.2727C118.93 88.1694 118.76 88.8237 117.666 89.7447C117.108 90.2294 116.549 90.6172 116.403 90.6172C116.136 90.6172 114.435 87.9997 114.605 87.8301C114.63 87.8058 115.067 87.5392 115.529 87.2484C116.67 86.5698 117.812 86.5698 118.298 87.2727Z" fill="#DC3519"/>
<path d="M82.2463 96.58C80.7886 96.9678 79.574 97.6949 79.0881 98.4462C78.6508 99.1733 78.505 101.33 78.8451 102.348C79.2338 103.536 80.4485 104.311 83.0966 105.038C86.0118 105.838 86.6192 106.444 85.696 107.583C85.3316 108.044 85.0158 108.141 83.8982 108.116C83.1694 108.116 82.0033 107.947 81.3474 107.753L80.1084 107.389L80.2299 108.868C80.3028 109.692 80.4485 110.467 80.57 110.613C80.983 111.025 85.2101 111.073 86.6677 110.637C89.17 109.91 90.4333 108.262 90.1903 105.984C89.9474 103.705 89.17 103.051 85.696 102.106C83.5824 101.548 82.7321 101.015 82.7321 100.288C82.7321 99.1733 84.9429 98.7613 87.2022 99.4399L88.344 99.7792L88.174 98.3008C88.0768 97.4768 87.9796 96.7497 87.931 96.7012C87.761 96.5073 85.7203 96.2165 84.6756 96.2165C84.0683 96.2165 82.9751 96.3861 82.2463 96.58Z" fill="#DC3519"/>
<path d="M45.0767 97.8637C43.279 98.4939 41.627 100.239 41.0925 102.008C40.2908 104.674 40.801 107.607 42.3315 109.303C43.7891 110.927 44.0321 110.975 49.0366 110.975C54.0897 110.975 53.8225 111.096 53.8225 108.964C53.8225 108.115 53.7739 108.043 53.288 108.212C49.1095 109.545 45.684 108.479 45.0524 105.643C44.6151 103.753 45.4654 102.178 47.4332 101.184C49.1095 100.36 52.2677 100.917 53.7496 102.299C54.0654 102.59 54.3569 102.759 54.4055 102.711C54.4784 102.662 54.5999 101.79 54.697 100.772L54.8428 98.9301L53.0694 98.2515C50.64 97.3305 47.0688 97.1609 45.0767 97.8637Z" fill="#DC3519"/>
</svg>
