<?xml version="1.0" encoding="UTF-8"?>
<svg width="138" height="48" viewBox="0 0 138 48" fill="none" xmlns="http://www.w3.org/2000/svg">
    <path d="M19.8018 0.876689V13.15H7.90881V0.876689H0.703125V32.8037H7.90881V19.4408H19.8018V32.8037H26.9972V0.876689H19.8018Z" fill="#004687"></path>
    <path d="M36.6798 0.825249L41.326 12.3379C42.2203 14.5685 42.837 16.5112 43.5977 18.454H43.7416C44.1219 17.0766 44.6873 14.9488 45.4479 12.194L48.9223 0.825249H56.5494L50.5361 16.6037C48.5934 21.5274 46.6506 26.3689 44.235 29.2985C43.264 30.6312 41.9866 31.7108 40.5106 32.4461C39.0347 33.1814 37.4035 33.5509 35.7547 33.5232C34.5472 33.5652 33.3422 33.3875 32.1981 32.999L32.7224 27.2118C33.4983 27.384 34.2919 27.4634 35.0866 27.4482C36.0197 27.4387 36.9296 27.1562 37.7041 26.6356C38.4786 26.115 39.0837 25.3791 39.4449 24.5187C39.5458 24.2676 39.5863 23.9963 39.5631 23.7267C39.5399 23.4571 39.4536 23.1967 39.3113 22.9665L28.549 0.825249H36.6798Z" fill="#004687"></path>
    <path d="M66.1194 6.94137H57.4952V0.876673H82.0315V6.94137H73.3148V32.8037H66.1194V6.94137Z" fill="#004687"></path>
    <path d="M86.5753 13.8078H100.267C99.7943 9.54197 96.803 6.18069 91.499 6.18069C89.263 6.21932 87.0548 6.68329 84.9923 7.54782L83.5429 2.15127C86.2383 0.988382 89.1392 0.376752 92.0746 0.352417C103.258 0.352417 108.038 8.02066 108.038 16.8916C108.038 27.6435 100.74 33.3382 91.3551 33.3382C88.5416 33.3652 85.7494 32.8486 83.1318 31.8169L84.4167 26.2764C86.4444 27.0369 88.5932 27.4235 90.7589 27.4174C96.2068 27.4174 99.6709 24.0972 100.185 19.4613H86.5753V13.8078Z" fill="#004687"></path>
    <path d="M137.446 0.876673V32.8037H130.251V6.79746H118.882V32.8037H111.677V0.876673H137.446Z" fill="#004687"></path>
    <path d="M2.23472 43.6379L4.49613 40.8728H6.36693L3.68408 44.008L6.57252 47.5029H4.6092L2.23472 44.5631V47.5029H0.703125V40.8728H2.23472V43.6379Z" fill="#004687"></path>
    <path d="M12.9043 41.6849C13.2364 42.0117 13.4987 42.4025 13.6754 42.8336C13.8521 43.2647 13.9394 43.7272 13.9322 44.193C13.9389 44.6542 13.8511 45.1119 13.6743 45.5379C13.4975 45.964 13.2355 46.3493 12.9043 46.6703C12.5632 46.9933 12.1612 47.2451 11.7218 47.411C11.2823 47.5769 10.8142 47.6536 10.3448 47.6366C9.87162 47.6515 9.40017 47.573 8.95743 47.4054C8.51469 47.2378 8.10937 46.9845 7.76471 46.66C7.43602 46.3414 7.17544 45.9594 6.99875 45.5371C6.82206 45.1148 6.73294 44.6611 6.73679 44.2033C6.74832 43.264 7.11566 42.364 7.76471 41.6849C8.10756 41.3548 8.51405 41.098 8.95939 40.9301C9.40474 40.7622 9.87961 40.6868 10.3551 40.7084C10.8245 40.6914 11.2926 40.7681 11.732 40.934C12.1715 41.0999 12.5735 41.3517 12.9146 41.6747L12.9043 41.6849ZM8.92625 42.7026C8.73258 42.9004 8.58085 43.1353 8.48016 43.3932C8.37948 43.651 8.33192 43.9266 8.34034 44.2033C8.32712 44.4768 8.37125 44.75 8.46988 45.0054C8.56852 45.2608 8.71949 45.4928 8.91309 45.6864C9.1067 45.88 9.33865 46.031 9.59406 46.1296C9.84948 46.2282 10.1227 46.2724 10.3962 46.2592C10.67 46.274 10.944 46.231 11.2001 46.1329C11.4563 46.0348 11.6889 45.8839 11.8828 45.69C12.0768 45.496 12.2277 45.2634 12.3258 45.0073C12.4238 44.7511 12.4668 44.4772 12.452 44.2033C12.4604 43.929 12.4138 43.6559 12.3149 43.3999C12.216 43.1439 12.0669 42.9103 11.8764 42.7128C11.4809 42.342 10.9588 42.1361 10.4167 42.1372C10.1432 42.1275 9.87041 42.1725 9.61446 42.2695C9.35852 42.3666 9.12454 42.5138 8.92625 42.7026Z" fill="#004687"></path>
    <path d="M16.6974 43.3912H19.3495V40.8728H20.8708V47.5029H19.3495V44.6864H16.6974V47.5029H15.1761V40.8728H16.6974V43.3912Z" fill="#004687"></path>
    <path d="M24.7462 42.1577V47.5029H23.2146V42.1577H21.7652V40.8728H26.1853V42.1577H24.7462Z" fill="#004687"></path>
    <path d="M30.8209 42.1577H28.6109V43.4426H30.7078V44.7378H28.6109V46.2077H30.8209V47.5029H27.0793V40.8728H30.8209V42.1577Z" fill="#004687"></path>
    <path d="M33.689 40.8726V45.2001L36.7727 40.7904H38.1193V47.5027H36.5774V43.1546L33.4937 47.5746H32.1574V40.8726H33.689ZM37.1119 39.1354C36.9507 39.5011 36.6863 39.8119 36.3513 40.0297C35.9711 40.2121 35.5548 40.3067 35.1332 40.3067C34.7115 40.3067 34.2953 40.2121 33.9151 40.0297C33.5805 39.8141 33.319 39.5024 33.1647 39.1354L34.1926 38.6832C34.264 38.8672 34.3766 39.0324 34.5216 39.1663C34.7041 39.2773 34.9144 39.3343 35.128 39.3307C35.3355 39.3363 35.5397 39.279 35.714 39.1663C35.8643 39.0391 35.9748 38.8714 36.0326 38.6832L37.1119 39.1354Z" fill="#004687"></path>
    <path d="M41.1824 43.3912H43.8242V40.8728H45.3557V47.5029H43.8242V44.6864H41.1824V47.5029H39.6508V40.8728H41.1824V43.3912Z" fill="#004687"></path>
    <path d="M50.6392 42.1577H48.4189V43.4426H50.5261V44.7378H48.4189V46.2077H50.6392V47.5029H46.8976V40.8728H50.6392V42.1577Z" fill="#004687"></path>
    <path d="M54.3091 40.8728C54.9361 40.8293 55.5564 41.0239 56.0463 41.4176C56.2656 41.6229 56.4372 41.8738 56.5491 42.1526C56.661 42.4314 56.7104 42.7314 56.6939 43.0314C56.7094 43.5925 56.5067 44.1379 56.1285 44.5527C55.9004 44.7604 55.6324 44.9195 55.3408 45.0202C55.0492 45.1209 54.7401 45.1612 54.4325 45.1386H53.5073V47.4617H51.9757V40.8728H54.3091ZM53.5073 43.9565H54.0521C54.3487 43.9763 54.642 43.8847 54.8745 43.6995C54.9566 43.6134 55.0207 43.5118 55.0631 43.4006C55.1054 43.2894 55.1252 43.1709 55.1212 43.0519C55.1276 42.9327 55.109 42.8135 55.0665 42.702C55.024 42.5904 54.9586 42.489 54.8745 42.4044C54.632 42.2163 54.3267 42.128 54.0213 42.1577H53.5073V43.9565Z" fill="#004687"></path>
    <path d="M59.2736 43.3912H61.9256V40.8728H63.4572V47.5029H61.9256V44.6864H59.2736V47.5029H57.7523V40.8728H59.2736V43.3912Z" fill="#004687"></path>
    <path d="M64.9891 40.8728H66.4899V43.4529H67.4047C68.0598 43.3995 68.7105 43.598 69.2241 44.008C69.5757 44.415 69.7691 44.9349 69.7691 45.4728C69.7691 46.0106 69.5757 46.5305 69.2241 46.9375C68.6884 47.3587 68.0111 47.5575 67.3328 47.4926H64.9891V40.8728ZM66.4899 46.2591H67.1683C67.4437 46.2822 67.7197 46.2213 67.9598 46.0844C68.0563 46.0169 68.1335 45.9256 68.184 45.8192C68.2344 45.7129 68.2564 45.5953 68.2476 45.4779C68.2581 45.3585 68.2382 45.2383 68.1897 45.1286C68.1411 45.019 68.0656 44.9234 67.9701 44.8509C67.7306 44.713 67.4532 44.6554 67.1786 44.6864H66.4899V46.2591ZM71.9275 47.4926H70.4268V40.8728H71.9584L71.9275 47.4926Z" fill="#004687"></path>
    <path d="M75.032 40.8726V45.2001L78.1157 40.7904H79.4725V47.5027H77.9204V43.1546L74.8367 47.5746H73.5004V40.8726H75.032ZM78.4446 39.1354C78.2862 39.4998 78.0255 39.8104 77.6943 40.0297C77.3195 40.2321 76.8965 40.3281 76.471 40.3073C76.0488 40.3289 75.6289 40.2328 75.2581 40.0297C74.923 39.8119 74.6587 39.5011 74.4975 39.1354L75.5254 38.6832C75.5928 38.8692 75.7059 39.0353 75.8543 39.1663C76.0357 39.28 76.2468 39.3373 76.4608 39.3307C76.6647 39.3342 76.8651 39.277 77.0364 39.1663C77.1905 39.0405 77.3047 38.8726 77.3653 38.6832L78.4446 39.1354Z" fill="#004687"></path>
    <path d="M88.1376 42.1577V47.5029H86.606V42.1577H85.1669V40.8728H89.5767V42.1577H88.1376Z" fill="#004687"></path>
    <path d="M94.2229 42.1577H92.0026V43.4426H94.1098V44.7378H92.0026V46.2077H94.2229V47.5029H90.471V40.8728H94.2229V42.1577Z" fill="#004687"></path>
    <path d="M97.8925 40.8728C98.5192 40.8315 99.1388 41.0258 99.6296 41.4176C99.849 41.623 100.021 41.8739 100.132 42.1527C100.244 42.4315 100.294 42.7315 100.277 43.0315C100.293 43.5926 100.09 44.1379 99.7119 44.5528C99.4834 44.76 99.2154 44.9187 98.9239 45.0194C98.6323 45.1201 98.3235 45.1607 98.0158 45.1387H97.0804V47.4618H95.5591V40.8728H97.8925ZM97.0804 43.9566H97.6355C97.9321 43.9764 98.2253 43.8848 98.4578 43.6996C98.6199 43.5233 98.7082 43.2915 98.7045 43.052C98.7086 42.9331 98.6888 42.8146 98.6465 42.7034C98.6041 42.5922 98.54 42.4905 98.4578 42.4044C98.2117 42.2157 97.9031 42.1275 97.5944 42.1577H97.0804V43.9566Z" fill="#004687"></path>
    <path d="M101.017 47.5029L102.076 40.8728H103.351L105.006 44.8406L106.65 40.8728H107.925L108.984 47.5029H107.462L106.928 43.5454L105.273 47.5029H104.738L103.084 43.5454L102.549 47.5029H101.017Z" fill="#004687"></path>
    <path d="M111.748 40.8729V45.2004L114.822 40.7906H116.179V47.5029H114.637V43.1548L111.574 47.5749H110.217V40.8729H111.748Z" fill="#004687"></path>
    <path d="M119.243 43.3912H121.884V40.8728H123.416V47.5029H121.884V44.6864H119.243V47.5029H117.711V40.8728H119.243V43.3912Z" fill="#004687"></path>
    <path d="M128.843 46.2488H126.345L125.841 47.5029H124.248L126.921 40.8728H128.319L130.94 47.5029H129.347L128.843 46.2488ZM128.432 45.077L127.62 42.8464L126.797 45.077H128.432Z" fill="#004687"></path>
    <path d="M137.416 40.8728V47.4926H135.894V42.168H134.126V44.4397C134.234 45.3627 133.996 46.2927 133.458 47.0506C133.259 47.2349 133.023 47.3765 132.767 47.4666C132.511 47.5568 132.239 47.5936 131.968 47.5748C131.759 47.5748 131.552 47.5472 131.351 47.4926V46.1255C131.473 46.1677 131.602 46.1885 131.731 46.1872C131.953 46.192 132.169 46.1152 132.338 45.9713C132.592 45.5562 132.697 45.0666 132.636 44.5836V40.8728H137.416Z" fill="#004687"></path>
</svg>