<?xml version="1.0" standalone="no"?>
<!DOCTYPE svg PUBLIC "-//W3C//DTD SVG 20010904//EN"
 "http://www.w3.org/TR/2001/REC-SVG-20010904/DTD/svg10.dtd">
<svg version="1.0" xmlns="http://www.w3.org/2000/svg"
 width="5321.000000pt" height="776.000000pt" viewBox="0 0 5321.000000 776.000000"
 preserveAspectRatio="xMidYMid meet">

<g transform="translate(0.000000,776.000000) scale(0.100000,-0.100000)"
fill="#224996" stroke="none">
<path d="M9330 7743 c-1811 -49 -3712 -725 -5221 -1855 -809 -605 -1470 -1310
-1946 -2073 -54 -87 -2141 -3719 -2150 -3741 -4 -12 338 -14 2138 -12 l2142 3
744 1345 743 1345 2047 5 2046 5 661 1150 661 1150 -1674 5 -1674 5 45 50
c111 123 404 235 748 285 236 34 454 40 1630 40 l1145 0 658 1144 c361 628
657 1146 657 1149 0 6 -3179 6 -3400 0z"/>
<path d="M18200 7743 c-1537 -48 -3178 -549 -4605 -1405 -1120 -673 -1986
-1498 -2440 -2328 -165 -301 -282 -638 -330 -950 -26 -167 -30 -429 -11 -598
147 -1267 1337 -2168 3116 -2361 372 -40 509 -42 2753 -39 l2158 3 659 1150
c363 633 660 1153 660 1158 0 4 -856 7 -1902 7 -1208 0 -1943 4 -2013 10 -278
26 -477 91 -610 201 -54 45 -125 133 -125 155 0 12 359 14 2441 16 l2440 3
663 1150 662 1150 -2365 5 -2365 5 50 41 c165 137 410 253 625 298 166 34 281
36 2284 36 l1990 0 653 1134 c358 624 655 1141 658 1150 6 15 -199 16 -2477
14 -1366 -1 -2522 -3 -2569 -5z"/>
<path d="M28810 7743 c-2759 -87 -5745 -1598 -7033 -3558 -71 -108 -827 -1407
-827 -1421 0 -2 979 -4 2175 -4 1905 0 2175 -2 2175 -15 0 -20 -63 -81 -128
-123 -145 -92 -361 -170 -587 -212 l-120 -22 -1868 -8 c-1073 -4 -1871 -11
-1876 -16 -12 -13 -1321 -2291 -1321 -2298 0 -11 5062 -7 5265 4 1801 96 3761
784 5177 1816 295 215 534 421 789 680 254 260 447 499 607 754 64 102 1002
1735 1002 1745 0 3 -1051 5 -2335 5 -1603 0 -2335 3 -2335 10 0 23 36 63 94
104 120 85 279 151 478 199 l93 21 2101 3 c1652 3 2104 6 2112 16 12 16 1332
2316 1332 2322 0 5 -4815 3 -4970 -2z"/>
<path d="M39104 7740 c-1759 -64 -3453 -594 -4834 -1514 -741 -493 -1368
-1095 -1789 -1716 -676 -999 -818 -1940 -416 -2755 129 -262 260 -439 486
-660 560 -545 1410 -890 2464 -1000 326 -33 522 -36 2630 -33 l2089 3 663
1155 663 1155 -1898 6 c-1884 5 -1898 5 -2007 26 -403 79 -658 279 -757 593
-20 66 -23 94 -23 245 0 154 3 179 27 267 192 690 898 1311 1872 1647 367 127
766 212 1196 256 288 29 601 35 1890 35 l1286 0 657 1143 c361 629 657 1146
657 1150 0 9 -4598 6 -4856 -3z"/>
<path d="M48965 7744 c-22 -2 -110 -9 -195 -15 -1149 -81 -2445 -447 -3570
-1008 -775 -387 -1475 -866 -2007 -1374 -96 -92 -109 -107 -90 -111 12 -2 126
-16 252 -31 454 -52 805 -120 1445 -280 1220 -304 1889 -388 3097 -389 l532
-1 -17 -30 c-10 -16 -51 -87 -92 -157 l-74 -128 -502 0 c-638 0 -1013 18
-1474 71 -504 58 -836 121 -1575 300 -601 146 -848 197 -1225 253 -1173 175
-2423 140 -3675 -104 -282 -55 -530 -111 -542 -123 -18 -19 -246 -418 -241
-423 3 -2 56 9 119 26 1150 304 2291 403 3494 304 357 -29 824 -94 1185 -165
220 -43 406 -86 816 -188 859 -214 1357 -295 2154 -352 85 -6 395 -13 688 -16
292 -3 532 -8 532 -11 0 -7 -140 -252 -163 -286 l-20 -29 -506 6 c-618 7 -930
26 -1396 83 -483 59 -888 141 -1685 339 -1722 428 -3414 418 -5278 -33 l-154
-37 -123 -220 c-68 -121 -122 -221 -120 -223 2 -2 86 20 186 48 1386 391 2814
480 4284 270 385 -56 864 -153 1380 -282 852 -211 1319 -290 2030 -343 236
-17 719 -35 963 -35 94 0 172 -2 172 -5 0 -3 -39 -73 -86 -155 l-87 -150 -316
0 c-1056 0 -1843 103 -2992 390 -751 188 -1265 272 -2039 332 -222 17 -1156
17 -1385 0 -781 -59 -1377 -151 -2087 -323 l-207 -51 -125 -216 c-69 -119
-124 -218 -122 -219 2 -2 59 12 127 31 993 279 2050 412 3114 392 193 -3 360
-9 373 -13 18 -4 22 -11 18 -27 -39 -157 -57 -452 -37 -626 38 -337 179 -730
357 -996 390 -584 1061 -1006 1955 -1228 1628 -404 3731 -96 5624 823 981 477
1842 1105 2470 1801 1084 1203 1371 2489 774 3476 -126 210 -356 468 -559 628
-493 389 -1168 653 -1970 770 -339 50 -458 58 -925 61 -242 1 -458 1 -480 -1z"/>
</g>
</svg>
