<?xml version="1.0" standalone="no"?>
<!DOCTYPE svg PUBLIC "-//W3C//DTD SVG 20010904//EN"
 "http://www.w3.org/TR/2001/REC-SVG-20010904/DTD/svg10.dtd">
<svg version="1.0" xmlns="http://www.w3.org/2000/svg"
 width="1920.000000pt" height="1230.000000pt" viewBox="0 0 1920.000000 1230.000000"
 preserveAspectRatio="xMidYMid meet">

<g transform="translate(0.000000,1230.000000) scale(0.100000,-0.100000)"
fill="#00ADEF" stroke="none">
<path d="M1575 12198 c-6 -21 -1485 -9451 -1485 -9471 0 -16 39 -17 712 -15
l712 3 216 1142 c118 628 217 1144 220 1147 3 3 61 -509 128 -1136 68 -628
125 -1145 128 -1150 3 -4 311 -8 686 -8 l681 0 -6 37 c-3 21 -72 814 -153
1763 l-147 1725 612 1459 c336 803 611 1463 611 1468 0 4 -294 8 -654 8 l-653
0 -254 -602 c-559 -1331 -649 -1543 -649 -1533 0 6 162 1162 360 2571 198
1409 360 2571 360 2583 l0 21 -710 0 c-560 0 -711 -3 -715 -12z"/>
<path d="M4557 5978 c-334 -1784 -608 -3249 -607 -3255 0 -19 1238 -19 1245 0
3 6 128 671 278 1477 245 1311 275 1459 280 1405 4 -33 52 -679 107 -1435 55
-756 103 -1394 106 -1417 l5 -43 649 0 650 0 5 23 c6 27 1215 6475 1215 6482
0 3 -281 5 -624 5 l-624 0 -10 -47 c-6 -27 -126 -676 -267 -1443 -142 -767
-261 -1398 -264 -1402 -3 -4 -71 645 -150 1443 l-145 1449 -621 0 -621 0 -607
-3242z"/>
<path d="M9591 8973 c-314 -975 -2001 -6245 -2001 -6253 0 -7 257 -10 735 -10
691 0 736 1 742 18 4 9 75 274 159 587 l151 570 262 3 263 2 -6 -37 c-13 -81
-136 -1096 -136 -1119 l0 -24 679 0 679 0 7 63 c3 34 104 1468 225 3187 121
1719 222 3155 226 3193 l6 67 -956 0 -955 0 -80 -247z m756 -1310 c-4 -32 -24
-206 -46 -388 -88 -721 -231 -2098 -231 -2215 0 -19 -7 -20 -245 -20 -135 0
-245 4 -245 8 0 18 125 502 195 754 100 362 264 915 426 1443 72 237 134 440
137 453 9 44 15 21 9 -35z"/>
<path d="M12725 9208 c-2 -7 -173 -917 -379 -2023 -594 -3184 -583 -3116 -573
-3405 8 -222 38 -348 127 -535 80 -170 182 -284 355 -398 266 -175 534 -253
905 -264 290 -9 511 20 742 97 368 123 642 323 894 655 183 240 267 423 354
770 67 265 72 292 550 2835 l427 2275 -736 3 c-404 1 -738 -1 -742 -5 -3 -5
-210 -1095 -458 -2423 -459 -2454 -506 -2695 -563 -2878 -49 -157 -118 -224
-237 -225 -68 0 -115 22 -137 65 -22 42 -15 228 15 413 22 133 938 5006 947
5038 5 16 -35 17 -741 17 -588 0 -747 -3 -750 -12z"/>
<path d="M16650 9218 c-1 -2 -369 -2046 -819 -4543 l-818 -4540 720 -3 c396
-1 723 0 726 3 4 5 950 5291 951 5318 0 4 200 7 445 7 245 0 445 2 445 5 0 3
47 271 105 595 58 325 105 599 105 610 0 20 -8 20 -441 20 l-441 0 5 23 c3 12
54 279 112 592 58 314 109 580 112 593 l5 22 494 0 494 0 5 23 c3 12 55 294
116 627 60 333 113 615 116 628 l5 22 -1221 0 c-672 0 -1221 -1 -1221 -2z"/>
</g>
</svg>
