<?xml version="1.0" standalone="no"?>
<!DOCTYPE svg PUBLIC "-//W3C//DTD SVG 20010904//EN"
 "http://www.w3.org/TR/2001/REC-SVG-20010904/DTD/svg10.dtd">
<svg version="1.0" xmlns="http://www.w3.org/2000/svg"
 width="1199.000000pt" height="547.000000pt" viewBox="0 0 1199.000000 547.000000"
 preserveAspectRatio="xMidYMid meet">

<g transform="translate(0.000000,547.000000) scale(0.100000,-0.100000)"
fill="#0059FF" stroke="none">
<path d="M2597 3630 c-311 -53 -586 -274 -697 -561 -50 -129 -63 -201 -63
-339 0 -138 13 -210 63 -339 98 -254 319 -453 595 -537 82 -25 104 -28 250
-28 146 0 168 3 250 28 317 97 550 337 631 652 36 139 36 308 0 446 -88 342
-356 598 -701 669 -94 20 -240 23 -328 9z m223 -421 c171 -27 324 -153 382
-317 26 -70 34 -191 19 -262 -53 -246 -300 -418 -547 -380 -142 22 -291 124
-356 246 -77 142 -77 326 0 468 75 140 248 246 417 255 11 0 49 -4 85 -10z"/>
<path d="M6755 3633 c-83 -7 -258 -45 -347 -74 -459 -150 -748 -470 -748 -829
0 -661 952 -1099 1799 -828 328 105 592 319 694 564 219 521 -242 1060 -992
1160 -96 12 -304 16 -406 7z m298 -423 c263 -26 487 -119 620 -259 148 -154
142 -307 -15 -458 -347 -332 -1115 -329 -1457 5 -155 152 -155 312 0 464 134
130 359 224 594 247 125 12 147 12 258 1z"/>
<path d="M4055 3581 c-78 -36 -125 -111 -125 -198 0 -80 49 -153 125 -189 11
-5 170 -11 353 -14 l333 -5 -465 -614 c-344 -454 -466 -622 -466 -641 0 -15 8
-34 19 -44 17 -15 79 -16 788 -14 l770 3 48 30 c135 83 129 287 -10 363 -26
15 -83 18 -427 22 l-398 5 465 613 c255 337 465 618 466 625 3 27 -2 46 -17
61 -14 14 -92 16 -717 16 -662 0 -704 -1 -742 -19z"/>
<path d="M8534 3586 c-19 -14 -19 -34 -19 -788 l0 -773 24 -48 c75 -153 296
-154 375 -2 20 38 21 59 26 423 l5 382 580 -460 c376 -298 588 -460 603 -460
12 0 31 9 42 20 20 20 20 29 18 793 l-3 772 -22 42 c-81 151 -299 149 -374 -4
-24 -47 -24 -54 -29 -425 l-5 -378 -579 460 c-353 280 -588 460 -601 460 -12
0 -30 -6 -41 -14z"/>
</g>
</svg>
