<?xml version="1.0" encoding="UTF-8"?> <svg xmlns="http://www.w3.org/2000/svg" id="Layer_2" data-name="Layer 2" viewBox="0 0 149.64 91.78"><defs><style>.cls-1{fill:#3f55a0;}.cls-2{fill:#151632;}</style></defs><path class="cls-1" d="M50.11,30A1.58,1.58,0,0,0,51,32.07a1.62,1.62,0,0,0,.61.12,1.58,1.58,0,0,0,1.46-1,13,13,0,0,1,6.7-6.81l-.6,2.94,1.28-1.5a19.1,19.1,0,0,1,4.86-3.71l1.21-.67-1.35-.28A18.77,18.77,0,0,1,59.4,19L57.73,18l1.69,3.14A16.37,16.37,0,0,0,50.11,30Z"></path><path class="cls-1" d="M77.41,9.26h0l.21-.52a1.58,1.58,0,0,0-.84-2.07,1.56,1.56,0,0,0-2.07.85l-.25.57a29.73,29.73,0,0,0-38.6,22.21,1.6,1.6,0,0,0,1.25,1.87,1.63,1.63,0,0,0,.31,0A1.59,1.59,0,0,0,39,30.92,26.65,26.65,0,0,1,65,9.71,26.37,26.37,0,0,1,73.23,11l-30.16,72A1.58,1.58,0,0,0,46,84.28L57.25,57.41,59.1,53h0L64.36,40.4l7,16.91a1.5,1.5,0,0,0,.61.75,1.63,1.63,0,0,0,.9.26A1.6,1.6,0,0,0,74.35,56L66.06,36.37,76.18,12.19A26.71,26.71,0,0,1,89.42,25.75l-3.23-.22,1.66,1.07a19.56,19.56,0,0,1,4.35,4.31L93,32l.1-1.38a19.13,19.13,0,0,1,1.35-6l.83-1.78-2.79,2A30,30,0,0,0,77.41,9.26Z"></path><path class="cls-2" d="M28,34.82H12.68a1.59,1.59,0,0,0-1.17.47A1.63,1.63,0,0,0,11,36.46V56.69a1.59,1.59,0,0,0,1.64,1.63,1.56,1.56,0,0,0,1.16-.46,1.59,1.59,0,0,0,.47-1.17V38h12V56.69a1.58,1.58,0,0,0,.46,1.17,1.64,1.64,0,0,0,1.17.46,1.57,1.57,0,0,0,1.63-1.63V36.46A1.59,1.59,0,0,0,28,34.82Z"></path><path class="cls-2" d="M50.7,57.89a1.57,1.57,0,0,0,0-2.29,1.62,1.62,0,0,0-1.14-.46H38.38v-7h8.5a1.62,1.62,0,0,0,1.17-2.75,1.64,1.64,0,0,0-1.17-.46h-8.5V38H50.25a1.61,1.61,0,0,0,1.14-.45,1.57,1.57,0,0,0,0-2.29,1.62,1.62,0,0,0-1.13-.44H36.75a1.61,1.61,0,0,0-1.17.47,1.63,1.63,0,0,0-.47,1.17V56.69a1.59,1.59,0,0,0,1.64,1.63H49.57A1.63,1.63,0,0,0,50.7,57.89Z"></path><path class="cls-2" d="M92.68,38a1.63,1.63,0,0,0,1.15-.45,1.53,1.53,0,0,0,.48-1.12,1.55,1.55,0,0,0-.49-1.17,1.65,1.65,0,0,0-1.14-.44H79.18a1.57,1.57,0,0,0-1.16.47,1.59,1.59,0,0,0-.47,1.17V56.69A1.62,1.62,0,0,0,78,57.86a1.6,1.6,0,0,0,1.17.46h13.5a1.64,1.64,0,0,0,1.14-.43,1.55,1.55,0,0,0,.49-1.17,1.51,1.51,0,0,0-.48-1.12,1.64,1.64,0,0,0-1.15-.46H80.82v-7h8.49a1.59,1.59,0,0,0,1.17-.47,1.62,1.62,0,0,0,0-2.28,1.64,1.64,0,0,0-1.17-.46H80.82V38Z"></path><path class="cls-2" d="M116.15,34.82a1.61,1.61,0,0,0-1.64,1.64v8.47h-13V36.46a1.64,1.64,0,1,0-3.27,0V56.69a1.64,1.64,0,1,0,3.27,0V48h13v8.73a1.64,1.64,0,1,0,3.27,0V36.46a1.61,1.61,0,0,0-1.63-1.64Z"></path><path class="cls-2" d="M138.1,35.26a1.62,1.62,0,0,0-1.13-.44H124.91a1.61,1.61,0,0,0-1.64,1.64V56.69a1.64,1.64,0,0,0,1.64,1.63,1.58,1.58,0,0,0,1.15-.48,1.6,1.6,0,0,0,.48-1.15V38H137a1.65,1.65,0,0,0,1.14-.45,1.57,1.57,0,0,0,0-2.29Z"></path></svg> 