<?xml version="1.0" standalone="no"?>
<!DOCTYPE svg PUBLIC "-//W3C//DTD SVG 20010904//EN"
 "http://www.w3.org/TR/2001/REC-SVG-20010904/DTD/svg10.dtd">
<svg version="1.0" xmlns="http://www.w3.org/2000/svg"
 width="1280.000000pt" height="430.000000pt" viewBox="0 0 1280.000000 430.000000"
 preserveAspectRatio="xMidYMid meet">

<g transform="translate(0.000000,430.000000) scale(0.100000,-0.100000)"
fill="#008C95" stroke="none">
<path d="M1485 3131 c-77 -19 -152 -88 -173 -158 -15 -52 -145 -1535 -139
-1601 5 -63 42 -122 106 -167 l43 -30 760 -3 c843 -3 832 -4 897 60 61 59 70
94 96 381 13 144 27 301 30 350 l7 87 -415 0 -415 0 -5 -32 c-4 -18 -11 -105
-18 -193 -7 -88 -16 -170 -20 -182 -8 -22 -14 -23 -108 -23 -55 0 -102 4 -105
8 -2 4 15 232 40 507 24 275 44 510 44 523 0 21 3 22 110 22 l110 0 0 -27 c0
-16 -7 -100 -15 -188 -8 -88 -15 -163 -15 -167 0 -5 188 -8 418 -8 l418 0 28
320 c26 303 27 322 11 369 -18 54 -68 110 -124 138 -34 17 -83 18 -786 20
-412 0 -763 -2 -780 -6z"/>
<path d="M3430 3117 c0 -12 -38 -450 -85 -972 -47 -523 -85 -956 -85 -963 0
-10 70 -12 358 -10 348 3 358 4 399 25 23 13 53 38 67 56 15 19 85 196 164
415 77 211 142 385 146 389 4 4 4 -11 1 -32 -3 -22 -21 -209 -40 -415 -19
-206 -37 -390 -39 -408 l-5 -32 420 0 c353 0 419 2 419 14 0 8 38 450 85 982
47 532 85 969 85 971 0 2 -152 3 -338 3 -399 0 -416 -3 -484 -78 -41 -46 -48
-65 -162 -418 -66 -203 -130 -404 -144 -447 -13 -43 -26 -77 -28 -74 -4 3 87
884 101 980 l5 37 -420 0 -420 0 0 -23z"/>
<path d="M5540 3123 c0 -24 -158 -1833 -165 -1900 l-6 -53 858 0 c590 0 870 4
898 11 55 15 128 91 143 150 18 64 84 830 80 921 -3 66 -7 82 -33 120 -20 28
-49 52 -84 71 l-55 27 -429 0 -429 0 7 78 c3 42 9 89 11 105 l6 27 523 0 524
0 5 33 c7 42 36 368 36 401 l0 26 -945 0 c-893 0 -945 -1 -945 -17z m960
-1087 c0 -43 -29 -390 -36 -433 l-5 -33 -109 0 c-61 0 -110 3 -110 8 0 4 9
106 20 227 11 121 20 230 20 243 0 21 3 22 110 22 l110 0 0 -34z"/>
<path d="M7650 3117 c0 -12 -20 -256 -45 -542 -30 -351 -42 -531 -36 -555 15
-61 29 -87 65 -124 64 -63 88 -66 549 -66 l410 0 -7 -96 c-4 -53 -9 -101 -12
-105 -3 -5 -241 -9 -530 -9 -477 0 -524 -1 -524 -16 0 -25 -29 -354 -35 -397
l-5 -37 862 0 863 0 52 24 c63 30 108 87 123 159 9 43 160 1713 160 1769 0 17
-23 18 -414 18 l-414 0 -6 -47 c-3 -27 -20 -208 -36 -403 -16 -195 -33 -376
-36 -402 l-6 -48 -109 0 c-60 0 -109 3 -109 7 0 14 70 811 75 851 l5 42 -420
0 -420 0 0 -23z"/>
<path d="M9760 3119 c0 -29 -158 -1853 -166 -1906 l-5 -43 420 0 421 0 0 25
c0 28 36 452 45 533 l6 52 433 0 c481 0 506 3 563 62 66 69 69 83 115 610 47
538 47 535 -15 605 -18 20 -52 46 -77 57 -44 21 -58 21 -892 24 l-848 3 0 -22z
m1010 -476 c0 -46 -29 -409 -36 -440 -4 -22 -9 -23 -109 -23 l-105 0 0 32 c0
44 30 417 36 446 4 21 9 22 109 22 l105 0 0 -37z"/>
</g>
</svg>
