<?xml version="1.0" encoding="UTF-8"?>
<!DOCTYPE svg PUBLIC "-//W3C//DTD SVG 1.1//EN" "http://www.w3.org/Graphics/SVG/1.1/DTD/svg11.dtd">
<!-- Creator: CorelDRAW X7 -->
<svg xmlns="http://www.w3.org/2000/svg" xml:space="preserve" width="169px" height="55px" version="1.1" style="shape-rendering:geometricPrecision; text-rendering:geometricPrecision; image-rendering:optimizeQuality; fill-rule:evenodd; clip-rule:evenodd"
viewBox="0 0 1410 460"
 xmlns:xlink="http://www.w3.org/1999/xlink">
 <defs>
  <style type="text/css">
   <![CDATA[
    .fil0 {fill:none}
    .fil1 {fill:#C63037;fill-rule:nonzero}
   ]]>
  </style>
 </defs>
 <g id="Layer_x0020_1">
  <metadata id="CorelCorpID_0Corel-Layer"/>
  <rect class="fil0" x="-3" y="-1" width="1692" height="552"/>
  <path class="fil1" d="M754 230c-2,1 -4,2 -7,2 -2,0 -7,0 -16,0l-10 0 0 -12 8 0c15,0 20,1 21,1 1,0 3,1 4,2 1,0 1,1 1,3 0,2 -1,3 -1,4zm-757 35c10,-9 151,-152 177,-176 0,0 57,-63 155,-64l2 0c12,0 143,6 185,139l-71 0c0,0 -33,-71 -115,-71 0,0 -104,-5 -135,103l464 0c0,0 -103,103 -176,177 0,0 -57,63 -156,64 0,0 -142,0 -187,-140l71 0c0,0 33,71 116,71 0,0 104,6 134,-103l-464 0zm1393 -73c0,1 -1,1 -1,1 -1,1 -2,1 -3,1l-6 0 0 -7 6 0c2,0 3,1 4,1 0,1 1,2 1,3 0,0 0,1 -1,1zm3 8c-1,-1 -2,-2 -3,-3 0,0 0,0 -1,0 2,-1 3,-1 4,-2 1,-1 2,-3 2,-4 0,-2 -1,-3 -1,-4 -1,-1 -2,-2 -3,-2 -1,-1 -3,-1 -5,-1l-10 0 0 23 4 0 0 -10 3 0c1,0 1,0 1,0 1,0 1,1 2,1 0,0 0,1 1,1 0,1 1,2 2,3l3 5 5 0 -4 -7zm-8 -22c-10,0 -18,8 -18,18 0,10 8,18 18,18 10,0 18,-8 18,-18 0,-10 -8,-18 -18,-18zm0 40c-12,0 -22,-10 -22,-22 0,-12 10,-22 22,-22 12,0 22,10 22,22 0,12 -10,22 -22,22zm-75 2l0 53 -30 0c5,-13 7,-30 7,-53l23 0zm29 53l0 -77 -80 0 0 17c0,17 -1,31 -3,40 -2,8 -4,14 -7,20l-10 0 0 45 26 0 0 -21 57 0 0 21 26 0 0 -45 -9 0zm-158 1c-7,0 -13,-2 -18,-6 -4,-5 -7,-12 -7,-21 0,-10 3,-17 7,-22 5,-4 10,-6 18,-6 7,0 12,2 17,6 4,5 6,12 6,21 0,10 -2,17 -6,22 -5,4 -11,6 -17,6zm-1 -80c-10,0 -20,2 -27,6 -8,4 -14,10 -19,18 -5,7 -7,17 -7,29 0,17 5,30 16,39 9,9 22,13 37,13 16,0 29,-4 38,-13 11,-9 16,-23 16,-39 0,-17 -5,-30 -15,-39 -10,-9 -23,-14 -39,-14zm-53 2l-37 0 -19 25 -20 -25 -37 0 38 48 -41 53 37 0 23 -29 22 29 38 0 -42 -53 38 -48zm-141 58l-2 4c-1,6 -3,10 -6,13 -4,2 -7,3 -12,3 -6,0 -11,-2 -14,-6 -4,-4 -6,-11 -6,-22 0,-10 2,-17 6,-21 4,-4 9,-6 15,-6 4,0 8,1 11,3 3,2 5,5 6,9l1 4 29 -6 -2 -5c-2,-9 -7,-16 -13,-20 -8,-6 -19,-10 -31,-10 -15,0 -27,5 -36,13 -10,10 -15,23 -15,40 0,17 5,30 15,39 9,9 21,13 35,13 11,0 21,-3 29,-8 8,-5 13,-14 17,-25l1 -4 -28 -8zm-135 20c-8,0 -14,-2 -18,-7 -5,-4 -8,-11 -8,-20 0,-10 3,-17 7,-22 5,-4 11,-6 19,-6 7,0 13,2 18,6 4,5 7,12 7,21 0,10 -3,17 -7,22 -5,4 -11,6 -18,6zm39 -66c-10,-9 -23,-14 -39,-14 -12,0 -21,2 -29,6 -8,4 -15,10 -20,18 -5,7 -7,17 -7,29 0,17 6,30 17,39 9,9 22,13 39,13 16,0 29,-4 38,-13 11,-9 17,-23 17,-39 0,-17 -5,-30 -16,-39zm-153 65l-16 0 0 -16 13 0c12,0 17,0 18,1 3,0 5,1 6,3 1,1 1,2 1,4 0,2 0,3 -1,5 -1,1 -3,2 -4,2 -2,0 -6,1 -17,1zm39 -30c1,-2 3,-3 4,-5 4,-4 6,-9 6,-15 0,-5 -2,-11 -7,-15 -3,-5 -8,-8 -14,-10 -5,-1 -14,-2 -27,-2l-48 0 0 101 42 0c16,0 27,0 32,-1 7,-1 13,-4 19,-10 5,-5 8,-12 8,-20 0,-7 -2,-13 -7,-17 -2,-3 -5,-5 -8,-6z"/>
 </g>
</svg>
