<?xml version="1.0" standalone="no"?>
<!DOCTYPE svg PUBLIC "-//W3C//DTD SVG 20010904//EN"
 "http://www.w3.org/TR/2001/REC-SVG-20010904/DTD/svg10.dtd">
<svg version="1.0" xmlns="http://www.w3.org/2000/svg"
 width="390.000000pt" height="366.000000pt" viewBox="0 0 390.000000 366.000000"
 preserveAspectRatio="xMidYMid meet">

<g transform="translate(0.000000,366.000000) scale(0.100000,-0.100000)"
fill="#005A7C" stroke="none">
<path d="M1750 3104 c-84 -11 -201 -39 -280 -66 -191 -68 -331 -157 -481 -307
-188 -188 -299 -392 -355 -651 -26 -119 -26 -381 0 -500 56 -259 167 -463 355
-651 188 -188 392 -299 651 -355 119 -26 381 -26 500 0 259 56 463 167 651
355 188 188 299 392 355 651 26 119 26 381 0 500 -56 259 -167 463 -355 651
-185 185 -379 293 -631 350 -83 19 -331 33 -410 23z m245 -244 c242 -28 458
-131 626 -299 82 -81 171 -209 214 -306 174 -394 90 -853 -214 -1156 -81 -82
-209 -171 -306 -214 -394 -174 -853 -90 -1156 214 -82 81 -171 209 -214 306
-174 394 -90 853 214 1156 163 164 385 272 612 298 105 12 123 12 224 1z"/>
<path d="M1677 2689 c-316 -77 -571 -334 -647 -651 -11 -46 -20 -95 -20 -110
l0 -28 93 0 c50 0 97 -4 103 -8 20 -13 36 -54 30 -77 -12 -47 -31 -55 -132
-55 l-94 0 0 -27 c0 -51 40 -193 74 -267 92 -200 242 -350 442 -442 74 -34
216 -74 267 -74 l27 0 0 93 c0 50 4 97 8 103 13 20 54 36 77 30 47 -12 55 -31
55 -132 l0 -94 28 0 c50 0 192 40 266 74 200 92 350 242 442 442 34 74 74 216
74 267 l0 27 -94 0 c-102 0 -120 8 -132 57 -5 17 0 33 13 51 19 26 25 27 117
30 l96 3 0 27 c0 57 -43 201 -85 287 -89 182 -222 317 -400 405 -95 47 -236
90 -297 90 l-28 0 0 -94 c0 -101 -8 -120 -55 -132 -23 -6 -64 10 -77 30 -4 6
-8 53 -8 104 l0 92 -32 -1 c-18 0 -68 -9 -111 -20z m665 -396 c11 -10 18 -30
18 -51 0 -37 -7 -45 -320 -364 -154 -158 -137 -159 -340 18 -175 152 -180 158
-180 194 0 43 26 70 68 70 34 0 52 -12 164 -110 70 -60 130 -110 134 -110 4 0
88 83 186 185 167 172 182 185 216 185 19 0 44 -7 54 -17z"/>
</g>
</svg>
