<?xml version="1.0" standalone="no"?>
<!DOCTYPE svg PUBLIC "-//W3C//DTD SVG 20010904//EN"
 "http://www.w3.org/TR/2001/REC-SVG-20010904/DTD/svg10.dtd">
<svg version="1.0" xmlns="http://www.w3.org/2000/svg"
 width="512.000000pt" height="512.000000pt" viewBox="0 0 512.000000 512.000000"
 preserveAspectRatio="xMidYMid meet">

<g transform="translate(0.000000,512.000000) scale(0.100000,-0.100000)"
fill="#FFFFFF" stroke="none">
<path d="M2448 4898 l-3 -223 -496 -5 c-421 -4 -499 -7 -514 -20 -41 -34 -45
-67 -45 -360 l0 -280 -77 0 c-102 0 -186 -14 -237 -41 -60 -30 -131 -105 -158
-163 -23 -51 -23 -52 -28 -630 l-5 -580 -303 -136 c-177 -80 -314 -147 -329
-162 -21 -21 -26 -36 -25 -70 1 -28 117 -391 326 -1018 180 -536 326 -978 326
-982 0 -10 -105 2 -174 19 -32 8 -103 36 -156 63 -189 95 -305 130 -430 130
l-60 0 0 -110 0 -110 48 0 c80 0 171 -28 312 -95 74 -36 161 -74 193 -85 137
-46 368 -51 517 -10 41 12 140 52 220 90 171 81 240 100 375 100 136 0 204
-19 385 -104 176 -84 249 -105 393 -113 193 -11 322 19 531 124 140 70 229 93
360 93 137 0 205 -19 376 -100 80 -38 179 -78 220 -90 149 -41 380 -36 517 10
32 11 119 49 193 85 141 67 232 95 313 95 l47 0 0 110 0 110 -60 0 c-125 0
-241 -35 -430 -130 -53 -27 -124 -55 -156 -63 -69 -17 -174 -29 -174 -19 0 4
146 446 326 982 209 627 325 990 326 1018 1 34 -4 49 -25 70 -15 15 -152 82
-329 162 l-303 136 -5 580 c-5 578 -5 579 -28 630 -27 58 -98 133 -158 163
-51 27 -135 41 -236 41 l-78 0 0 280 c0 293 -4 326 -45 360 -15 13 -93 16
-514 20 l-496 5 -3 223 -2 222 -110 0 -110 0 -2 -222z m1062 -668 l0 -220
-950 0 -950 0 0 220 0 220 950 0 950 0 0 -220z m451 -470 c16 -12 33 -36 39
-58 16 -58 14 -1006 -2 -999 -7 3 -329 147 -714 321 -386 174 -712 316 -724
316 -12 0 -338 -142 -724 -316 -385 -174 -707 -318 -713 -321 -10 -4 -13 96
-13 478 0 288 4 498 10 519 5 19 22 45 37 57 l28 23 1373 0 c1368 0 1374 0
1403 -20z m-1513 -837 l-3 -126 -944 -434 c-519 -238 -945 -432 -947 -430 -6
5 -84 230 -82 232 6 6 1964 885 1971 885 4 0 6 -57 5 -127z m1216 -314 c540
-242 982 -442 984 -444 2 -2 -76 -227 -82 -232 -2 -2 -428 192 -947 430 l-944
434 -3 126 c-1 70 1 127 4 127 4 0 449 -198 988 -441z m-1214 -724 l0 -665
110 0 110 0 0 666 c0 529 3 665 13 661 24 -9 1743 -800 1779 -818 l36 -19
-241 -725 c-178 -532 -246 -725 -257 -725 -8 0 -55 21 -105 47 -209 108 -308
134 -506 134 -187 0 -268 -22 -480 -127 -139 -69 -207 -86 -344 -87 -138 -1
-225 20 -343 80 -204 107 -306 134 -497 134 -191 0 -284 -25 -497 -132 -54
-27 -103 -49 -110 -49 -8 0 -104 272 -255 725 l-242 726 72 35 c113 55 1741
803 1750 803 4 1 7 -298 7 -664z"/>
<path d="M1780 4230 l0 -110 110 0 110 0 0 110 0 110 -110 0 -110 0 0 -110z"/>
<path d="M2110 4230 l0 -110 115 0 115 0 0 110 0 110 -115 0 -115 0 0 -110z"/>
<path d="M2450 4230 l0 -110 110 0 110 0 0 110 0 110 -110 0 -110 0 0 -110z"/>
<path d="M2780 4230 l0 -110 115 0 115 0 0 110 0 110 -115 0 -115 0 0 -110z"/>
<path d="M3120 4230 l0 -110 110 0 110 0 0 110 0 110 -110 0 -110 0 0 -110z"/>
<path d="M1340 3505 l0 -115 1220 0 1220 0 0 115 0 115 -1220 0 -1220 0 0
-115z"/>
<path d="M1340 3170 l0 -110 110 0 110 0 0 110 0 110 -110 0 -110 0 0 -110z"/>
<path d="M3560 3170 l0 -110 110 0 110 0 0 110 0 110 -110 0 -110 0 0 -110z"/>
</g>
</svg>
