<?xml version="1.0" standalone="no"?>
<!DOCTYPE svg PUBLIC "-//W3C//DTD SVG 20010904//EN"
 "http://www.w3.org/TR/2001/REC-SVG-20010904/DTD/svg10.dtd">
<svg version="1.0" xmlns="http://www.w3.org/2000/svg"
 width="512.000000pt" height="512.000000pt" viewBox="0 0 512.000000 512.000000"
 preserveAspectRatio="xMidYMid meet">

<g transform="translate(0.000000,512.000000) scale(0.100000,-0.100000)"
fill="#FFFFFF" stroke="none">
<path d="M959 4867 c-39 -30 -39 -34 -39 -805 l0 -750 -113 -3 c-103 -4 -117
-7 -154 -31 -72 -47 -73 -55 -73 -410 0 -299 1 -315 21 -347 44 -72 94 -91
238 -91 l91 0 0 -513 0 -513 -49 -13 c-59 -15 -124 -67 -153 -125 -34 -65 -31
-165 7 -235 30 -54 91 -104 142 -117 21 -6 21 -10 25 -213 l3 -206 33 -67 c36
-73 87 -124 161 -160 42 -21 60 -23 206 -23 155 0 162 1 216 28 66 32 132 99
162 165 20 43 22 67 25 255 l3 207 849 0 849 0 3 -207 c3 -188 5 -212 25 -255
30 -66 96 -133 162 -165 54 -27 61 -28 216 -28 155 0 162 1 217 28 68 33 121
90 157 166 25 54 26 64 30 261 l4 205 61 30 c50 25 67 40 93 83 41 70 50 134
28 209 -22 78 -89 145 -164 164 l-51 13 0 513 0 513 91 0 c144 0 194 19 238
91 20 32 21 48 21 347 0 355 -1 363 -73 410 -37 24 -51 27 -154 31 l-113 3 0
750 c0 771 0 775 -39 805 -23 18 -3179 18 -3202 0z m3081 -734 l0 -588 -29 51
c-40 68 -119 138 -187 163 -54 21 -69 21 -1264 21 -1195 0 -1210 0 -1264 -21
-68 -25 -147 -95 -187 -163 l-29 -51 0 588 0 587 1480 0 1480 0 0 -587z m-239
-541 c84 -54 91 -77 164 -542 l65 -411 0 -620 0 -619 -1470 0 -1470 0 0 618 0
617 65 413 c73 465 79 486 163 542 l45 30 1197 0 1196 0 45 -28z m-2886 -717
l0 -270 -87 -3 -88 -3 0 276 0 276 88 -3 87 -3 0 -270z m3465 0 l0 -276 -87 3
-88 3 -3 260 c-1 143 0 265 3 272 3 9 30 13 90 13 l85 0 0 -275z m-165 -1641
c47 -18 55 -112 14 -150 -21 -18 -68 -19 -1669 -19 -1601 0 -1648 1 -1669 19
-29 26 -36 76 -17 114 9 17 21 32 28 35 19 8 3293 8 3313 1z m-2665 -517 c0
-173 -1 -187 -23 -227 -37 -70 -85 -90 -218 -90 -59 0 -120 5 -136 11 -42 15
-92 68 -103 109 -5 19 -10 113 -10 208 l0 172 245 0 245 0 0 -183z m2510 11
c0 -95 -5 -189 -10 -208 -11 -41 -61 -94 -103 -109 -16 -6 -77 -11 -136 -11
-133 0 -181 20 -218 90 -22 40 -23 54 -23 227 l0 183 245 0 245 0 0 -172z"/>
<path d="M1362 3477 c-18 -19 -31 -82 -89 -449 l-67 -427 20 -28 21 -28 1313
0 1313 0 21 28 20 28 -66 432 c-60 389 -69 433 -88 449 -21 17 -87 18 -1199
18 l-1178 0 -21 -23z m2278 -144 c0 -5 22 -147 49 -318 27 -170 48 -311 46
-313 -1 -1 -530 -1 -1176 0 l-1175 3 50 318 50 317 1078 0 c593 0 1078 -3
1078 -7z"/>
<path d="M1360 2043 c-61 -22 -142 -104 -163 -167 -55 -160 31 -326 190 -372
100 -29 205 -1 278 72 57 59 80 115 80 204 0 65 -4 82 -30 129 -71 129 -215
183 -355 134z m178 -168 c84 -70 53 -201 -52 -220 -131 -25 -202 157 -88 228
41 25 105 22 140 -8z"/>
<path d="M3554 2044 c-57 -20 -114 -72 -149 -135 -26 -47 -30 -64 -30 -129 0
-89 23 -145 81 -204 138 -137 361 -101 451 73 59 114 40 235 -51 327 -80 79
-196 105 -302 68z m166 -161 c93 -55 69 -203 -37 -229 -41 -11 -104 16 -130
55 -73 108 55 241 167 174z"/>
<path d="M1904 2020 c-28 -11 -54 -48 -54 -78 0 -12 11 -34 25 -47 l24 -25
661 0 661 0 24 25 c32 31 32 66 1 102 l-24 28 -649 2 c-356 1 -658 -2 -669 -7z"/>
<path d="M1879 1661 c-36 -36 -37 -73 -4 -106 l24 -25 661 0 661 0 24 25 c33
33 32 70 -4 106 l-29 29 -652 0 -652 0 -29 -29z"/>
</g>
</svg>
