<?xml version="1.0" standalone="no"?>
<!DOCTYPE svg PUBLIC "-//W3C//DTD SVG 20010904//EN"
 "http://www.w3.org/TR/2001/REC-SVG-20010904/DTD/svg10.dtd">
<svg version="1.0" xmlns="http://www.w3.org/2000/svg"
 width="512.000000pt" height="512.000000pt" viewBox="0 0 512.000000 512.000000"
 preserveAspectRatio="xMidYMid meet">

<g transform="translate(0.000000,512.000000) scale(0.100000,-0.100000)"
fill="#005A7C" stroke="none">
<path d="M2365 5113 c-86 -6 -255 -33 -373 -59 -447 -100 -871 -333 -1206
-662 l-99 -97 159 -6 c99 -4 184 -13 224 -24 182 -48 270 -154 270 -325 0
-105 -37 -203 -147 -397 -149 -261 -205 -386 -219 -492 -9 -70 12 -88 157
-136 63 -21 137 -48 165 -60 l51 -23 -4 92 c-15 316 227 551 497 482 36 -9
114 -40 175 -68 60 -28 129 -53 151 -55 40 -5 45 -3 118 66 94 86 186 141 303
180 129 44 248 60 522 71 267 11 313 18 337 56 34 52 -14 187 -208 577 -133
267 -211 435 -255 542 -31 78 -73 238 -73 281 0 40 2 40 -160 54 -108 9 -272
11 -385 3z"/>
<path d="M3235 4963 c35 -102 79 -200 235 -518 277 -567 318 -693 275 -854
-39 -148 -147 -233 -345 -272 -30 -6 -170 -14 -310 -19 -156 -6 -281 -15 -323
-24 -101 -23 -182 -67 -292 -162 -123 -106 -164 -126 -271 -132 -98 -5 -152 9
-299 77 -57 27 -118 52 -136 56 -106 24 -169 -150 -105 -290 30 -67 115 -154
183 -188 73 -38 160 -57 254 -57 176 0 258 27 427 138 131 86 185 105 302 106
160 1 222 -41 357 -246 60 -92 98 -138 136 -167 l52 -40 30 25 c203 168 353
243 575 291 115 24 342 24 460 -1 228 -47 430 -151 591 -303 38 -36 73 -63 77
-59 12 13 7 426 -7 536 -70 557 -312 1062 -700 1462 -269 278 -536 462 -876
603 -80 33 -288 104 -307 105 -4 0 4 -30 17 -67z"/>
<path d="M376 3880 c-106 -177 -171 -315 -236 -505 -111 -323 -157 -671 -132
-993 46 -587 262 -1092 657 -1536 196 -220 482 -438 755 -576 325 -164 762
-270 1114 -270 76 0 78 1 72 23 -101 351 -156 792 -156 1243 l0 152 -34 30
c-19 16 -96 67 -172 113 -156 93 -227 154 -270 231 -28 52 -29 57 -32 218 -3
133 -7 168 -19 183 -29 31 -244 154 -418 237 -181 87 -342 153 -465 189 -156
47 -274 130 -324 229 -93 183 -38 402 209 833 82 141 115 215 115 254 0 46
-23 50 -323 50 l-278 0 -63 -105z"/>
<path d="M2774 2516 c-18 -8 -68 -39 -112 -69 -133 -91 -249 -138 -387 -156
-43 -6 -49 -9 -46 -26 2 -11 6 -94 10 -185 l6 -165 77 -50 c43 -27 119 -75
168 -105 110 -66 192 -146 227 -220 25 -53 26 -63 34 -320 9 -330 30 -581 64
-798 19 -118 60 -305 77 -355 l14 -38 24 48 c25 48 25 51 30 388 l5 340 31 65
c17 36 49 88 72 116 l40 51 -29 81 c-48 138 -63 231 -63 397 -1 213 27 333
120 521 l47 93 -77 72 c-52 49 -104 113 -163 200 -93 140 -100 145 -169 115z"/>
<path d="M4053 2396 c-348 -67 -622 -319 -714 -661 -29 -104 -32 -324 -6 -428
40 -161 28 -142 649 -1082 133 -202 157 -225 231 -225 76 1 87 14 450 556 189
281 357 543 375 581 153 331 85 723 -172 991 -113 119 -271 211 -431 252 -104
27 -285 34 -382 16z m238 -446 c235 -45 399 -275 361 -506 -32 -196 -180 -344
-376 -376 -289 -48 -556 219 -508 508 42 252 277 420 523 374z"/>
<path d="M4138 1639 c-43 -22 -78 -81 -78 -129 0 -17 9 -49 20 -70 23 -45 80
-80 130 -80 76 0 150 74 150 150 0 50 -35 107 -80 130 -49 25 -94 25 -142 -1z"/>
<path d="M3258 760 c-2 -6 -14 -660 -12 -660 24 0 341 116 357 130 5 4 -65
119 -154 256 -156 240 -187 284 -191 274z"/>
</g>
</svg>
