<?xml version="1.0" standalone="no"?>
<!DOCTYPE svg PUBLIC "-//W3C//DTD SVG 20010904//EN"
 "http://www.w3.org/TR/2001/REC-SVG-20010904/DTD/svg10.dtd">
<svg version="1.0" xmlns="http://www.w3.org/2000/svg"
 width="512.000000pt" height="512.000000pt" viewBox="0 0 512.000000 512.000000"
 preserveAspectRatio="xMidYMid meet">

<g transform="translate(0.000000,512.000000) scale(0.100000,-0.100000)"
fill="#ffffff" stroke="none">
<path d="M2469 4848 c-45 -15 -50 -46 -47 -276 4 -248 1 -241 105 -254 124
-15 230 -89 282 -198 22 -47 26 -68 26 -150 0 -84 -3 -102 -28 -152 -30 -61
-113 -144 -153 -154 -16 -4 -39 3 -68 20 -58 34 -73 33 -144 -9 -57 -34 -60
-35 -93 -21 -51 22 -102 65 -148 124 -34 42 -47 52 -71 52 -37 0 -70 -31 -70
-66 0 -34 47 -100 111 -158 29 -26 48 -50 43 -55 -5 -4 -471 -259 -1037 -566
-787 -427 -1028 -562 -1032 -579 -3 -11 -4 -497 -3 -1078 3 -1000 4 -1058 21
-1075 17 -17 127 -18 2370 -21 1598 -2 2363 0 2388 7 23 7 40 20 47 36 18 39
17 2035 0 2057 -7 9 -312 185 -678 391 -366 205 -852 479 -1080 607 -228 129
-417 235 -419 237 -2 1 20 29 51 60 100 106 142 209 141 348 -2 142 -54 258
-160 355 -65 59 -115 87 -198 110 l-60 17 -3 178 c-2 144 -5 182 -18 196 -20
23 -43 28 -75 17z m575 -1804 c257 -246 465 -448 463 -451 -10 -9 -1617 252
-1614 262 2 5 131 148 288 316 l284 307 50 4 c28 2 53 5 57 6 3 1 216 -199
472 -444z m-900 294 c-20 -24 -259 -282 -373 -403 l-66 -69 -445 -123 c-244
-67 -446 -121 -447 -119 -3 3 1338 735 1346 736 2 0 -4 -10 -15 -22z m1650
-497 c402 -226 724 -411 717 -411 -7 0 -182 27 -388 60 -206 33 -378 60 -384
60 -5 0 -9 6 -9 14 0 11 -240 246 -710 695 l-45 43 45 -25 c25 -14 373 -210
774 -436z m-484 -366 c806 -130 1480 -238 1498 -241 l32 -6 0 -929 0 -929
-1515 0 -1515 0 0 1174 c0 1113 1 1174 18 1170 9 -2 676 -110 1482 -239z
m-1640 -935 l0 -1170 -377 2 -378 3 0 1064 0 1065 370 102 c204 56 373 103
378 103 4 1 7 -526 7 -1169z m-900 -125 l0 -1045 -245 0 -245 0 0 980 0 979
38 10 c20 6 125 35 232 65 107 30 201 55 208 55 9 1 12 -214 12 -1044z"/>
<path d="M2171 2364 c-21 -27 -21 -32 -21 -836 l0 -809 25 -24 c30 -30 54 -31
89 -4 l26 20 0 820 c0 806 0 819 -20 839 -29 29 -74 26 -99 -6z"/>
<path d="M2695 2295 l-25 -24 0 -771 c0 -774 1 -800 34 -822 21 -14 66 -8 86
12 20 20 20 33 20 803 l0 784 -23 21 c-30 29 -62 28 -92 -3z"/>
<path d="M3139 2221 l-24 -19 0 -752 0 -752 24 -19 c30 -24 52 -24 85 2 l26
20 0 750 c0 736 0 749 -20 769 -25 25 -61 26 -91 1z"/>
<path d="M3596 2159 l-26 -20 0 -720 c0 -706 0 -719 20 -739 29 -29 74 -26 99
6 21 26 21 34 21 725 0 490 -3 705 -11 722 -10 22 -46 47 -68 47 -5 0 -20 -9
-35 -21z"/>
<path d="M4040 2110 c-20 -20 -20 -33 -20 -718 0 -653 1 -700 18 -715 36 -32
93 -22 111 20 8 21 11 215 9 711 l-3 684 -24 19 c-30 25 -66 24 -91 -1z"/>
<path d="M4450 2060 c-20 -20 -20 -33 -20 -695 0 -662 0 -675 20 -695 11 -11
31 -20 45 -20 14 0 34 9 45 20 20 20 20 33 20 695 0 662 0 675 -20 695 -11 11
-31 20 -45 20 -14 0 -34 -9 -45 -20z"/>
<path d="M1116 1639 l-26 -20 0 -160 c0 -146 2 -161 20 -179 27 -27 74 -26
100 2 18 20 20 35 20 175 0 150 -1 155 -25 178 -30 30 -54 31 -89 4z"/>
<path d="M516 1559 c-26 -20 -26 -23 -26 -143 0 -106 2 -125 18 -139 29 -26
77 -22 101 9 18 23 21 41 21 125 0 108 -10 141 -47 158 -32 15 -36 14 -67 -10z"/>
</g>
</svg>
